<svg width="16" height="20" viewBox="0 0 16 20" fill="none" xmlns="http://www.w3.org/2000/svg">
<path d="M15.2844 6.03432C15.141 6.17294 14.9494 6.25042 14.75 6.25042C14.5506 6.25042 14.359 6.17294 14.2156 6.03432L11 2.80932V9.99995C10.995 12.5843 9.96622 15.0614 8.13882 16.8888C6.31141 18.7162 3.83434 19.745 1.25 19.7499C1.05109 19.7499 0.860322 19.6709 0.71967 19.5303C0.579018 19.3896 0.5 19.1989 0.5 18.9999C0.5 18.801 0.579018 18.6103 0.71967 18.4696C0.860322 18.329 1.05109 18.2499 1.25 18.2499C3.43727 18.2475 5.53425 17.3775 7.08089 15.8308C8.62753 14.2842 9.49752 12.1872 9.5 9.99995V2.80932L6.28437 6.03432C6.13865 6.15392 5.95366 6.21504 5.76537 6.20579C5.57708 6.19654 5.39896 6.11759 5.26566 5.98429C5.13236 5.85099 5.0534 5.67287 5.04416 5.48458C5.03491 5.29629 5.09603 5.11129 5.21563 4.96557L9.71563 0.465571C9.85782 0.324735 10.0499 0.245728 10.25 0.245728C10.4501 0.245728 10.6422 0.324735 10.7844 0.465571L15.2844 4.96557C15.4252 5.10777 15.5042 5.29981 15.5042 5.49995C15.5042 5.70008 15.4252 5.89213 15.2844 6.03432Z" fill="white"/>
</svg>
