<svg width="16" height="20" viewBox="0 0 16 20" fill="none" xmlns="http://www.w3.org/2000/svg">
<path d="M15.5 1C15.5 1.19891 15.421 1.38968 15.2803 1.53033C15.1396 1.67098 14.9489 1.75 14.75 1.75C12.5627 1.75248 10.4657 2.62247 8.91908 4.16911C7.37244 5.71575 6.50245 7.81273 6.49997 10V17.1906L9.7156 13.9656C9.86132 13.846 10.0463 13.7849 10.2346 13.7942C10.4229 13.8034 10.601 13.8824 10.7343 14.0157C10.8676 14.149 10.9466 14.3271 10.9558 14.5154C10.9651 14.7037 10.9039 14.8887 10.7843 15.0344L6.28435 19.5344C6.14099 19.673 5.94938 19.7505 5.74997 19.7505C5.55056 19.7505 5.35895 19.673 5.2156 19.5344L0.715596 15.0344C0.595999 14.8887 0.53488 14.7037 0.544128 14.5154C0.553375 14.3271 0.632328 14.149 0.765629 14.0157C0.89893 13.8824 1.07705 13.8034 1.26534 13.7942C1.45363 13.7849 1.63862 13.846 1.78435 13.9656L4.99997 17.1906V10C5.00493 7.41566 6.03375 4.93859 7.86115 3.11118C9.68856 1.28378 12.1656 0.254956 14.75 0.25C14.9489 0.25 15.1396 0.329018 15.2803 0.46967C15.421 0.610322 15.5 0.801088 15.5 1Z" fill="white"/>
</svg>
