<svg width="21" height="27" viewBox="0 0 21 27" fill="none" xmlns="http://www.w3.org/2000/svg">
<path fill-rule="evenodd" clip-rule="evenodd" d="M20.2623 11.008C20.6802 8.21332 18.5526 6.7111 15.6432 5.70896L16.587 1.92338L14.2826 1.34917L13.3638 5.03509C12.758 4.884 12.1359 4.74163 11.5175 4.60049L12.443 0.890242L10.14 0.31604L9.19567 4.1004C8.69435 3.98625 8.20195 3.87345 7.72424 3.75458L7.72691 3.74267L4.54909 2.94912L3.93608 5.41037C3.93608 5.41037 5.64576 5.80227 5.60973 5.82639C6.54288 6.05929 6.71163 6.67702 6.68361 7.16664L5.6085 11.4793C5.67275 11.4956 5.7561 11.5192 5.84807 11.5562L5.78121 11.5395C5.72433 11.5253 5.6652 11.5105 5.60449 11.4959L4.09755 17.5374C3.98351 17.8209 3.69404 18.2464 3.04163 18.0848C3.06472 18.1183 1.36675 17.6668 1.36675 17.6668L0.222656 20.3046L3.22146 21.0522C3.54982 21.1345 3.87431 21.2191 4.1955 21.3029L4.19563 21.3029C4.4201 21.3614 4.64296 21.4195 4.86442 21.4761L3.91083 25.3051L6.21257 25.8793L7.15691 22.091C7.78572 22.2617 8.39595 22.4191 8.99335 22.5676L8.05219 26.3381L10.3567 26.9123L11.3102 23.0904C15.2397 23.8341 18.1943 23.5343 19.438 19.9801C20.4401 17.1185 19.3881 15.4679 17.3208 14.3916C18.8265 14.0443 19.9607 13.054 20.2631 11.0083L20.2624 11.0078L20.2623 11.008ZM14.9972 18.3909C14.3438 21.0163 10.2344 19.9309 8.35413 19.4343C8.185 19.3896 8.03391 19.3497 7.90499 19.3177L9.17041 14.2449C9.32751 14.2842 9.51947 14.3272 9.73694 14.376L9.73704 14.3761C11.6819 14.8125 15.6666 15.7068 14.9973 18.3909H14.9972ZM10.1272 12.0217C11.6947 12.4401 15.1143 13.3527 15.7099 10.9666H15.7101C16.3182 8.52611 12.9949 7.79033 11.3718 7.43098C11.1892 7.39055 11.0282 7.35489 10.8966 7.3221L9.74933 11.9228C9.85766 11.9498 9.98476 11.9837 10.1272 12.0217Z" fill="white"/>
</svg>
