<svg width="8" height="8" viewBox="0 0 8 8" fill="none" xmlns="http://www.w3.org/2000/svg">
<path d="M2.4464 3.3616L4 1.808L5.5544 3.3624L6.4584 2.4584L4 0L1.5424 2.4576L2.4464 3.3616ZM0 4L0.904 3.096L1.808 4L0.904 4.904L0 4ZM2.4464 4.6384L4 6.192L5.5544 4.6376L6.4584 5.5412L4 8L1.5424 5.5424L1.5412 5.5412L2.4464 4.6384ZM6.192 4L7.096 3.096L8 4L7.096 4.904L6.192 4ZM4.9168 3.9992H4.9176V4L4 4.9176L3.0836 4.0016L3.082 4L3.0836 3.9988L3.244 3.838L3.322 3.76L4 3.0824L4.9172 3.9996L4.9168 3.9992Z" fill="white"/>
</svg>
