<svg width="340" height="416" viewBox="0 0 340 416" fill="none" xmlns="http://www.w3.org/2000/svg">
<g clip-path="url(#clip0_125_52)">
<path d="M89.2268 18.3687L74.5937 69.9131C72.7836 76.2865 67.9986 81.3897 61.754 83.6031L30.2151 94.7834C17.95 99.1316 12.8121 113.677 19.6236 124.765L43.4375 163.527C47.6878 170.446 47.443 179.223 42.8126 185.894L32.8138 200.301C22.9682 214.485 34.0454 233.733 51.2565 232.347L156.258 223.887C162.102 223.415 167.868 225.476 172.091 229.544L214.375 270.283C226.457 281.924 246.644 274.864 248.839 258.23L253.267 224.666C254.985 211.647 268.354 203.598 280.664 208.17C296.453 214.034 312.166 199.368 307.401 183.213L301.569 163.438C299.193 155.381 301.985 146.691 308.61 141.526L313.534 137.687C328.051 126.367 321.393 103.131 303.083 101.219L268.295 97.5856C258.787 96.5922 251.236 89.1456 250.111 79.653L242.867 18.5413C240.902 1.96799 220.984 -5.40009 208.706 5.9039L173.786 38.0547C164.977 46.1662 151.114 45.0054 143.776 35.5437L125.065 11.4219C114.783 -1.82878 93.8056 2.23854 89.2268 18.3687Z" fill="#4390E3"/>
<path d="M80.0058 181C78.2858 175.371 76.1459 170.207 73.5266 165.394C69.2429 157.527 64.2544 153.081 58.6913 152.173C58.5624 152.152 58.4336 152.133 58.3048 152.116C56.5771 151.884 55.1676 152.092 54.1176 152.732C51.9635 154.048 51.5268 157.186 52.3513 159.46C53.2828 162.034 55.4884 164.046 57.5227 165.674C60.0312 167.681 62.7496 169.528 65.3752 171.317C68.7481 173.611 72.2383 175.984 75.3651 178.743C76.1214 179.41 76.839 180.095 77.5218 180.794C83.4302 190.629 90.3267 204.614 91.838 218.238C92.1614 221.148 92.182 223.577 92.0686 225.521C90.3358 220.247 85.7041 212.281 73.4867 204.203C69.6874 200.101 65.7154 196.549 61.4896 193.466C54.2516 188.189 47.8408 186.305 42.4246 187.864C42.2996 187.9 42.1746 187.938 42.0509 187.979C40.3902 188.51 39.205 189.299 38.5299 190.328C37.1462 192.438 38.0944 195.462 39.8118 197.165C41.7559 199.094 44.6096 199.968 47.1451 200.569C50.2706 201.309 53.5185 201.816 56.657 202.309C60.6882 202.939 64.8573 203.591 68.8641 204.745C70.1112 205.105 71.3145 205.519 72.4728 205.976C72.4741 205.976 72.4741 205.977 72.4753 205.977C71.875 206.03 71.178 206.124 70.374 206.275C66.9367 206.098 63.6347 206.208 60.4112 206.615C54.3379 207.383 50.2667 209.451 48.3033 212.764C48.2582 212.84 48.2131 212.917 48.1706 212.996C47.5934 214.038 47.3744 214.987 47.52 215.815C47.8215 217.513 49.7089 218.572 51.3619 218.615C53.2325 218.662 55.062 217.76 56.6042 216.87C58.5058 215.774 60.3584 214.503 62.1505 213.277C64.4502 211.701 66.8298 210.072 69.364 208.768C69.6062 208.643 69.8484 208.523 70.0919 208.407C73.4841 207.684 74.8652 208.037 74.9322 208.055C75.11 208.113 75.2917 208.117 75.463 208.08C82.6881 213.453 86.4707 218.548 88.4393 222.277C91.3188 227.734 91.0418 231.51 91.0366 231.559C91.0353 231.577 91.0379 231.595 91.0366 231.614C91.0353 231.65 91.0353 231.686 91.0379 231.721C91.0405 231.753 91.0444 231.785 91.0495 231.816C91.0547 231.849 91.0611 231.881 91.0701 231.912C91.0791 231.944 91.0894 231.975 91.101 232.006C91.1126 232.035 91.1242 232.065 91.1384 232.093C91.1526 232.123 91.168 232.15 91.1848 232.178C91.2015 232.207 91.2209 232.234 91.2402 232.26C91.2595 232.285 91.2788 232.308 91.3007 232.332C91.3226 232.356 91.3471 232.379 91.3716 232.403C91.3961 232.424 91.4218 232.445 91.4489 232.464C91.4747 232.484 91.5004 232.5 91.5275 232.517C91.5584 232.535 91.5906 232.552 91.6241 232.567C91.6409 232.575 91.655 232.585 91.6718 232.592C91.6808 232.596 91.6911 232.596 91.7014 232.6C91.7658 232.623 91.8315 232.64 91.9011 232.65C91.9153 232.652 91.9295 232.656 91.9436 232.658C91.9462 232.658 91.9488 232.659 91.9514 232.659C92.0261 232.665 92.0995 232.661 92.1704 232.652C92.1794 232.651 92.1884 232.654 92.1974 232.652C92.1974 232.652 92.1974 232.652 92.1987 232.652C92.1987 232.652 92.1987 232.652 92.2 232.652C92.2773 232.641 92.3507 232.618 92.4229 232.588C92.4383 232.582 92.4538 232.575 92.4706 232.569C92.5401 232.537 92.6058 232.499 92.6664 232.453C92.6741 232.446 92.6818 232.439 92.6896 232.432C92.7437 232.388 92.7926 232.337 92.8365 232.283C92.8468 232.27 92.8571 232.258 92.8661 232.245C92.9125 232.182 92.9511 232.113 92.982 232.039C92.9846 232.033 92.9885 232.029 92.9911 232.022C93.0671 231.831 94.8398 227.226 93.8762 218.224C92.4358 204.752 85.8794 190.995 80.0058 181Z" fill="black"/>
<path d="M59.0777 160.524C60.2639 160.524 61.2254 159.563 61.2254 158.377C61.2254 157.191 60.2639 156.229 59.0777 156.229C57.8916 156.229 56.9301 157.191 56.9301 158.377C56.9301 159.563 57.8916 160.524 59.0777 160.524Z" fill="white"/>
<path d="M46.6533 196.702C47.8394 196.702 48.801 195.741 48.801 194.555C48.801 193.369 47.8394 192.407 46.6533 192.407C45.4672 192.407 44.5056 193.369 44.5056 194.555C44.5056 195.741 45.4672 196.702 46.6533 196.702Z" fill="white"/>
<path d="M52.5598 215.631C53.5481 215.631 54.3493 214.83 54.3493 213.841C54.3493 212.853 53.5481 212.052 52.5598 212.052C51.5715 212.052 50.7703 212.853 50.7703 213.841C50.7703 214.83 51.5715 215.631 52.5598 215.631Z" fill="white"/>
<path d="M88.6043 71.4285C88.5824 63.0774 94.456 52.9187 101.715 48.7303L164.334 12.5946C167.987 10.4856 171.3 10.2898 173.691 11.6799L179.288 14.9459C179.294 14.9497 179.3 14.9536 179.307 14.9575L179.343 14.9781V14.9794C181.702 16.3515 183.165 19.2644 183.177 23.4129L183.111 189.774C183.133 198.113 177.26 208.284 170.001 212.473L107.383 248.609C103.73 250.717 100.42 250.91 98.0286 249.519V249.52L92.3753 246.223C90.0151 244.851 88.5515 241.933 88.5399 237.789L88.6043 71.4285Z" fill="black"/>
<path d="M104.219 248.192L120.783 238.631L159.398 216.35L169.625 210.447C176.915 206.239 181.407 198.46 181.408 190.043L181.432 22.2224C181.432 17.6887 176.526 14.8556 172.599 17.1205L159.226 24.8378C159.088 24.9176 158.964 25.0194 158.858 25.1379L149.177 36.0529C149.072 36.1727 148.947 36.2732 148.809 36.353L129.19 47.6725C128.904 47.8374 128.57 47.9018 128.243 47.8567L121.587 46.9227C121.26 46.8763 120.926 46.942 120.64 47.1069L108.494 54.1168C101.102 58.3826 96.5493 66.2673 96.548 74.8L96.5236 243.745C96.5197 247.697 100.796 250.167 104.219 248.192Z" fill="white"/>
<path d="M147.66 34.8432L134.614 42.3736C133.895 42.7885 133.313 42.5424 133.313 41.8235C133.313 41.1046 133.895 40.186 134.614 39.7711L147.66 32.2407C148.379 31.8259 148.961 32.0719 148.961 32.7908C148.961 33.5097 148.379 34.4283 147.66 34.8432Z" fill="white"/>
<path d="M91.7155 101.777C91.9705 102.068 92.1883 102.411 92.3467 102.77C92.5271 103.177 92.6302 103.605 92.6302 103.998L92.6289 117.826C92.6276 118.344 92.4459 118.707 92.1548 118.877L90.9721 119.562C91.2645 119.392 91.4462 119.029 91.4475 118.511L91.4488 104.683C91.4501 104.29 91.3457 103.862 91.1653 103.455C91.0069 103.097 90.7891 102.753 90.534 102.463C90.3189 102.217 90.0767 102.01 89.819 101.862L89.3694 101.603C88.9172 101.341 88.5062 101.318 88.2073 101.492L89.3887 100.805C89.6863 100.631 90.0986 100.656 90.5508 100.916L91.0004 101.175C91.2581 101.324 91.5003 101.532 91.7155 101.777Z" fill="white"/>
<path d="M91.4905 104.698L91.39 118.525C91.3797 119.569 90.6466 119.979 89.7435 119.448L89.2964 119.185C88.401 118.659 87.6769 117.394 87.6872 116.351L87.7877 102.523C87.798 101.491 88.5388 101.076 89.4342 101.6L89.8813 101.863C90.7857 102.395 91.4995 103.666 91.4905 104.698Z" fill="black"/>
<path d="M129.419 42.2252C128.537 42.7341 127.824 43.9697 127.827 44.9836C127.829 45.9975 128.547 46.4072 129.43 45.8983C130.312 45.3894 131.026 44.1539 131.023 43.14C131.021 42.1247 130.302 41.7163 129.419 42.2252Z" fill="white"/>
<path d="M147.524 214.524C147.679 214.493 147.825 214.478 147.955 214.478C148.208 214.478 148.406 214.536 148.503 214.645C148.649 214.809 148.649 215.18 148.505 215.612C148.064 216.935 146.473 218.338 145.098 218.615C144.644 218.706 144.269 218.66 144.122 218.492C143.978 218.329 143.976 217.959 144.121 217.526C144.568 216.182 146.126 214.808 147.524 214.524Z" fill="white"/>
<path d="M142.6 219.839C143.092 220.395 143.827 220.69 144.68 220.69C144.943 220.69 145.217 220.662 145.499 220.605C147.593 220.183 149.758 218.272 150.43 216.255C150.812 215.105 150.664 214.03 150.023 213.303C149.378 212.574 148.321 212.294 147.124 212.536C145.031 212.959 142.867 214.87 142.194 216.887C141.811 218.036 141.959 219.112 142.6 219.839ZM144.119 217.529C144.568 216.182 146.127 214.808 147.524 214.526C147.679 214.495 147.825 214.479 147.955 214.479C148.209 214.479 148.406 214.537 148.504 214.647C148.649 214.81 148.649 215.181 148.505 215.613C148.064 216.936 146.473 218.339 145.098 218.616C144.644 218.708 144.269 218.661 144.122 218.494C143.975 218.33 143.975 217.96 144.119 217.529Z" fill="black"/>
<path d="M234.408 194.449C231.131 202.313 228.707 210.533 227.357 219.055C226.672 223.378 226.305 228.048 228.375 231.904C230.636 236.114 235.429 238.457 240.167 239.079C251.743 240.598 263.034 233.173 269.476 223.436C275.918 213.698 278.466 201.969 280.781 190.526C282.604 181.517 284.387 172.376 288.099 163.914C289.69 160.286 299.238 146.175 294.396 142.75C287.767 137.879 269.226 144.01 257.654 157.491C248.121 168.594 240.013 181.001 234.408 194.449Z" fill="black"/>
<path d="M280.294 153.688C279.833 153.316 279.157 153.389 278.786 153.852C262.801 173.726 252.867 195.777 247.349 210.776C247.319 210.859 247.289 210.939 247.26 211.02C247.016 201.785 247.97 182.359 258.673 167.713C259.004 167.261 258.905 166.626 258.453 166.296C258.001 165.965 257.366 166.064 257.036 166.516C249.21 177.224 246.511 190.268 245.626 199.326C244.816 207.613 245.313 214.02 245.509 215.974C240.907 229.472 239.131 238.776 239.112 238.879C239.003 239.461 239.387 240.023 239.969 240.133C239.974 240.134 239.979 240.134 239.984 240.135C240.562 240.235 241.113 239.853 241.221 239.275C241.259 239.072 242.998 230.086 247.497 216.886C247.526 216.823 247.548 216.756 247.565 216.687C249.224 211.832 251.257 206.411 253.714 200.652C256.474 200.716 264.761 199.563 272.346 184.975C272.605 184.477 272.412 183.865 271.915 183.606C271.418 183.347 270.806 183.541 270.547 184.038C264.218 196.208 257.498 198.282 254.614 198.573C260.625 184.86 269.012 169.428 280.458 155.197C280.83 154.736 280.757 154.061 280.294 153.688Z" fill="white"/>
<path d="M249.634 138.121L140.875 168.222C137.484 169.16 134.369 167.053 133.427 163.648L119.995 115.876C117.663 108.747 116.767 98.2581 130.748 94.3892L229.933 66.9383C233.324 66.0004 236.836 67.9999 237.779 71.405L254.067 130.258C255.009 133.662 253.025 137.183 249.634 138.121Z" fill="black"/>
<path d="M286.141 126.556C285.965 126.556 285.804 126.534 285.66 126.501C284.414 126.217 283.478 124.896 282.797 122.465C280.2 113.181 281.66 104.395 286.431 100.599C287.622 99.6509 289.277 98.8006 291.46 98.6408C291.299 88.5208 289.461 78.2552 286.147 69.2226C283.183 61.1408 279.157 57.8297 274.187 59.3796C271.955 60.0753 269.672 61.6767 267.458 63.8888C271.617 85.2188 266.178 100.478 260.825 106.027C258.788 108.139 256.608 109.022 254.683 108.516C253.271 108.145 251.369 106.855 250.328 102.824C248.871 97.1811 251.089 87.1062 255.978 77.1576C258.77 71.4772 261.973 66.7142 265.25 63.2485C264.737 60.7581 264.089 58.184 263.289 55.539C262.067 51.491 259.985 46.6726 257.006 46.6726C256.998 46.6726 256.99 46.6726 256.983 46.6726C254.215 46.6971 248.011 50.8018 237.544 78.0207C231.49 93.7657 226.954 109.712 226.909 109.87C226.757 110.409 226.196 110.723 225.656 110.57C225.117 110.416 224.804 109.856 224.957 109.317C225.002 109.158 229.56 93.1344 235.646 77.3044C244.076 55.378 251.05 44.695 256.965 44.6434C256.98 44.6434 256.996 44.6434 257.011 44.6434C260.447 44.6434 263.137 48.0163 265.233 54.9515C265.915 57.2074 266.491 59.4105 266.97 61.5556C269.203 59.52 271.441 58.1093 273.583 57.4419C277.844 56.1136 283.81 56.9601 288.051 68.523C291.45 77.7876 293.334 88.316 293.489 98.6885C295.252 98.8933 297.288 99.5272 299.622 100.8C300.114 101.068 300.295 101.685 300.027 102.176C299.759 102.668 299.143 102.85 298.651 102.581C296.811 101.577 295.083 100.965 293.497 100.747C293.489 101.93 293.457 103.11 293.403 104.284C292.955 113.963 290.92 122.437 288.339 125.369C287.521 126.299 286.745 126.556 286.141 126.556ZM291.468 100.689C290.055 100.817 288.787 101.315 287.693 102.186C283.618 105.429 282.408 113.543 284.751 121.919C285.428 124.341 286.105 124.522 286.112 124.524C286.186 124.539 286.436 124.462 286.816 124.03C289.34 121.162 291.021 111.88 291.377 104.192C291.431 103.028 291.46 101.86 291.468 100.689ZM265.727 65.7556C257.137 75.712 250.153 94.0298 252.293 102.316C252.913 104.718 253.946 106.223 255.2 106.553C256.38 106.862 257.86 106.176 259.364 104.616C264.102 99.705 269.154 85.47 265.727 65.7556Z" fill="black"/>
<path d="M139.408 250.461C139.399 250.461 139.391 250.461 139.383 250.461C138.823 250.447 138.38 249.983 138.394 249.423C138.639 239.259 137.364 211.998 128.655 207.952C126.307 206.862 123.435 207.548 120.099 209.993C120.564 214.113 120.97 218.414 121.372 222.679C122.261 232.106 123.1 241.01 124.484 244.759C125.456 247.395 124.682 248.456 123.86 248.881C121.331 250.188 116.067 245.875 112.738 241.023C110.56 237.85 107.998 232.799 108.155 226.752C108.313 220.622 111.223 215.005 116.802 210.059C117.185 209.72 117.564 209.399 117.939 209.098C116.56 197.515 114.531 186.549 110.893 184.696C110.389 184.44 109.563 184.193 108.201 184.999C107.719 185.285 107.097 185.125 106.811 184.643C106.525 184.162 106.685 183.539 107.167 183.253C108.812 182.278 110.375 182.154 111.814 182.887C116.203 185.123 118.345 195.401 119.834 207.709C123.441 205.337 126.687 204.798 129.512 206.111C141.204 211.54 140.462 247.923 140.424 249.471C140.408 250.023 139.957 250.461 139.408 250.461ZM118.216 211.517C118.193 211.538 118.171 211.557 118.147 211.578C113.231 215.938 110.562 220.822 110.215 226.095C109.867 231.376 111.926 235.924 113.713 238.807C117.235 244.491 121.845 247.368 122.886 247.092C122.916 246.973 122.972 246.527 122.579 245.463C121.104 241.465 120.291 232.848 119.351 222.87C119.013 219.295 118.647 215.404 118.216 211.517Z" fill="black"/>
<path d="M189.918 82.4347C185.874 69.7766 172.285 62.7693 159.629 66.8134C146.97 70.8575 139.963 84.4458 144.007 97.1025C148.051 109.761 161.64 116.768 174.296 112.724C186.953 108.681 193.962 95.0927 189.918 82.4347ZM172.685 107.681C162.808 110.836 152.205 105.369 149.049 95.4921C145.892 85.6156 151.361 75.0125 161.238 71.856C171.114 68.7008 181.717 74.1686 184.874 84.0451C188.03 93.9229 182.562 104.526 172.685 107.681Z" fill="white"/>
<path d="M158.974 64.7675C145.189 69.1724 137.557 83.9704 141.961 97.7558C146.366 111.541 161.164 119.173 174.95 114.77C188.735 110.366 196.367 95.5669 191.962 81.7815C187.559 67.9961 172.759 60.364 158.974 64.7675ZM144.006 97.1039C139.962 84.4458 146.969 70.8576 159.627 66.8147C172.285 62.7706 185.872 69.7779 189.916 82.436C193.961 95.094 186.953 108.682 174.295 112.725C161.638 116.769 148.05 109.761 144.006 97.1039Z" fill="black"/>
<path d="M166.962 106.426C176.161 106.426 183.619 98.9687 183.619 89.7693C183.619 80.5698 176.161 73.1122 166.962 73.1122C157.762 73.1122 150.305 80.5698 150.305 89.7693C150.305 98.9687 157.762 106.426 166.962 106.426Z" fill="white"/>
<path d="M161.239 71.856C151.362 75.0112 145.893 85.6143 149.05 95.4921C152.206 105.37 162.808 110.838 172.686 107.681C182.562 104.526 188.031 93.9229 184.875 84.0451C181.719 74.1686 171.115 68.7008 161.239 71.856ZM151.094 94.8389C148.299 86.0897 153.143 76.6976 161.892 73.9019C170.641 71.1062 180.033 75.9504 182.829 84.6996C185.625 93.4487 180.781 102.841 172.031 105.637C163.282 108.431 153.89 103.588 151.094 94.8389Z" fill="black"/>
<path d="M170.978 87.6047L170.96 87.548C172.848 86.0754 173.33 84.1815 172.79 82.4912C172.241 80.7725 170.869 79.7818 169.319 79.5009C168.391 79.2884 167.446 79.2793 166.327 79.4636L165.403 76.5725L163.4 77.2128L164.273 79.9467C163.984 80.0304 163.684 80.1219 163.37 80.2224C162.909 80.3693 162.444 80.5277 161.987 80.6888L161.11 77.9433L159.108 78.5823L160.02 81.436C159.163 81.7852 158.43 82.1202 157.946 82.3894L163.906 101.043C164.464 100.952 165.214 100.799 166.132 100.564L166.926 103.047L168.928 102.408L168.156 99.9934C168.316 99.9445 168.478 99.8942 168.644 99.8401C169.287 99.6353 169.879 99.424 170.429 99.2101L171.216 101.676L173.219 101.036L172.359 98.3444C173.911 97.5366 174.938 96.6695 175.563 95.7354C176.44 94.3994 176.797 92.7941 176.247 91.0755C175.465 88.625 173.337 87.5042 170.978 87.6047ZM163.11 83.8775C163.457 83.7035 163.975 83.4768 164.904 83.1792C166.848 82.5582 168.191 82.9679 168.651 84.4044C169.1 85.8126 168.186 87.1306 165.932 87.8507L164.523 88.3004L163.11 83.8775ZM168.896 96.2508C168.163 96.4853 167.655 96.6476 167.216 96.7262L165.505 91.3718L166.971 90.9041C169.112 90.22 171.074 90.4326 171.686 92.3484C172.325 94.3492 170.84 95.6298 168.896 96.2508Z" fill="black"/>
<path d="M218.074 45.3188C221.264 34.4104 214.985 22.9402 204.076 19.7515C193.168 16.5615 181.698 22.841 178.509 33.7494C175.32 44.6579 181.598 56.1281 192.507 59.3168C203.415 62.5067 214.884 56.2273 218.074 45.3188ZM193.777 54.9712C185.265 52.4821 180.365 43.5319 182.855 35.0197C185.344 26.5076 194.294 21.608 202.806 24.0971C211.318 26.5862 216.218 35.5364 213.729 44.0485C211.24 52.5607 202.289 57.4602 193.777 54.9712Z" fill="white"/>
<path d="M204.592 17.9877C192.712 14.5143 180.22 21.3528 176.746 33.234C173.272 45.1139 180.111 57.6058 191.991 61.0804C203.871 64.5538 216.362 57.7153 219.837 45.8341C223.312 33.9529 216.472 21.4611 204.592 17.9877ZM178.508 33.7494C181.698 22.8409 193.167 16.5615 204.075 19.7514C214.984 22.9414 221.263 34.4103 218.073 45.3188C214.883 56.2272 203.414 62.5066 192.506 59.3167C181.599 56.1267 175.319 44.6578 178.508 33.7494Z" fill="black"/>
<path d="M198.292 53.7805C206.16 53.7805 212.538 47.4021 212.538 39.5339C212.538 31.6658 206.16 25.2874 198.292 25.2874C190.424 25.2874 184.045 31.6658 184.045 39.5339C184.045 47.4021 190.424 53.7805 198.292 53.7805Z" fill="white"/>
<path d="M202.805 24.0971C194.293 21.608 185.343 26.5089 182.854 35.0197C180.365 43.5306 185.265 52.482 193.776 54.9711C202.288 57.4602 211.239 52.5593 213.728 44.0485C216.217 35.5376 211.317 26.5862 202.805 24.0971ZM184.617 35.5351C186.822 27.9943 194.75 23.6539 202.29 25.8596C209.83 28.0639 214.171 35.9924 211.965 43.5319C209.76 51.0713 201.832 55.413 194.293 53.2074C186.754 51.003 182.413 43.0758 184.617 35.5351Z" fill="black"/>
<path d="M202.173 39.9207L202.188 39.8717C204.231 39.7313 205.479 38.6195 205.906 37.1623C206.339 35.682 205.84 34.3228 204.876 33.3823C204.32 32.7871 203.654 32.3284 202.773 31.9239L203.502 29.4322L201.775 28.9272L201.086 31.2836C200.841 31.205 200.585 31.1264 200.314 31.0465C199.916 30.9306 199.512 30.8198 199.111 30.7154L199.803 28.35L198.078 27.845L197.359 30.3044C196.583 30.1421 195.904 30.0287 195.432 29.9875L190.73 46.0636C191.17 46.2658 191.775 46.5158 192.538 46.7889L191.912 48.9288L193.637 49.4339L194.245 47.3532C194.382 47.3944 194.521 47.4369 194.665 47.4782C195.219 47.6405 195.739 47.7745 196.232 47.8853L195.611 50.0098L197.337 50.5148L198.015 48.1945C199.501 48.3645 200.644 48.2409 201.534 47.8775C202.796 47.3493 203.816 46.3831 204.249 44.9015C204.866 42.7911 203.895 40.9784 202.173 39.9207ZM198.379 33.5137C198.709 33.5575 199.185 33.6438 199.986 33.8783C201.662 34.3679 202.417 35.3007 202.055 36.5401C201.699 37.7537 200.421 38.251 198.478 37.6828L197.265 37.3272L198.379 33.5137ZM196.56 45.0548C195.929 44.8705 195.491 44.7417 195.142 44.5871L196.491 39.9722L197.753 40.342C199.598 40.8818 200.888 41.9705 200.405 43.6221C199.902 45.3459 198.235 45.5443 196.56 45.0548Z" fill="black"/>
<path d="M259.282 13.8312C254.225 6.05087 243.783 3.8349 236.003 8.89168C228.223 13.9485 226.008 24.3905 231.063 32.1709C236.12 39.9512 246.562 42.1672 254.343 37.1104C262.123 32.0537 264.339 21.6103 259.282 13.8312ZM252.329 34.0107C246.258 37.9556 238.109 36.2266 234.165 30.1559C230.22 24.0852 231.949 15.9364 238.019 11.9915C244.09 8.04652 252.239 9.77549 256.184 15.8462C260.129 21.9169 258.4 30.0644 252.329 34.0107Z" fill="white"/>
<path d="M235.186 7.63434C226.713 13.1408 224.3 24.5143 229.806 32.9878C235.313 41.4613 246.686 43.8744 255.16 38.368C263.633 32.8615 266.046 21.488 260.54 13.0145C255.033 4.54101 243.66 2.12793 235.186 7.63434ZM231.065 32.171C226.008 24.3906 228.224 13.9486 236.004 8.89177C243.785 3.83628 254.227 6.05096 259.284 13.8313C264.34 21.6117 262.124 32.0537 254.344 37.1105C246.564 42.166 236.12 39.9501 231.065 32.171Z" fill="black"/>
<path d="M245.174 34.6319C251.597 34.6319 256.805 29.4244 256.805 23.0006C256.805 16.5769 251.597 11.3694 245.174 11.3694C238.75 11.3694 233.542 16.5769 233.542 23.0006C233.542 29.4244 238.75 34.6319 245.174 34.6319Z" fill="white"/>
<path d="M238.018 11.9914C231.948 15.9363 230.219 24.0852 234.164 30.1559C238.109 36.2266 246.257 37.9555 252.328 34.0106C258.399 30.0657 260.128 21.9169 256.183 15.8462C252.238 9.77545 244.089 8.04519 238.018 11.9914ZM235.421 29.3391C231.926 23.9615 233.458 16.7429 238.835 13.2488C244.213 9.75355 251.431 11.2854 254.925 16.663C258.421 22.0406 256.889 29.2592 251.511 32.7532C246.135 36.2485 238.916 34.7166 235.421 29.3391Z" fill="black"/>
<path d="M247.48 20.8041L247.457 20.7693C248.458 19.4294 248.433 18.065 247.758 17.0253C247.071 15.9689 245.965 15.554 244.87 15.6507C244.205 15.679 243.567 15.8465 242.847 16.1763L241.693 14.3997L240.461 15.1997L241.553 16.8797C241.374 16.9892 241.189 17.1065 240.996 17.2315C240.712 17.4157 240.429 17.6077 240.15 17.8009L239.054 16.1132L237.824 16.9132L238.964 18.6667C238.451 19.0596 238.018 19.4204 237.742 19.6909L245.194 31.156C245.552 30.991 246.03 30.7501 246.605 30.4229L247.597 31.9483L248.827 31.1482L247.864 29.664C247.963 29.6009 248.062 29.5378 248.165 29.4708C248.561 29.2144 248.92 28.9632 249.25 28.7171L250.236 30.2322L251.467 29.4321L250.391 27.7779C251.288 26.9482 251.82 26.1752 252.069 25.4305C252.413 24.3689 252.358 23.2223 251.671 22.1658C250.689 20.6636 249.05 20.3003 247.48 20.8041ZM241.493 19.7424C241.695 19.5621 242.002 19.3134 242.574 18.9411C243.769 18.1642 244.748 18.1926 245.323 19.0764C245.886 19.9421 245.512 20.9986 244.128 21.8992L243.262 22.4622L241.493 19.7424ZM247.67 27.01C247.22 27.3025 246.908 27.5061 246.626 27.64L244.487 24.3483L245.388 23.7634C246.703 22.9079 248.065 22.6889 248.83 23.8678C249.63 25.0968 248.865 26.2345 247.67 27.01Z" fill="black"/>
<path d="M247.073 146.426C247.886 144.991 248.091 143.326 247.651 141.736L231.816 84.5207C231.377 82.9309 230.344 81.6091 228.91 80.7961C227.969 80.2627 226.929 79.9922 225.877 79.9922C225.324 79.9922 224.768 80.0669 224.22 80.2189L126.247 107.335C124.658 107.774 123.336 108.807 122.523 110.241C121.71 111.677 121.505 113.341 121.944 114.931L137.779 172.147C138.219 173.735 139.252 175.058 140.686 175.871C142.121 176.683 143.786 176.89 145.376 176.45L243.348 149.334C244.938 148.894 246.26 147.861 247.073 146.426Z" fill="white"/>
<path d="M249.72 141.164L233.885 83.9486C233.293 81.8061 231.901 80.023 229.967 78.9279C228.034 77.8328 225.789 77.5545 223.647 78.1484L125.674 105.264C123.531 105.857 121.75 107.248 120.653 109.182C119.558 111.116 119.281 113.36 119.874 115.503L135.709 172.719C136.302 174.861 137.693 176.644 139.627 177.739C140.895 178.458 142.296 178.824 143.715 178.824C144.459 178.824 145.209 178.724 145.947 178.519L243.92 151.403C246.063 150.81 247.846 149.419 248.941 147.485C250.037 145.551 250.313 143.306 249.72 141.164ZM140.687 175.871C139.252 175.058 138.22 173.735 137.781 172.147L121.944 114.931C121.505 113.342 121.71 111.676 122.523 110.241C123.336 108.806 124.659 107.774 126.247 107.335L224.22 80.2188C224.768 80.0681 225.323 79.9921 225.877 79.9921C226.929 79.9921 227.969 80.2639 228.91 80.796C230.345 81.609 231.377 82.9321 231.816 84.5206L247.651 141.736C248.092 143.326 247.886 144.991 247.073 146.426C246.26 147.861 244.938 148.893 243.348 149.332L145.375 176.448C143.787 176.889 142.121 176.683 140.687 175.871Z" fill="black"/>
<path d="M248.421 124.194L214.102 133.692C212.714 134.076 211.277 133.262 210.892 131.874L205.358 111.882C204.974 110.493 205.789 109.056 207.176 108.671L241.495 99.1734C242.884 98.7895 244.321 99.6037 244.706 100.991L250.239 120.984C250.625 122.373 249.81 123.809 248.421 124.194Z" fill="black"/>
<path d="M221.464 123.538C224.42 123.538 226.816 121.142 226.816 118.187C226.816 115.231 224.42 112.835 221.464 112.835C218.509 112.835 216.112 115.231 216.112 118.187C216.112 121.142 218.509 123.538 221.464 123.538Z" fill="white"/>
<path d="M48.0184 111.952C46.5652 107.716 47.5855 104.999 51.0783 103.801C54.571 102.603 57.0446 104.12 58.4979 108.356C59.9511 112.592 58.9308 115.31 55.438 116.508C51.944 117.706 49.4717 116.188 48.0184 111.952ZM51.7302 108.189C51.7443 108.657 51.9311 109.414 52.2906 110.461C52.65 111.509 52.9708 112.229 53.2517 112.621C53.5326 113.012 53.8624 113.144 54.2412 113.014C54.6186 112.884 54.799 112.578 54.781 112.096C54.7617 111.615 54.5736 110.851 54.2128 109.802C53.8534 108.754 53.5351 108.042 53.2594 107.664C52.9837 107.288 52.6565 107.163 52.2777 107.293C51.8977 107.424 51.716 107.722 51.7302 108.189ZM60.8736 133.629L60.5425 99.2361L64.1202 99.2773L64.4217 133.584L60.8736 133.629ZM66.657 124.738C65.2037 120.502 66.2241 117.784 69.7168 116.586C73.2108 115.388 75.6832 116.906 77.1365 121.142C78.5897 125.378 77.5693 128.095 74.0766 129.293C70.5839 130.491 68.1103 128.974 66.657 124.738ZM70.3687 120.974C70.3829 121.442 70.5697 122.2 70.9292 123.247C71.2886 124.295 71.6094 125.015 71.8903 125.406C72.1711 125.798 72.501 125.929 72.8784 125.799C73.2559 125.669 73.4363 125.364 73.4183 124.882C73.3989 124.4 73.2108 123.636 72.8501 122.587C72.4907 121.54 72.1724 120.828 71.8967 120.45C71.621 120.074 71.2938 119.949 70.915 120.079C70.5362 120.209 70.3546 120.508 70.3687 120.974Z" fill="black"/>
<path d="M124.786 23.6406L91.6472 18.9884L63.7841 37.9053C64.4398 40.728 67.2111 51.6971 72.97 62.6468C76.8492 70.0226 81.3043 75.9464 86.213 80.2508C92.2231 85.5227 98.9419 88.3674 106.186 88.7088C106.638 88.5349 108.022 87.9423 109.835 86.6101C111.887 85.1015 114.928 82.3083 117.753 77.5659C126.729 62.5038 126.573 40.0955 124.786 23.6406Z" fill="white"/>
<path d="M126.828 22.5728L126.734 21.7456L91.1255 16.7468L61.3813 36.9417L61.5269 37.6439C61.554 37.7727 64.2685 50.6962 71.0491 63.6042C75.052 71.2248 79.6708 77.3625 84.7804 81.8485C91.2312 87.5134 98.4743 90.5462 106.309 90.8631L106.497 90.8708L106.676 90.8141C106.958 90.7252 113.648 88.5234 119.476 78.8711C127.145 66.168 129.619 47.2254 126.828 22.5728ZM109.835 86.6103C108.022 87.9424 106.639 88.535 106.186 88.709C98.9419 88.3688 92.2232 85.5242 86.213 80.2509C81.3044 75.9466 76.8493 70.0227 72.9701 62.6469C67.2111 51.6972 64.4399 40.7282 63.7841 37.9054L91.646 18.9886L124.785 23.6408C126.572 40.0956 126.728 62.5039 117.752 77.5647C114.927 82.3084 111.887 85.1016 109.835 86.6103Z" fill="black"/>
<path d="M94.6053 26.4828L73.296 40.951C73.296 40.951 81.0854 78.6907 105.675 79.684C105.675 79.684 124.963 73.5939 120.034 30.0528L94.6053 26.4828Z" fill="black"/>
<path d="M109.261 56.8492C108.221 57.4986 106.385 58.2149 104.668 58.5254C99.5902 59.4401 96.0318 56.8054 95.1248 51.7654C94.116 46.1662 97.1333 42.8088 101.652 41.9946C103.668 41.6312 105.353 41.7897 106.598 42.0667L106.942 37.341C105.92 37.0254 103.829 36.8373 101.183 37.2328L100.553 33.7336L97.2377 34.3314L97.9037 38.0277C97.1951 38.2751 96.5162 38.565 95.872 38.8986L95.1183 34.7141L91.8008 35.3106L92.8302 41.0244C89.8116 43.8395 88.2823 48.0189 89.2112 53.1761C90.0525 57.8426 92.6589 61.4216 96.7751 62.9199L97.8664 68.9752L101.181 68.3774L100.33 63.6492C101.029 63.6968 101.76 63.6968 102.517 63.6466L103.301 67.9961L106.616 67.3983L105.848 63.1364C108.299 62.5695 110.095 61.7514 110.919 61.1356L109.261 56.8492Z" fill="white"/>
<path d="M172.115 130.412C170.48 124.506 165.098 120.623 159.247 120.623C158.072 120.623 156.878 120.78 155.691 121.107C148.599 123.071 144.425 130.437 146.388 137.531C148.352 144.623 155.72 148.798 162.812 146.834C169.906 144.872 174.079 137.504 172.115 130.412Z" fill="white"/>
<path d="M174.186 129.838C171.906 121.604 163.353 116.759 155.119 119.038C146.885 121.317 142.04 129.869 144.319 138.103C146.217 144.96 152.464 149.466 159.257 149.466C160.622 149.466 162.008 149.285 163.385 148.903C171.619 146.625 176.463 138.072 174.186 129.838ZM170.92 140.435C169.83 139.01 167.387 136.633 164.832 134.988C165.918 133.252 166.301 131.085 165.711 128.957C164.596 124.931 160.43 122.571 156.404 123.685C152.378 124.799 150.017 128.966 151.132 132.992C151.748 135.218 153.299 136.934 155.243 137.836C153.866 140.56 152.865 143.774 152.398 145.414C149.557 143.714 147.338 140.967 146.387 137.534C144.423 130.44 148.598 123.073 155.69 121.11C156.877 120.781 158.071 120.625 159.246 120.625C165.096 120.625 170.479 124.507 172.114 130.414C173.085 133.913 172.556 137.482 170.92 140.435Z" fill="black"/>
<path d="M216.649 218.668C207.288 218.544 198.258 220.683 191.22 224.687C184.244 228.656 180.009 234.016 179.233 239.824L179.232 239.826L178.598 247.276C178.523 247.696 178.464 248.117 178.423 248.542C177.799 254.966 182.195 260.957 188.851 265.412C195.184 269.652 203.879 271.821 213.336 271.821C223.738 271.821 231.216 269.062 238.354 264.999C245.856 260.73 249.256 255.915 249.88 249.493C249.921 249.069 249.944 248.646 249.951 248.225L250.058 241.456C250.041 241.392 250.022 241.329 250.002 241.265C250.351 237.085 248.861 233.002 245.679 229.449C239.779 222.86 228.926 218.83 216.649 218.668ZM185.144 232.215C185.267 232.073 185.389 231.931 185.516 231.792C185.389 231.933 185.267 232.074 185.144 232.215ZM183.33 234.699C183.434 234.527 183.538 234.355 183.648 234.185C183.536 234.355 183.433 234.527 183.33 234.699ZM184.492 233.012C184.607 232.865 184.72 232.717 184.84 232.572C184.72 232.718 184.606 232.865 184.492 233.012ZM187.404 229.954C187.551 229.825 187.702 229.697 187.852 229.571C187.7 229.699 187.551 229.826 187.404 229.954ZM209.177 221.22C209.448 221.186 209.719 221.157 209.993 221.128C209.721 221.157 209.448 221.186 209.177 221.22ZM204.925 221.919C205.178 221.867 205.432 221.816 205.688 221.767C205.433 221.816 205.179 221.867 204.925 221.919ZM207.739 221.417C208.003 221.377 208.269 221.341 208.534 221.305C208.267 221.341 208.002 221.377 207.739 221.417ZM216.621 220.814C216.114 220.808 215.607 220.809 215.103 220.815C215.608 220.809 216.114 220.808 216.621 220.814ZM211.481 220.989C211.198 221.011 210.915 221.034 210.634 221.061C210.915 221.034 211.197 221.011 211.481 220.989ZM202.94 222.37C202.693 222.432 202.448 222.497 202.204 222.561C202.449 222.497 202.694 222.432 202.94 222.37ZM200.303 223.107C200.058 223.183 199.817 223.263 199.575 223.343C199.817 223.263 200.059 223.183 200.303 223.107ZM199.029 223.523C198.78 223.608 198.537 223.699 198.292 223.788C198.537 223.699 198.78 223.61 199.029 223.523ZM195.398 224.955C195.013 225.127 194.635 225.305 194.263 225.488C194.634 225.305 195.013 225.127 195.398 224.955ZM188.253 229.245C188.409 229.12 188.569 228.996 188.73 228.873C188.569 228.995 188.409 229.119 188.253 229.245ZM191.071 227.253C191.259 227.136 191.452 227.02 191.645 226.905C191.452 227.021 191.259 227.136 191.071 227.253ZM192.095 226.639C192.3 226.52 192.51 226.406 192.72 226.291C192.51 226.407 192.3 226.521 192.095 226.639ZM246.763 234.931C246.748 234.897 246.734 234.865 246.718 234.831C246.734 234.865 246.749 234.897 246.763 234.931ZM247.092 235.718C247.091 235.714 247.089 235.711 247.088 235.707C247.089 235.711 247.091 235.715 247.092 235.718ZM245.386 232.526C245.338 232.458 245.29 232.39 245.239 232.322C245.288 232.39 245.337 232.458 245.386 232.526Z" fill="black"/>
<path d="M244.081 230.881C238.574 224.732 228.308 220.969 216.622 220.815C199.863 220.595 185.222 227.93 181.938 237.653C181.618 238.6 181.406 239.568 181.31 240.557C180.957 244.192 182.263 247.778 185.084 250.928C190.592 257.077 200.857 260.84 212.544 260.994C230.934 261.236 246.774 252.385 247.855 241.252C248.207 237.617 246.903 234.031 244.081 230.881Z" fill="white"/>
<path d="M235.53 233.571C231.697 229.291 224.242 226.566 216.073 226.458C204.195 226.302 193.822 231.463 191.511 238.305C191.288 238.965 191.14 239.642 191.073 240.33C190.828 242.849 191.738 245.338 193.701 247.53C197.534 251.81 204.99 254.535 213.158 254.643C226.184 254.815 237.4 248.595 238.157 240.77C238.403 238.253 237.494 235.763 235.53 233.571Z" fill="white"/>
<path d="M216.102 224.312C209.341 224.223 202.812 225.769 197.723 228.665C192.485 231.647 189.365 235.715 188.937 240.124C188.633 243.256 189.728 246.313 192.102 248.965C196.387 253.748 204.249 256.675 213.131 256.791C219.892 256.88 226.42 255.334 231.509 252.438C235.747 250.026 238.598 246.903 239.76 243.463C240.034 242.652 240.215 241.822 240.296 240.979C240.6 237.847 239.505 234.79 237.13 232.139C232.844 227.354 224.984 224.428 216.102 224.312ZM213.159 254.645C204.991 254.537 197.535 251.812 193.703 247.532C191.739 245.339 190.831 242.85 191.074 240.331C191.141 239.642 191.289 238.967 191.512 238.306C193.822 231.465 204.195 226.302 216.075 226.46C224.243 226.567 231.699 229.293 235.531 233.573C237.495 235.764 238.403 238.255 238.16 240.773C237.4 248.596 226.184 254.816 213.159 254.645Z" fill="black"/>
<path d="M214.753 234.616L214.686 234.613C214.279 231.77 212.657 230.394 210.66 230.304C208.631 230.211 206.864 231.395 205.708 233.089C204.969 234.087 204.427 235.189 203.98 236.581L200.566 236.425L200.075 239.047L203.305 239.194C203.225 239.567 203.148 239.959 203.07 240.369C202.957 240.971 202.853 241.583 202.757 242.189L199.514 242.042L199.024 244.661L202.394 244.815C202.26 245.969 202.181 246.971 202.176 247.654L224.208 248.656C224.431 247.963 224.702 247.019 224.986 245.843L227.919 245.977L228.41 243.358L225.558 243.227C225.6 243.019 225.641 242.807 225.681 242.59C225.838 241.748 225.962 240.965 226.057 240.229L228.97 240.362L229.461 237.74L226.281 237.596C226.349 235.432 226.062 233.857 225.48 232.726C224.637 231.126 223.233 230.022 221.204 229.929C218.308 229.795 215.983 231.809 214.753 234.616ZM206.578 242.239C206.6 241.757 206.666 241.054 206.894 239.838C207.371 237.293 208.538 235.895 210.236 235.973C211.899 236.049 212.702 237.684 212.149 240.634L211.804 242.478L206.578 242.239ZM222.229 240.756C222.05 241.715 221.925 242.378 221.755 242.928L215.431 242.641L215.79 240.724C216.315 237.923 217.635 235.714 219.899 235.817C222.262 235.924 222.705 238.213 222.229 240.756Z" fill="black"/>
</g>
<defs>
<clipPath id="clip0_125_52">
</clipPath>
</defs>
</svg>
