<svg width="18" height="18" viewBox="0 0 18 18" fill="none" xmlns="http://www.w3.org/2000/svg">
<path d="M16.125 0.375H1.875C1.47718 0.375 1.09564 0.533035 0.81434 0.81434C0.533035 1.09564 0.375 1.47718 0.375 1.875V16.125C0.375 16.5228 0.533035 16.9044 0.81434 17.1857C1.09564 17.467 1.47718 17.625 1.875 17.625H16.125C16.5228 17.625 16.9044 17.467 17.1857 17.1857C17.467 16.9044 17.625 16.5228 17.625 16.125V1.875C17.625 1.47718 17.467 1.09564 17.1857 0.81434C16.9044 0.533035 16.5228 0.375 16.125 0.375ZM16.125 8.25H9.75V1.875H16.125V8.25ZM8.25 1.875V8.25H1.875V1.875H8.25ZM1.875 9.75H8.25V16.125H1.875V9.75ZM16.125 16.125H9.75V9.75H16.125V16.125Z" fill="white"/>
</svg>
