<svg width="20" height="16" viewBox="0 0 20 16" fill="none" xmlns="http://www.w3.org/2000/svg">
<path d="M18.9375 11.6563H16.7844C16.6076 11.072 16.2475 10.5601 15.7573 10.1963C15.2671 9.83253 14.6729 9.63611 14.0625 9.63611C13.4521 9.63611 12.8579 9.83253 12.3677 10.1963C11.8775 10.5601 11.5174 11.072 11.3406 11.6563H1.0625C0.847012 11.6563 0.640349 11.7419 0.487976 11.8942C0.335603 12.0466 0.25 12.2533 0.25 12.4688C0.25 12.6843 0.335603 12.8909 0.487976 13.0433C0.640349 13.1957 0.847012 13.2813 1.0625 13.2813H11.3406C11.5174 13.8655 11.8775 14.3774 12.3677 14.7412C12.8579 15.105 13.4521 15.3014 14.0625 15.3014C14.6729 15.3014 15.2671 15.105 15.7573 14.7412C16.2475 14.3774 16.6076 13.8655 16.7844 13.2813H18.9375C19.153 13.2813 19.3597 13.1957 19.512 13.0433C19.6644 12.8909 19.75 12.6843 19.75 12.4688C19.75 12.2533 19.6644 12.0466 19.512 11.8942C19.3597 11.7419 19.153 11.6563 18.9375 11.6563ZM14.0625 13.6875C13.8215 13.6875 13.5858 13.616 13.3854 13.4821C13.185 13.3482 13.0288 13.1579 12.9365 12.9352C12.8443 12.7125 12.8201 12.4674 12.8672 12.231C12.9142 11.9946 13.0303 11.7774 13.2007 11.607C13.3712 11.4365 13.5883 11.3205 13.8247 11.2734C14.0611 11.2264 14.3062 11.2505 14.5289 11.3428C14.7516 11.435 14.9419 11.5912 15.0759 11.7917C15.2098 11.9921 15.2812 12.2277 15.2812 12.4688C15.2812 12.792 15.1528 13.102 14.9243 13.3305C14.6957 13.5591 14.3857 13.6875 14.0625 13.6875ZM1.0625 4.34376H4.84062C5.01741 4.92803 5.37751 5.4399 5.86768 5.8037C6.35785 6.1675 6.95208 6.36392 7.5625 6.36392C8.17292 6.36392 8.76715 6.1675 9.25732 5.8037C9.74749 5.4399 10.1076 4.92803 10.2844 4.34376H18.9375C19.153 4.34376 19.3597 4.25816 19.512 4.10579C19.6644 3.95341 19.75 3.74675 19.75 3.53126C19.75 3.31577 19.6644 3.10911 19.512 2.95674C19.3597 2.80436 19.153 2.71876 18.9375 2.71876H10.2844C10.1076 2.1345 9.74749 1.62263 9.25732 1.25883C8.76715 0.895029 8.17292 0.698608 7.5625 0.698608C6.95208 0.698608 6.35785 0.895029 5.86768 1.25883C5.37751 1.62263 5.01741 2.1345 4.84062 2.71876H1.0625C0.847012 2.71876 0.640349 2.80436 0.487976 2.95674C0.335603 3.10911 0.25 3.31577 0.25 3.53126C0.25 3.74675 0.335603 3.95341 0.487976 4.10579C0.640349 4.25816 0.847012 4.34376 1.0625 4.34376ZM7.5625 2.31251C7.80355 2.31251 8.03918 2.38399 8.2396 2.51791C8.44002 2.65183 8.59623 2.84217 8.68848 3.06487C8.78072 3.28756 8.80486 3.53261 8.75783 3.76903C8.71081 4.00544 8.59473 4.2226 8.42429 4.39305C8.25384 4.56349 8.03668 4.67957 7.80027 4.72659C7.56385 4.77362 7.3188 4.74949 7.0961 4.65724C6.87341 4.565 6.68306 4.40879 6.54915 4.20836C6.41523 4.00794 6.34375 3.77231 6.34375 3.53126C6.34375 3.20803 6.47215 2.89804 6.70071 2.66948C6.92927 2.44092 7.23927 2.31251 7.5625 2.31251Z" fill="white"/>
</svg>
