<svg width="20" height="20" viewBox="0 0 20 20" fill="none" xmlns="http://www.w3.org/2000/svg">
<path d="M4.37502 3.25622C4.27507 3.25495 4.178 3.22258 4.09728 3.16362C4.01656 3.10466 3.95621 3.02202 3.9246 2.92719C3.89299 2.83236 3.89169 2.73004 3.92089 2.63444C3.95008 2.53884 4.00832 2.45471 4.08752 2.39372C5.81202 1.17368 7.88883 0.552399 10 0.624969C11.6625 0.624969 14.05 0.906219 15.9375 2.26247C16.0407 2.33652 16.1105 2.44838 16.1316 2.57366C16.1526 2.69894 16.1233 2.82747 16.05 2.93122C15.9739 3.03387 15.8605 3.10253 15.7342 3.1224C15.608 3.14227 15.479 3.11177 15.375 3.03747C13.7722 2.01885 11.8978 1.51102 10 1.58122C8.10532 1.51685 6.24097 2.06957 4.68752 3.15622C4.59907 3.22662 4.48791 3.2622 4.37502 3.25622Z" fill="#4390E3"/>
<path d="M17.6438 7.66252C17.5665 7.66181 17.4905 7.64274 17.4221 7.60688C17.3536 7.57102 17.2946 7.51939 17.2501 7.45627C16.1688 5.93127 14.2376 3.90002 10.0001 3.90002C8.59113 3.86454 7.19449 4.16992 5.92894 4.79017C4.6634 5.41043 3.56641 6.32721 2.7313 7.46252C2.65631 7.56475 2.544 7.63326 2.41878 7.65315C2.29356 7.67305 2.16554 7.64272 2.06255 7.56877C2.00853 7.53117 1.9629 7.48275 1.92858 7.42658C1.89426 7.37042 1.87198 7.30773 1.86317 7.2425C1.85435 7.17727 1.85919 7.11092 1.87737 7.04766C1.89556 6.9844 1.92669 6.92561 1.9688 6.87502C2.89465 5.62429 4.10746 4.61433 5.50512 3.93019C6.90277 3.24604 8.44435 2.90774 10.0001 2.94377C13.5063 2.94377 16.1313 4.24377 18.0251 6.90627C18.0977 7.01078 18.126 7.13983 18.1038 7.26516C18.0815 7.3905 18.0105 7.50191 17.9063 7.57502C17.8289 7.6286 17.7379 7.65896 17.6438 7.66252Z" fill="#4390E3"/>
<path d="M7.67506 19.375C7.5781 19.3745 7.48349 19.3451 7.40333 19.2905C7.32317 19.236 7.2611 19.1588 7.22506 19.0688C7.20006 19.0099 7.18739 18.9465 7.18781 18.8825C7.18823 18.8186 7.20173 18.7554 7.22749 18.6968C7.25325 18.6383 7.29073 18.5856 7.3376 18.5421C7.38447 18.4986 7.43976 18.4651 7.50006 18.4438C10.2313 17.3938 11.8751 15.2438 11.8751 12.6875C11.8937 12.4365 11.858 12.1844 11.7704 11.9485C11.6828 11.7125 11.5453 11.4982 11.3673 11.3202C11.1893 11.1423 10.9751 11.0048 10.7391 10.9171C10.5031 10.8295 10.2511 10.7938 10.0001 10.8125C8.83756 10.8125 8.27506 11.4375 8.12506 12.9063C8.05531 13.5932 7.72202 14.2264 7.19523 14.6728C6.66843 15.1191 5.98914 15.344 5.30006 15.3C4.92949 15.3054 4.56186 15.2335 4.22059 15.089C3.87932 14.9445 3.5719 14.7305 3.3179 14.4606C3.06389 14.1907 2.86889 13.8709 2.7453 13.5215C2.62171 13.1721 2.57224 12.8008 2.60006 12.4313C2.63459 10.4989 3.43206 8.65862 4.81843 7.31207C6.20479 5.96551 8.0675 5.22199 10.0001 5.24375C11.9816 5.24372 13.8827 6.02789 15.2879 7.42496C16.6932 8.82203 17.4885 10.7185 17.5001 12.7C17.4559 14.0952 17.1617 15.4712 16.6313 16.7625C16.5804 16.8777 16.4869 16.9687 16.3704 17.0164C16.2539 17.0642 16.1234 17.065 16.0063 17.0188C15.9482 16.9948 15.8954 16.9596 15.8511 16.9152C15.8067 16.8707 15.7715 16.8179 15.7477 16.7597C15.7239 16.7016 15.7118 16.6393 15.7122 16.5765C15.7126 16.5137 15.7255 16.4516 15.7501 16.3938C16.23 15.2188 16.4987 13.9684 16.5438 12.7C16.5355 10.9711 15.8421 9.31594 14.6154 8.09748C13.3888 6.87903 11.729 6.19667 10.0001 6.2C9.16345 6.18343 8.33178 6.33206 7.55269 6.63736C6.7736 6.94266 6.06239 7.39864 5.45977 7.9792C4.85715 8.55975 4.37497 9.25347 4.04084 10.0206C3.70671 10.7878 3.52719 11.6134 3.51256 12.45C3.48694 12.6932 3.51312 12.939 3.58937 13.1713C3.66562 13.4036 3.79022 13.6171 3.95496 13.7978C4.1197 13.9785 4.32084 14.1222 4.54514 14.2196C4.76944 14.3169 5.01182 14.3656 5.25631 14.3625C5.48138 14.3849 5.70866 14.3625 5.92502 14.2965C6.14138 14.2306 6.34254 14.1224 6.51687 13.9783C6.6912 13.8342 6.83525 13.657 6.94071 13.4569C7.04618 13.2568 7.11095 13.0378 7.13131 12.8125C7.35631 10.8688 8.31256 9.88125 9.98131 9.88125C10.3595 9.86214 10.7374 9.92296 11.0905 10.0598C11.4436 10.1966 11.7639 10.4063 12.0304 10.6752C12.297 10.9441 12.5039 11.2662 12.6376 11.6205C12.7713 11.9748 12.8288 12.3533 12.8063 12.7313C12.8063 15.6938 10.9313 18.1813 7.80631 19.375C7.7627 19.38 7.71866 19.38 7.67506 19.375Z" fill="#4390E3"/>
<path d="M12.3564 18.925C12.2367 18.923 12.1215 18.8788 12.0314 18.8C11.9868 18.7558 11.9514 18.7032 11.9272 18.6453C11.9031 18.5874 11.8906 18.5252 11.8906 18.4625C11.8906 18.3997 11.9031 18.3376 11.9272 18.2796C11.9514 18.2217 11.9868 18.1691 12.0314 18.125C13.4375 16.6674 14.2296 14.7252 14.2439 12.7C14.2439 11.725 13.9439 8.54372 10.0564 8.54372C9.48991 8.52379 8.92516 8.61688 8.39506 8.81754C7.86497 9.01821 7.38014 9.32243 6.96887 9.71247C6.60089 10.0765 6.30998 10.511 6.11348 10.9899C5.91698 11.4688 5.81891 11.9824 5.82512 12.5C5.82348 12.6265 5.77205 12.7473 5.68197 12.8362C5.5919 12.9251 5.47043 12.975 5.34387 12.975C5.28097 12.9758 5.21853 12.9641 5.16017 12.9406C5.10182 12.9171 5.04872 12.8823 5.00395 12.8381C4.95917 12.7939 4.92363 12.7412 4.89937 12.6832C4.8751 12.6252 4.86261 12.5629 4.86262 12.5C4.85288 11.8597 4.97053 11.2238 5.20872 10.6294C5.44692 10.035 5.80091 9.49385 6.25012 9.03747C6.74806 8.55954 7.33595 8.18527 7.97969 7.93636C8.62343 7.68744 9.31019 7.56885 10.0001 7.58747C13.8001 7.58747 15.1501 10.3375 15.1501 12.7C15.1419 14.9543 14.2695 17.1196 12.7126 18.75C12.6697 18.8034 12.6155 18.8468 12.5539 18.877C12.4924 18.9073 12.4249 18.9236 12.3564 18.925Z" fill="#4390E3"/>
<path d="M5.41253 17.3375C5.08674 17.3367 4.76125 17.3179 4.43753 17.2812C4.37515 17.2742 4.31476 17.2551 4.2598 17.2247C4.20484 17.1944 4.15639 17.1536 4.11722 17.1045C4.07804 17.0555 4.04891 16.9992 4.03148 16.9389C4.01406 16.8786 4.00868 16.8155 4.01566 16.7531C4.02263 16.6907 4.04183 16.6303 4.07214 16.5754C4.10246 16.5204 4.14331 16.472 4.19235 16.4328C4.24139 16.3936 4.29766 16.3645 4.35796 16.3471C4.41826 16.3296 4.4814 16.3242 4.54378 16.3312C6.10003 16.5062 7.32503 16.2312 8.19378 15.5062C8.59423 15.1481 8.91807 14.7127 9.14578 14.2261C9.37349 13.7395 9.50037 13.2119 9.51878 12.675C9.52188 12.6117 9.53777 12.5497 9.56551 12.4927C9.59324 12.4357 9.63224 12.385 9.68014 12.3435C9.72804 12.302 9.78385 12.2707 9.84421 12.2514C9.90456 12.2321 9.9682 12.2252 10.0313 12.2312C10.1573 12.2408 10.2746 12.299 10.3586 12.3934C10.4425 12.4879 10.4865 12.6112 10.4813 12.7375C10.4549 13.406 10.2929 14.0621 10.0049 14.6659C9.71695 15.2698 9.30914 15.8087 8.80628 16.25C7.84155 17.0068 6.63745 17.3926 5.41253 17.3375Z" fill="#4390E3"/>
</svg>
