<svg width="307" height="278" viewBox="0 0 307 278" fill="none" xmlns="http://www.w3.org/2000/svg">
<g clip-path="url(#clip0_113_2114)">
<path d="M233.983 18.2197L248.748 70.2301C250.574 76.6612 255.403 81.8105 261.704 84.0439L293.528 95.3253C305.904 99.7128 311.088 114.39 304.215 125.578L280.186 164.691C275.897 171.672 276.144 180.529 280.816 187.26L290.906 201.797C300.84 216.11 289.663 235.532 272.296 234.133L166.345 225.596C160.448 225.12 154.631 227.2 150.369 231.304L107.706 272.41C95.5143 284.157 75.1446 277.033 72.9294 260.248L68.4613 226.381C66.7284 213.244 53.2383 205.122 40.8168 209.736C24.8853 215.653 9.03051 200.854 13.8379 184.553L19.723 164.6C22.1202 156.469 19.3031 147.701 12.6185 142.489L7.64991 138.615C-6.99849 127.193 -0.28009 103.747 18.1955 101.817L53.2981 98.1515C62.8921 97.1492 70.5114 89.6352 71.6463 80.0568L78.9562 18.3926C80.9387 1.66938 101.037 -5.76533 113.426 5.64087L148.661 38.0824C157.55 46.2672 171.538 45.0959 178.943 35.5487L197.823 11.2088C208.194 -2.16042 229.361 1.94497 233.983 18.2197Z" fill="#4390E3"/>
<path d="M43.5156 131.431C42.6537 125.555 41.3017 120.08 39.4193 114.881C36.3396 106.383 32.0379 101.192 26.626 99.4424C26.5012 99.4021 26.3751 99.3631 26.249 99.3267C24.5603 98.834 23.1238 98.8262 21.9785 99.3059C19.6294 100.291 18.7194 103.355 19.1952 105.75C19.7347 108.459 21.6288 110.802 23.4111 112.734C25.6081 115.116 28.0404 117.372 30.3882 119.553C33.4055 122.355 36.5268 125.25 39.2282 128.477C39.8808 129.257 40.4931 130.05 41.069 130.85C45.4708 141.558 50.2288 156.554 49.6711 170.376C49.5515 173.327 49.2044 175.754 48.7962 177.676C47.868 172.153 44.4555 163.502 33.4926 153.591C30.3245 148.923 26.9016 144.777 23.1537 141.061C16.7343 134.698 10.6243 131.846 4.9849 132.581C4.8549 132.598 4.7249 132.616 4.5949 132.638C2.8568 132.915 1.55549 133.523 0.726094 134.447C-0.974306 136.343 -0.486808 139.503 0.967892 141.462C2.61499 143.681 5.32939 144.987 7.7669 145.971C10.7725 147.184 13.9354 148.182 16.9917 149.149C20.9177 150.389 24.9776 151.671 28.7996 153.431C29.9891 153.979 31.1266 154.574 32.2134 155.206C32.2147 155.207 32.2147 155.207 32.216 155.208C31.6089 155.171 30.9004 155.158 30.0749 155.186C26.6728 154.488 23.3617 154.097 20.0844 154.014C13.9094 153.858 9.53489 155.303 7.07399 158.312C7.01679 158.382 6.9609 158.451 6.9063 158.522C6.1718 159.474 5.8104 160.386 5.8299 161.235C5.8728 162.975 7.5953 164.318 9.2385 164.61C11.0975 164.942 13.0592 164.319 14.7323 163.665C16.7954 162.86 18.8364 161.874 20.8098 160.922C23.3435 159.699 25.963 158.434 28.6891 157.517C28.9504 157.43 29.2104 157.347 29.4704 157.268C32.9648 157.061 34.2882 157.623 34.3532 157.651C34.5209 157.737 34.7029 157.767 34.8784 157.756C41.2705 164.214 44.2709 169.869 45.6697 173.888C47.7146 179.768 46.8644 183.493 46.854 183.541C46.8501 183.559 46.8501 183.577 46.8462 183.595C46.8397 183.632 46.8345 183.667 46.8306 183.702C46.828 183.734 46.8267 183.767 46.828 183.799C46.828 183.833 46.8306 183.866 46.8345 183.898C46.8384 183.932 46.8436 183.964 46.8514 183.997C46.8579 184.028 46.8657 184.059 46.8761 184.091C46.8865 184.122 46.8969 184.152 46.9099 184.183C46.9229 184.214 46.9372 184.243 46.9528 184.273C46.9684 184.301 46.984 184.327 47.0022 184.353C47.0204 184.38 47.0412 184.408 47.062 184.434C47.0828 184.46 47.1062 184.483 47.1296 184.507C47.1517 184.529 47.1751 184.551 47.2011 184.572C47.2297 184.595 47.2596 184.616 47.2895 184.637C47.3051 184.647 47.3181 184.659 47.3337 184.669C47.3428 184.674 47.3532 184.676 47.3623 184.681C47.4221 184.713 47.4858 184.741 47.5547 184.761C47.569 184.765 47.582 184.773 47.595 184.776C47.5976 184.776 47.5989 184.777 47.6015 184.778C47.6756 184.796 47.7484 184.803 47.8212 184.806C47.8303 184.806 47.8394 184.809 47.8485 184.809C47.8485 184.809 47.8485 184.809 47.8498 184.809C47.8511 184.809 47.8498 184.809 47.8511 184.809C47.9304 184.809 48.0071 184.796 48.0825 184.78C48.0994 184.776 48.1163 184.772 48.1319 184.767C48.206 184.746 48.2775 184.717 48.3451 184.681C48.3542 184.676 48.362 184.669 48.3711 184.664C48.4322 184.627 48.4881 184.585 48.5401 184.536C48.5518 184.526 48.5648 184.516 48.5752 184.504C48.6311 184.448 48.6805 184.384 48.7221 184.315C48.726 184.31 48.7299 184.306 48.7338 184.301C48.8391 184.122 51.3052 179.797 51.7095 170.669C52.314 157.012 47.8602 142.292 43.5156 131.431Z" fill="black"/>
<path d="M26.0723 107.855C27.2691 107.855 28.2394 106.884 28.2394 105.688C28.2394 104.491 27.2691 103.521 26.0723 103.521C24.8754 103.521 23.9052 104.491 23.9052 105.688C23.9052 106.884 24.8754 107.855 26.0723 107.855Z" fill="white"/>
<path d="M8.18812 142.06C9.38498 142.06 10.3552 141.09 10.3552 139.893C10.3552 138.696 9.38498 137.726 8.18812 137.726C6.99127 137.726 6.02103 138.696 6.02103 139.893C6.02103 141.09 6.99127 142.06 8.18812 142.06Z" fill="white"/>
<path d="M11.156 161.836C12.1533 161.836 12.9617 161.027 12.9617 160.03C12.9617 159.033 12.1533 158.224 11.156 158.224C10.1588 158.224 9.35031 159.033 9.35031 160.03C9.35031 161.027 10.1588 161.836 11.156 161.836Z" fill="white"/>
<path d="M201.038 223.156C201.017 223.156 200.998 223.156 200.978 223.154C200.413 223.136 199.969 222.664 199.987 222.099C200.006 221.533 200.474 221.086 201.043 221.108C201.051 221.108 201.059 221.108 201.066 221.108C202.36 221.108 211.054 218.114 221.015 212.225C229.492 207.214 240.505 199.145 244.819 189.166C248.619 180.378 246.388 171.686 238.189 163.324C236.447 167.523 234.539 171.438 232.494 174.967C224.533 188.707 215.509 195.024 206.402 193.234C198.518 191.685 193.653 186.905 192.701 179.776C191.384 169.909 198 158.396 207.763 153.565C213.375 150.789 224.483 148.079 237.418 159.748C242.087 147.65 245.385 133.439 246.647 119.39C247.716 107.5 247.189 96.8879 245.211 88.3144C244.317 89.2738 243.389 90.1435 242.425 90.9248C237.715 94.7377 232.408 96.1859 226.653 95.2291C217.219 93.6613 210.962 87.8841 209.916 79.7773C208.968 72.4336 212.555 65.1887 218.444 62.5497C221.388 61.2302 224.729 61.1587 228.108 62.3469C231.87 63.669 235.649 66.4978 239.341 70.754C242.224 74.0794 244.51 78.5566 246.153 83.9685C247.84 81.6129 249.465 78.7048 250.962 75.1259C254.97 65.541 256.896 53.1754 256.116 42.05C255.301 30.4384 251.66 21.4775 246.124 17.4644C245.667 17.1329 245.565 16.492 245.897 16.0344C246.228 15.5768 246.868 15.4741 247.327 15.8069C253.442 20.2412 257.289 29.5102 258.159 41.907C258.961 53.3366 256.977 66.0493 252.851 75.915C251.132 80.0269 249.12 83.5382 246.837 86.4177C249.157 95.4787 249.829 106.83 248.684 119.573C247.379 134.1 243.918 148.813 239.021 161.261C239.111 161.35 239.201 161.438 239.29 161.528C248.425 170.649 250.918 180.222 246.698 189.978C242.163 200.463 230.795 208.821 222.056 213.987C212.652 219.548 203.257 223.156 201.038 223.156ZM217.888 153.225C214.046 153.225 210.889 154.304 208.671 155.4C199.796 159.791 193.542 170.604 194.732 179.504C195.558 185.696 199.843 189.857 206.798 191.224C217.665 193.356 226.453 181.311 230.725 173.94C232.849 170.274 234.822 166.186 236.612 161.785C229.544 155.202 223.09 153.225 217.888 153.225ZM223.42 63.5325C221.99 63.5325 220.605 63.825 219.282 64.4191C214.28 66.6616 211.126 73.1525 211.947 79.5173C213.28 89.8406 222.912 92.5329 226.99 93.2115C231.234 93.9174 238.224 93.5066 244.614 85.951C243.033 80.2037 240.744 75.4977 237.794 72.0969C232.909 66.4614 227.94 63.5325 223.42 63.5325Z" fill="black"/>
<path d="M23.2785 192.638C23.2785 192.634 23.2785 192.629 23.2785 192.625V192.573H23.2798C23.2889 189.627 25.1921 186.685 29.0037 184.436L182.141 94.6935C189.805 90.1708 202.285 90.1734 209.998 94.6974L276.525 133.738C280.407 136.015 282.342 139.007 282.333 141.993H282.335L282.305 149.058C282.296 152.007 280.389 154.95 276.582 157.198L123.445 246.94C115.77 251.468 103.301 251.461 95.5884 246.935L29.0609 207.894C25.1791 205.616 23.2382 202.626 23.2473 199.639L23.2785 192.638Z" fill="black"/>
<path d="M96.9469 237.69L28.836 197.72C24.6643 195.272 24.6656 189.154 28.8386 186.707L183.298 96.1378C191.046 91.5943 200.589 91.5956 208.336 96.1404L218.882 102.327C219.092 102.451 219.265 102.629 219.385 102.843L224.352 111.805C224.525 112.117 224.777 112.376 225.081 112.554L245.818 124.726C246.036 124.855 246.278 124.935 246.529 124.965L259.713 126.532C260.05 126.572 260.375 126.681 260.669 126.853L277.824 136.919C281.46 139.052 281.458 144.385 277.822 146.517L122.328 237.693C114.475 242.299 104.799 242.297 96.9469 237.69Z" fill="white"/>
<path d="M231.28 110.063L245.142 118.196C245.905 118.645 245.988 119.322 245.326 119.709C244.665 120.097 243.51 120.049 242.746 119.6L228.884 111.467C228.121 111.019 228.038 110.342 228.699 109.954C229.362 109.567 230.517 109.615 231.28 110.063Z" fill="white"/>
<path d="M249.881 168.859C250.014 168.462 250.214 168.075 250.46 167.733C250.739 167.345 251.077 167.016 251.439 166.805L264.166 159.341C264.643 159.063 265.075 159.037 265.387 159.218L266.646 159.954C266.334 159.772 265.904 159.798 265.427 160.077L252.7 167.54C252.338 167.752 251.999 168.08 251.721 168.469C251.475 168.81 251.275 169.198 251.142 169.594C251.031 169.927 250.968 170.266 250.968 170.588V171.148C250.968 171.711 251.166 172.109 251.483 172.294L250.223 171.56C249.905 171.375 249.709 170.978 249.709 170.415V169.854C249.707 169.532 249.77 169.193 249.881 168.859Z" fill="white"/>
<path d="M252.699 167.539L265.426 160.076C266.388 159.516 267.157 159.973 267.156 161.105V161.666C267.156 162.786 266.386 164.153 265.424 164.713L252.697 172.176C251.746 172.73 250.967 172.267 250.967 171.147V170.586C250.967 169.454 251.748 168.094 252.699 167.539Z" fill="black"/>
<path d="M229.659 180.776C229.791 180.379 229.992 179.992 230.237 179.65C230.515 179.262 230.855 178.933 231.216 178.722L243.943 171.258C244.42 170.98 244.851 170.953 245.163 171.135L246.422 171.871C246.11 171.689 245.68 171.715 245.203 171.994L232.476 179.457C232.114 179.669 231.775 179.997 231.497 180.386C231.251 180.727 231.051 181.115 230.918 181.511C230.807 181.844 230.744 182.183 230.744 182.505V183.065C230.744 183.628 230.942 184.026 231.259 184.211L229.999 183.477C229.681 183.292 229.484 182.895 229.484 182.332V181.771C229.486 181.448 229.548 181.108 229.659 180.776Z" fill="white"/>
<path d="M232.477 179.456L245.204 171.993C246.166 171.433 246.936 171.89 246.934 173.022V173.583C246.934 174.703 246.165 176.07 245.203 176.63L232.476 184.093C231.524 184.647 230.745 184.184 230.745 183.064V182.503C230.745 181.371 231.525 180.011 232.477 179.456Z" fill="black"/>
<path d="M247.756 121.139C248.688 120.59 250.204 120.59 251.141 121.139C252.078 121.691 252.082 122.581 251.152 123.131C250.219 123.681 248.705 123.682 247.766 123.131C246.829 122.582 246.824 121.689 247.756 121.139Z" fill="white"/>
<path d="M70.1903 209.594C70.2956 209.4 70.6453 209.269 71.1042 209.255C72.5394 209.209 74.3815 210.205 75.1368 211.428C75.3825 211.827 75.4696 212.199 75.363 212.397C75.2577 212.592 74.908 212.722 74.4504 212.736C73.0399 212.784 71.1601 211.765 70.4165 210.561C70.1708 210.164 70.0837 209.793 70.1903 209.594Z" fill="white"/>
<path d="M68.6745 211.636C69.7782 213.426 72.2482 214.785 74.3594 214.785C74.4114 214.785 74.4647 214.784 74.5167 214.782C75.7374 214.743 76.7046 214.227 77.1674 213.367C77.6328 212.502 77.5275 211.404 76.8801 210.353C76.1664 209.196 74.8742 208.22 73.4819 207.674C72.6694 207.355 71.8231 207.184 71.0392 207.209C69.8172 207.248 68.85 207.764 68.3872 208.626C67.9231 209.49 68.0271 210.587 68.6745 211.636ZM70.4165 210.563C70.1708 210.163 70.0837 209.793 70.1903 209.595C70.2956 209.402 70.6453 209.27 71.1042 209.256C72.5394 209.211 74.3815 210.206 75.1368 211.43C75.3825 211.829 75.4696 212.201 75.363 212.398C75.2577 212.593 74.908 212.723 74.4504 212.737C73.0399 212.786 71.1601 211.766 70.4165 210.563Z" fill="black"/>
<path d="M61.3217 98.5128C61.2983 98.5128 61.2762 98.5128 61.2541 98.5115C59.5199 98.4582 57.8299 96.3964 55.9358 92.0219C52.626 84.374 51.6042 75.2883 53.0589 66.4392C53.7076 62.4963 54.8269 58.7458 56.3232 55.3944C53.1343 46.4114 48.1267 35.5538 40.4528 25.7128C34.7809 18.4406 29.9124 15.4051 25.9799 16.6921C15.8022 20.0214 12.6471 51.5373 12.2909 63.3998C12.274 63.9653 11.7917 64.3982 11.2366 64.3917C10.6711 64.3748 10.2278 63.9029 10.2447 63.3374C10.2473 63.2282 10.5944 52.2926 12.5457 40.9761C15.2185 25.4749 19.5241 16.6492 25.3429 14.746C30.1815 13.1626 35.8092 16.4282 42.0674 24.4531C49.3747 33.8235 54.3082 44.0831 57.5738 52.8464C58.9726 50.2503 60.6132 47.9662 62.4397 46.1137C67.3953 41.0866 73.2908 39.5734 79.0758 41.8341C80.2588 35.4927 82.6391 29.7324 86.5209 26.8165C86.972 26.4772 87.6142 26.5682 87.9535 27.0206C88.2928 27.473 88.2018 28.1139 87.7494 28.4532C84.6268 30.7984 82.2218 35.962 81.0245 42.6804C88.48 46.1553 92.7999 50.9796 93.2484 56.3824C93.6332 61.0351 91.0293 65.706 86.4507 68.5725C84.5098 69.788 82.5728 69.2875 81.1389 67.1997C78.4999 63.3569 77.3858 53.2728 78.7352 43.9063C78.6975 43.8907 78.6598 43.8751 78.6234 43.8595C75.0367 42.3684 69.5702 41.799 63.8983 47.5528C61.8495 49.6302 60.0217 52.3485 58.5306 55.5049C60.2128 60.3461 61.3698 64.6101 62.1342 67.8497C65.1138 80.4701 65.7469 92.6433 63.6409 96.7968C62.9246 98.2047 61.9977 98.5128 61.3217 98.5128ZM57.3268 58.3402C53.744 67.7964 53.0524 80.2075 57.8143 91.2107C60.0464 96.3691 61.3035 96.4666 61.3152 96.4666C61.3958 96.464 61.5895 96.3093 61.8131 95.8686C63.4108 92.7174 63.3679 81.9911 60.14 68.319C59.5043 65.6254 58.593 62.2077 57.3268 58.3402ZM80.6969 44.7903C80.5851 45.621 80.4915 46.4712 80.4161 47.3383C79.7349 55.15 80.7489 63.015 82.8263 66.0401C83.8325 67.5065 84.6411 67.2907 85.3652 66.837C89.2925 64.3787 91.5311 60.4371 91.21 56.5514C90.8343 52.0352 87.1267 47.909 80.6969 44.7903Z" fill="black"/>
<path d="M113.552 190.826C112.877 189.798 111.382 188.29 109.734 187.14C104.857 183.742 99.1504 183.72 94.642 186.861C89.6331 190.351 90.5652 194.398 94.9033 197.422C96.839 198.771 98.7812 199.567 100.327 200.039L97.398 203.63C96.0681 203.306 93.6644 202.314 91.067 200.599L87.9366 202.779L84.7529 200.56L88.0588 198.257C87.4621 197.696 86.9265 197.12 86.4598 196.533L82.7158 199.141L79.5321 196.922L84.6437 193.36C83.332 189.703 84.5917 185.866 89.2054 182.651C93.3797 179.743 98.7123 178.572 104.231 179.713L109.648 175.94L112.832 178.159L108.601 181.106C109.396 181.449 110.187 181.843 110.977 182.289L114.867 179.578L118.051 181.797L114.238 184.453C116.505 186.185 117.885 187.744 118.349 188.631L113.552 190.826Z" fill="black"/>
<path d="M255.553 143.453C253.642 151.835 252.643 160.423 252.762 169.129C252.822 173.544 253.258 178.252 255.977 181.731C258.948 185.53 264.115 187.038 268.933 186.843C280.704 186.368 290.659 177.05 295.394 166.262C300.13 155.475 300.652 143.376 300.992 131.599C301.26 122.328 301.465 112.933 303.705 103.882C304.666 100.001 311.739 84.3325 306.338 81.7572C298.91 78.0509 281.526 87.3264 272.33 102.716C264.755 115.392 258.82 129.12 255.553 143.453Z" fill="black"/>
<path d="M294.192 95.0523C293.669 94.7611 293.009 94.9509 292.719 95.4735C280.233 117.976 274.137 141.607 271.221 157.468C271.205 157.555 271.19 157.64 271.174 157.725C269.349 148.585 266.965 129.106 275.098 112.705C275.349 112.198 275.142 111.584 274.636 111.333C274.129 111.083 273.516 111.289 273.265 111.795C267.32 123.784 266.873 137.218 267.545 146.376C268.16 154.756 269.753 161.042 270.282 162.951C268.02 177.162 267.851 186.718 267.85 186.826C267.841 187.424 268.319 187.916 268.917 187.926C268.923 187.926 268.928 187.926 268.933 187.926C269.523 187.926 270.007 187.451 270.016 186.858C270.019 186.65 270.207 177.416 272.416 163.519C272.434 163.452 272.446 163.382 272.45 163.31C273.267 158.196 274.359 152.459 275.814 146.311C278.569 145.901 286.612 143.333 291.652 127.526C291.823 126.987 291.526 126.412 290.988 126.241C290.449 126.068 289.873 126.367 289.702 126.905C285.496 140.092 279.171 143.307 276.351 144.09C279.977 129.423 285.671 112.64 294.612 96.5265C294.903 96.0026 294.715 95.3435 294.192 95.0523Z" fill="white"/>
<path d="M147.306 212.991C137.861 212.866 128.749 215.024 121.647 219.064C114.607 223.07 110.334 228.478 109.552 234.338L109.55 234.341L108.911 241.857C108.835 242.281 108.776 242.706 108.734 243.135C108.105 249.617 112.54 255.662 119.256 260.157C125.647 264.436 134.421 266.625 143.963 266.625C154.459 266.625 162.004 263.84 169.207 259.741C176.777 255.433 180.208 250.575 180.837 244.095C180.879 243.667 180.902 243.241 180.909 242.815L181.017 235.985C181 235.92 180.98 235.857 180.961 235.793C181.313 231.574 179.809 227.455 176.598 223.869C170.644 217.221 159.694 213.155 147.306 212.991ZM115.516 226.662C115.64 226.519 115.763 226.377 115.892 226.235C115.763 226.376 115.64 226.519 115.516 226.662ZM113.684 229.168C113.79 228.995 113.894 228.821 114.006 228.649C113.894 228.821 113.79 228.994 113.684 229.168ZM114.249 228.296C114.357 228.138 114.464 227.981 114.579 227.826C114.464 227.982 114.358 228.14 114.249 228.296ZM114.857 227.466C114.973 227.318 115.087 227.169 115.208 227.022C115.087 227.169 114.973 227.317 114.857 227.466ZM116.986 225.119C117.127 224.985 117.269 224.852 117.413 224.721C117.267 224.852 117.126 224.985 116.986 225.119ZM117.795 224.38C117.943 224.25 118.095 224.121 118.247 223.994C118.095 224.121 117.945 224.25 117.795 224.38ZM176.742 227.638C176.757 227.661 176.772 227.683 176.786 227.707C176.773 227.685 176.758 227.661 176.742 227.638ZM139.766 215.566C140.039 215.532 140.314 215.502 140.589 215.474C140.314 215.504 140.039 215.534 139.766 215.566ZM136.884 216C137.146 215.954 137.407 215.909 137.669 215.866C137.407 215.911 137.144 215.954 136.884 216ZM147.278 215.158C146.766 215.151 146.255 215.153 145.746 215.159C146.255 215.151 146.766 215.151 147.278 215.158ZM143.626 215.233C143.324 215.249 143.023 215.265 142.724 215.284C143.023 215.263 143.324 215.249 143.626 215.233ZM142.089 215.333C141.805 215.356 141.519 215.379 141.235 215.406C141.519 215.379 141.805 215.357 142.089 215.333ZM134.846 216.406C134.592 216.462 134.341 216.519 134.092 216.579C134.341 216.52 134.594 216.462 134.846 216.406ZM132.129 217.083C131.882 217.152 131.637 217.225 131.393 217.298C131.636 217.225 131.881 217.152 132.129 217.083ZM129.526 217.892C129.275 217.978 129.03 218.069 128.783 218.158C129.028 218.067 129.275 217.978 129.526 217.892ZM128.272 218.343C128.005 218.443 127.744 218.548 127.481 218.654C127.743 218.548 128.004 218.443 128.272 218.343ZM127.05 218.824C126.69 218.972 126.333 219.126 125.982 219.283C126.333 219.127 126.688 218.973 127.05 218.824ZM125.862 219.335C125.473 219.509 125.092 219.688 124.716 219.873C125.092 219.69 125.474 219.509 125.862 219.335ZM118.652 223.664C118.809 223.538 118.97 223.413 119.133 223.288C118.972 223.413 118.81 223.538 118.652 223.664ZM119.557 222.97C119.724 222.846 119.895 222.725 120.066 222.604C119.895 222.727 119.723 222.847 119.557 222.97ZM120.504 222.3C120.682 222.179 120.864 222.061 121.046 221.944C120.864 222.062 120.682 222.181 120.504 222.3ZM121.495 221.655C121.685 221.537 121.88 221.42 122.075 221.304C121.881 221.42 121.686 221.536 121.495 221.655ZM123.603 220.44C123.841 220.314 124.084 220.192 124.326 220.071C124.083 220.193 123.84 220.315 123.603 220.44ZM113.489 229.488C113.357 229.718 113.235 229.951 113.115 230.185C113.235 229.952 113.357 229.718 113.489 229.488ZM177.693 229.402C177.677 229.368 177.663 229.336 177.647 229.302C177.663 229.334 177.677 229.368 177.693 229.402ZM178.024 230.196C178.023 230.192 178.021 230.19 178.02 230.186C178.021 230.189 178.023 230.192 178.024 230.196ZM175.748 226.229C175.693 226.16 175.641 226.091 175.585 226.022C175.64 226.091 175.693 226.16 175.748 226.229Z" fill="black"/>
<path d="M174.986 225.315C169.428 219.11 159.07 215.313 147.278 215.158C130.367 214.936 115.594 222.337 112.28 232.148C111.958 233.103 111.743 234.081 111.647 235.078C111.291 238.746 112.608 242.364 115.455 245.543C121.012 251.748 131.371 255.545 143.163 255.7C161.719 255.944 177.703 247.013 178.794 235.78C179.148 232.113 177.832 228.493 174.986 225.315Z" fill="white"/>
<path d="M166.358 228.029C162.49 223.711 154.967 220.961 146.725 220.852C134.739 220.695 124.273 225.903 121.941 232.806C121.716 233.473 121.566 234.155 121.499 234.849C121.252 237.391 122.169 239.902 124.151 242.115C128.018 246.434 135.541 249.183 143.783 249.292C156.928 249.465 168.244 243.189 169.008 235.294C169.255 232.755 168.339 230.242 166.358 228.029Z" fill="white"/>
<path d="M146.754 218.686C139.931 218.596 133.344 220.156 128.209 223.079C122.923 226.087 119.775 230.192 119.343 234.641C119.036 237.801 120.141 240.886 122.537 243.562C126.861 248.389 134.794 251.342 143.756 251.459C150.578 251.549 157.165 249.989 162.3 247.066C166.576 244.633 169.454 241.482 170.626 238.011C170.903 237.192 171.085 236.354 171.166 235.504C171.473 232.344 170.368 229.259 167.972 226.584C163.647 221.757 155.715 218.804 146.754 218.686ZM143.783 249.293C135.541 249.184 128.018 246.435 124.151 242.116C122.169 239.903 121.253 237.392 121.499 234.85C121.566 234.155 121.716 233.474 121.941 232.807C124.272 225.904 134.738 220.695 146.725 220.853C154.967 220.961 162.49 223.712 166.358 228.031C168.339 230.242 169.255 232.755 169.01 235.296C168.244 243.19 156.928 249.466 143.783 249.293Z" fill="black"/>
<path d="M145.391 229.084L145.324 229.081C144.913 226.212 143.276 224.823 141.261 224.732C139.214 224.639 137.431 225.834 136.264 227.543C135.519 228.549 134.972 229.662 134.521 231.066L131.076 230.909L130.58 233.554L133.84 233.702C133.759 234.079 133.681 234.475 133.603 234.888C133.489 235.496 133.383 236.114 133.287 236.725L130.015 236.577L129.52 239.22L132.92 239.374C132.785 240.539 132.706 241.551 132.701 242.24L154.932 243.251C155.157 242.552 155.43 241.599 155.717 240.412L158.676 240.547L159.171 237.904L156.294 237.773C156.336 237.562 156.378 237.349 156.418 237.129C156.577 236.28 156.701 235.49 156.798 234.748L159.737 234.882L160.232 232.236L157.024 232.09C157.093 229.906 156.803 228.318 156.215 227.176C155.365 225.562 153.948 224.448 151.9 224.354C148.978 224.219 146.634 226.251 145.391 229.084ZM137.144 236.776C137.166 236.289 137.233 235.58 137.463 234.352C137.944 231.785 139.121 230.374 140.835 230.452C142.513 230.529 143.323 232.179 142.765 235.156L142.417 237.016L137.144 236.776ZM152.935 235.281C152.755 236.248 152.628 236.917 152.457 237.472L146.075 237.183L146.438 235.248C146.967 232.422 148.299 230.192 150.584 230.296C152.969 230.404 153.416 232.713 152.935 235.281Z" fill="black"/>
<path d="M140.802 201.247C131.357 201.122 122.245 203.28 115.143 207.32C108.103 211.326 103.83 216.734 103.048 222.594L103.046 222.597L102.407 230.113C102.331 230.537 102.272 230.962 102.23 231.391C101.601 237.873 106.036 243.918 112.752 248.413C119.143 252.692 127.917 254.881 137.459 254.881C147.955 254.881 155.5 252.096 162.703 247.997C170.273 243.689 173.704 238.831 174.333 232.351C174.375 231.922 174.398 231.496 174.405 231.071L174.513 224.241C174.496 224.176 174.476 224.112 174.457 224.049C174.809 219.83 173.305 215.711 170.094 212.125C164.14 205.477 153.19 201.411 140.802 201.247ZM109.012 214.918C109.136 214.775 109.259 214.633 109.388 214.491C109.259 214.632 109.136 214.775 109.012 214.918ZM109.722 214.136C109.853 213.998 109.986 213.861 110.124 213.724C109.986 213.859 109.853 213.997 109.722 214.136ZM107.18 217.424C107.286 217.251 107.39 217.077 107.502 216.905C107.39 217.077 107.286 217.25 107.18 217.424ZM107.745 216.552C107.853 216.394 107.96 216.237 108.075 216.082C107.96 216.238 107.854 216.396 107.745 216.552ZM108.353 215.722C108.469 215.574 108.583 215.425 108.704 215.278C108.583 215.425 108.469 215.573 108.353 215.722ZM110.482 213.374C110.623 213.24 110.765 213.108 110.909 212.977C110.763 213.108 110.622 213.24 110.482 213.374ZM111.291 212.636C111.439 212.506 111.591 212.377 111.743 212.25C111.591 212.377 111.441 212.506 111.291 212.636ZM170.238 215.894C170.253 215.917 170.268 215.939 170.282 215.963C170.269 215.941 170.254 215.917 170.238 215.894ZM130.38 204.256C130.642 204.209 130.903 204.165 131.165 204.122C130.903 204.167 130.64 204.211 130.38 204.256ZM140.774 203.414C140.262 203.407 139.751 203.409 139.242 203.415C139.751 203.407 140.262 203.407 140.774 203.414ZM137.122 203.489C136.82 203.505 136.519 203.52 136.22 203.54C136.519 203.519 136.82 203.505 137.122 203.489ZM135.585 203.589C135.301 203.611 135.015 203.635 134.731 203.662C135.015 203.635 135.301 203.613 135.585 203.589ZM128.342 204.662C128.088 204.718 127.837 204.775 127.588 204.835C127.837 204.776 128.09 204.718 128.342 204.662ZM125.625 205.339C125.378 205.408 125.133 205.481 124.889 205.554C125.132 205.481 125.377 205.408 125.625 205.339ZM123.022 206.148C122.771 206.234 122.526 206.325 122.279 206.414C122.524 206.323 122.771 206.234 123.022 206.148ZM121.768 206.599C121.501 206.699 121.24 206.804 120.977 206.909C121.239 206.804 121.5 206.699 121.768 206.599ZM120.546 207.08C120.186 207.228 119.829 207.381 119.478 207.539C119.829 207.383 120.184 207.229 120.546 207.08ZM119.358 207.591C118.969 207.765 118.588 207.944 118.212 208.129C118.588 207.946 118.97 207.765 119.358 207.591ZM112.148 211.92C112.305 211.794 112.466 211.669 112.629 211.544C112.468 211.669 112.306 211.794 112.148 211.92ZM113.053 211.226C113.22 211.102 113.391 210.981 113.562 210.86C113.391 210.982 113.219 211.103 113.053 211.226ZM114 210.556C114.178 210.435 114.36 210.317 114.542 210.2C114.36 210.318 114.178 210.436 114 210.556ZM114.991 209.911C115.181 209.793 115.376 209.676 115.571 209.56C115.377 209.676 115.182 209.792 114.991 209.911ZM117.099 208.696C117.337 208.57 117.58 208.447 117.822 208.327C117.579 208.449 117.336 208.571 117.099 208.696ZM106.985 217.744C106.853 217.974 106.731 218.207 106.611 218.441C106.731 218.208 106.853 217.974 106.985 217.744ZM171.189 217.658C171.173 217.624 171.159 217.592 171.143 217.558C171.159 217.59 171.173 217.624 171.189 217.658ZM169.244 214.485C169.189 214.416 169.137 214.347 169.081 214.278C169.136 214.347 169.189 214.416 169.244 214.485Z" fill="black"/>
<path d="M168.482 213.571C162.924 207.366 152.566 203.569 140.774 203.414C123.863 203.192 109.09 210.592 105.776 220.404C105.454 221.359 105.24 222.337 105.143 223.334C104.787 227.002 106.104 230.62 108.951 233.799C114.509 240.004 124.867 243.801 136.659 243.956C155.215 244.2 171.199 235.269 172.29 224.036C172.645 220.368 171.328 216.749 168.482 213.571Z" fill="white"/>
<path d="M159.854 216.285C155.986 211.966 148.463 209.217 140.221 209.108C128.235 208.95 117.769 214.158 115.437 221.061C115.212 221.728 115.062 222.411 114.995 223.105C114.748 225.646 115.666 228.158 117.647 230.371C121.514 234.689 129.037 237.439 137.279 237.548C150.424 237.721 161.74 231.444 162.505 223.549C162.752 221.01 161.835 218.498 159.854 216.285Z" fill="white"/>
<path d="M140.25 206.942C133.427 206.852 126.84 208.412 121.705 211.335C116.42 214.343 113.271 218.448 112.839 222.897C112.533 226.057 113.638 229.142 116.033 231.818C120.357 236.644 128.29 239.598 137.252 239.715C144.074 239.805 150.662 238.245 155.797 235.322C160.072 232.889 162.95 229.738 164.122 226.267C164.399 225.448 164.581 224.61 164.663 223.76C164.969 220.6 163.864 217.515 161.468 214.84C157.143 210.013 149.211 207.06 140.25 206.942ZM137.279 237.549C129.037 237.44 121.514 234.691 117.647 230.372C115.666 228.159 114.749 225.648 114.995 223.106C115.062 222.411 115.212 221.73 115.437 221.063C117.768 214.16 128.234 208.951 140.221 209.109C148.463 209.217 155.986 211.968 159.854 216.286C161.835 218.498 162.752 221.011 162.506 223.552C161.74 231.446 150.424 237.722 137.279 237.549Z" fill="black"/>
<path d="M138.887 217.339L138.82 217.337C138.409 214.468 136.772 213.079 134.757 212.988C132.71 212.895 130.928 214.089 129.76 215.799C129.015 216.805 128.468 217.918 128.017 219.322L124.572 219.165L124.077 221.81L127.336 221.958C127.255 222.335 127.177 222.731 127.099 223.144C126.985 223.752 126.879 224.37 126.783 224.981L123.511 224.833L123.016 227.476L126.417 227.63C126.281 228.795 126.202 229.806 126.197 230.495L148.428 231.507C148.653 230.807 148.926 229.855 149.213 228.668L152.172 228.803L152.667 226.16L149.791 226.029C149.832 225.818 149.874 225.605 149.914 225.385C150.073 224.536 150.197 223.746 150.294 223.003L153.233 223.137L153.728 220.492L150.52 220.346C150.589 218.162 150.299 216.574 149.711 215.432C148.861 213.818 147.444 212.704 145.397 212.61C142.474 212.475 140.13 214.507 138.887 217.339ZM130.64 225.032C130.662 224.545 130.729 223.835 130.959 222.608C131.44 220.041 132.618 218.63 134.331 218.708C136.009 218.785 136.819 220.435 136.261 223.412L135.913 225.272L130.64 225.032ZM146.431 223.537C146.251 224.504 146.125 225.174 145.953 225.728L139.571 225.438L139.934 223.504C140.463 220.678 141.796 218.448 144.08 218.552C146.465 218.66 146.912 220.969 146.431 223.537Z" fill="black"/>
<path d="M156.187 186.909C146.741 186.784 137.629 188.942 130.527 192.983C123.488 196.988 119.215 202.396 118.432 208.256L118.431 208.259L117.791 215.775C117.716 216.199 117.656 216.624 117.614 217.053C116.985 223.535 121.421 229.58 128.137 234.076C134.527 238.354 143.301 240.543 152.843 240.543C163.339 240.543 170.884 237.758 178.088 233.66C185.658 229.351 189.088 224.493 189.718 218.013C189.759 217.584 189.783 217.159 189.789 216.734L189.897 209.903C189.88 209.838 189.86 209.775 189.841 209.711C190.193 205.492 188.689 201.373 185.478 197.787C179.526 191.139 168.574 187.073 156.187 186.909ZM124.398 200.58C124.521 200.437 124.645 200.294 124.773 200.153C124.643 200.294 124.52 200.437 124.398 200.58ZM125.106 199.797C125.238 199.659 125.37 199.522 125.508 199.385C125.371 199.522 125.239 199.659 125.106 199.797ZM122.566 203.085C122.671 202.912 122.775 202.738 122.887 202.566C122.774 202.738 122.671 202.912 122.566 203.085ZM123.739 201.383C123.854 201.235 123.969 201.085 124.09 200.939C123.969 201.087 123.853 201.235 123.739 201.383ZM186.132 202.424C186.139 202.436 186.144 202.448 186.15 202.46C186.144 202.447 186.137 202.435 186.132 202.424ZM148.648 189.484C148.921 189.45 149.195 189.421 149.471 189.392C149.195 189.422 148.921 189.45 148.648 189.484ZM144.357 190.19C144.611 190.137 144.868 190.086 145.126 190.037C144.869 190.086 144.613 190.137 144.357 190.19ZM147.196 189.683C147.462 189.643 147.73 189.606 147.998 189.57C147.729 189.606 147.461 189.643 147.196 189.683ZM156.158 189.076C155.646 189.07 155.135 189.071 154.627 189.077C155.136 189.07 155.646 189.068 156.158 189.076ZM154.116 189.09C153.779 189.098 153.442 189.106 153.108 189.119C153.444 189.106 153.779 189.098 154.116 189.09ZM150.971 189.252C150.686 189.274 150.4 189.297 150.117 189.324C150.4 189.297 150.685 189.275 150.971 189.252ZM142.355 190.646C142.105 190.709 141.858 190.774 141.612 190.839C141.858 190.773 142.105 190.708 142.355 190.646ZM139.693 191.389C139.446 191.465 139.203 191.546 138.959 191.627C139.202 191.546 139.446 191.467 139.693 191.389ZM138.407 191.81C138.156 191.896 137.91 191.987 137.663 192.076C137.91 191.985 138.157 191.896 138.407 191.81ZM135.93 192.742C135.57 192.89 135.214 193.044 134.863 193.201C135.215 193.044 135.57 192.89 135.93 192.742ZM127.533 197.582C127.691 197.456 127.852 197.331 128.014 197.206C127.852 197.331 127.692 197.456 127.533 197.582ZM128.437 196.888C128.605 196.764 128.775 196.643 128.946 196.522C128.775 196.643 128.605 196.766 128.437 196.888ZM130.376 195.573C130.566 195.455 130.761 195.338 130.956 195.222C130.763 195.338 130.568 195.454 130.376 195.573ZM131.41 194.952C131.617 194.832 131.828 194.717 132.04 194.601C131.83 194.718 131.617 194.834 131.41 194.952ZM132.484 194.358C132.722 194.232 132.965 194.11 133.207 193.989C132.965 194.111 132.722 194.232 132.484 194.358ZM122.37 203.406C122.237 203.636 122.115 203.869 121.995 204.103C122.115 203.869 122.238 203.636 122.37 203.406ZM186.573 203.319C186.557 203.285 186.543 203.253 186.527 203.219C186.543 203.253 186.559 203.286 186.573 203.319ZM186.906 204.113C186.904 204.109 186.903 204.107 186.902 204.103C186.902 204.107 186.904 204.111 186.906 204.113ZM185.183 200.893C185.135 200.824 185.086 200.755 185.035 200.686C185.084 200.755 185.135 200.824 185.183 200.893ZM184.628 200.147C184.573 200.078 184.521 200.009 184.465 199.94C184.521 200.009 184.575 200.078 184.628 200.147Z" fill="black"/>
<path d="M183.866 199.233C178.309 193.028 167.95 189.231 156.158 189.076C139.248 188.854 124.474 196.255 121.161 206.066C120.838 207.021 120.624 207.999 120.528 208.996C120.171 212.665 121.488 216.283 124.335 219.461C129.893 225.666 140.251 229.463 152.044 229.618C170.6 229.862 186.583 220.931 187.674 209.698C188.03 206.029 186.713 202.412 183.866 199.233Z" fill="white"/>
<path d="M175.238 201.947C171.371 197.629 163.848 194.879 155.606 194.77C143.62 194.613 133.153 199.821 130.821 206.724C130.596 207.39 130.447 208.073 130.379 208.767C130.132 211.309 131.05 213.82 133.031 216.033C136.899 220.351 144.422 223.101 152.664 223.21C165.808 223.383 177.124 217.107 177.889 209.212C178.137 206.672 177.221 204.159 175.238 201.947Z" fill="white"/>
<path d="M155.634 192.604C148.812 192.515 142.225 194.075 137.09 196.997C131.804 200.005 128.655 204.111 128.224 208.559C127.917 211.719 129.022 214.804 131.418 217.48C135.742 222.307 143.674 225.26 152.636 225.377C159.459 225.467 166.046 223.907 171.181 220.985C175.457 218.551 178.335 215.4 179.506 211.929C179.783 211.11 179.965 210.273 180.047 209.422C180.354 206.262 179.249 203.177 176.853 200.502C172.529 195.674 164.596 192.721 155.634 192.604ZM152.665 223.211C144.423 223.102 136.9 220.353 133.032 216.034C131.051 213.822 130.135 211.31 130.38 208.768C130.448 208.073 130.597 207.392 130.822 206.725C133.153 199.822 143.62 194.613 155.607 194.771C163.849 194.879 171.372 197.63 175.239 201.949C177.221 204.16 178.137 206.673 177.891 209.214C177.126 217.108 165.808 223.384 152.665 223.211Z" fill="black"/>
<path d="M154.273 203.002L154.205 202.999C153.795 200.13 152.158 198.742 150.143 198.651C148.095 198.557 146.313 199.752 145.146 201.461C144.401 202.467 143.854 203.58 143.402 204.984L139.957 204.827L139.462 207.472L142.721 207.621C142.641 207.998 142.563 208.393 142.485 208.806C142.37 209.415 142.265 210.032 142.169 210.643L138.897 210.495L138.401 213.138L141.802 213.293C141.667 214.457 141.588 215.469 141.582 216.158L163.814 217.169C164.039 216.47 164.312 215.517 164.599 214.33L167.558 214.464L168.053 211.821L165.176 211.69C165.218 211.479 165.259 211.266 165.3 211.046C165.458 210.197 165.583 209.407 165.679 208.665L168.618 208.798L169.114 206.153L165.905 206.007C165.974 203.823 165.684 202.235 165.097 201.093C164.247 199.479 162.83 198.365 160.782 198.271C157.86 198.137 155.515 200.169 154.273 203.002ZM146.026 210.694C146.048 210.208 146.114 209.498 146.344 208.271C146.825 205.703 148.003 204.293 149.717 204.371C151.395 204.447 152.205 206.097 151.647 209.074L151.299 210.934L146.026 210.694ZM161.817 209.198C161.636 210.165 161.51 210.834 161.338 211.389L154.957 211.099L155.32 209.165C155.849 206.339 157.181 204.109 159.465 204.213C161.849 204.323 162.298 206.631 161.817 209.198Z" fill="black"/>
<path d="M207.853 142.467C207.853 142.437 207.855 142.407 207.855 142.377C207.855 142.298 207.85 142.219 207.849 142.14L207.846 141.989H207.843C207.607 136.215 202.107 130.885 192.289 126.944C182.565 123.04 169.659 120.89 155.947 120.89C142.238 120.89 129.331 123.04 119.606 126.944C109.63 130.949 104.11 136.388 104.044 142.271H104.041V142.366C104.041 142.37 104.041 142.375 104.041 142.379C104.041 142.383 104.041 142.387 104.041 142.389L103.996 158.356C103.996 169.625 126.72 178.761 155.925 178.761C185.132 178.761 208.071 170.364 208.071 159.094L207.853 142.467Z" fill="black"/>
<path d="M191.483 128.955C182.008 125.151 169.389 123.057 155.949 123.057C142.508 123.057 129.889 125.151 120.415 128.955C111.386 132.579 106.208 137.473 106.208 142.377C106.208 147.284 111.386 152.176 120.415 155.801C129.889 159.605 142.508 161.699 155.949 161.699C169.389 161.699 182.008 159.605 191.483 155.801C200.511 152.177 205.689 147.284 205.689 142.377C205.689 137.473 200.511 132.579 191.483 128.955Z" fill="white"/>
<path d="M172.877 120.023C172.312 120.023 171.854 119.564 171.854 119V46.3828C171.854 45.8173 172.313 45.3597 172.877 45.3597C173.441 45.3597 173.9 45.8186 173.9 46.3828V119C173.9 119.564 173.443 120.023 172.877 120.023Z" fill="black"/>
<path d="M154.435 72.3387C153.87 72.3387 153.412 71.8798 153.412 71.3156V26.5241C153.412 25.9586 153.871 25.501 154.435 25.501C155.001 25.501 155.459 25.9599 155.459 26.5241V71.3156C155.459 71.8798 155.001 72.3387 154.435 72.3387Z" fill="black"/>
<path d="M178.509 74.823C175.605 65.8348 170.646 57.8905 164.546 52.4552C158.498 47.068 152.008 44.7475 146.205 45.8824H146.203L138.646 46.9965C138.221 47.0602 137.798 47.1408 137.378 47.2383C131.037 48.7164 126.381 53.8254 124.27 61.6267C122.262 69.0497 122.771 78.1393 125.704 87.2198C128.638 96.3003 133.661 104.338 139.849 109.851C146.352 115.644 153.427 118.022 159.768 116.544C160.187 116.446 160.599 116.332 161.003 116.202L167.508 114.119C167.565 114.082 167.617 114.044 167.673 114.005C171.783 112.988 175.204 110.247 177.574 106.057C181.968 98.288 182.318 86.6114 178.509 74.823ZM155.387 49.0778C155.561 49.1493 155.737 49.2208 155.911 49.2975C155.735 49.2195 155.561 49.148 155.387 49.0778ZM152.426 48.1444C152.623 48.1886 152.821 48.2315 153.02 48.2822C152.822 48.2315 152.625 48.1886 152.426 48.1444ZM153.432 48.4005C153.615 48.4525 153.798 48.5045 153.983 48.563C153.8 48.5045 153.615 48.4525 153.432 48.4005ZM154.413 48.7112C154.591 48.7723 154.768 48.8347 154.946 48.901C154.77 48.8334 154.591 48.7723 154.413 48.7112ZM157.319 49.9761C157.49 50.0658 157.662 50.1581 157.832 50.253C157.661 50.1581 157.489 50.0671 157.319 49.9761ZM158.277 50.5078C158.447 50.6066 158.618 50.7093 158.788 50.8133C158.618 50.708 158.449 50.6066 158.277 50.5078ZM174.049 107.398C174.032 107.419 174.015 107.441 173.998 107.462C174.015 107.443 174.032 107.42 174.049 107.398ZM171.616 64.6648C171.748 64.8897 171.879 65.1159 172.008 65.3447C171.878 65.1159 171.748 64.8897 171.616 64.6648ZM172.323 65.9115C172.451 66.1442 172.577 66.3782 172.702 66.6135C172.576 66.3782 172.451 66.1442 172.323 65.9115ZM173.003 67.192C173.127 67.4312 173.246 67.673 173.367 67.9161C173.248 67.673 173.127 67.4312 173.003 67.192ZM176.447 75.4899C176.29 75.0024 176.126 74.5188 175.956 74.0391C176.126 74.5188 176.29 75.0011 176.447 75.4899ZM175.78 73.5581C175.666 73.2422 175.55 72.925 175.43 72.613C175.55 72.9263 175.664 73.2422 175.78 73.5581ZM170.542 62.9124C170.403 62.6966 170.263 62.4834 170.123 62.2702C170.263 62.4834 170.405 62.6966 170.542 62.9124ZM168.988 60.6296C168.836 60.4203 168.682 60.2149 168.527 60.0095C168.681 60.2149 168.836 60.4203 168.988 60.6296ZM167.348 58.5002C167.168 58.2792 166.984 58.066 166.802 57.8515C166.986 58.066 167.168 58.2805 167.348 58.5002ZM166.502 57.4966C166.246 57.2028 165.987 56.9155 165.726 56.6321C165.986 56.9155 166.246 57.2028 166.502 57.4966ZM165.638 56.5359C165.348 56.2239 165.055 55.9197 164.761 55.622C165.056 55.9197 165.348 56.2239 165.638 56.5359ZM159.23 51.0902C159.4 51.1994 159.569 51.3112 159.739 51.4256C159.57 51.3112 159.4 51.1994 159.23 51.0902ZM160.176 51.7246C160.347 51.8442 160.516 51.9664 160.685 52.0912C160.516 51.9664 160.347 51.8429 160.176 51.7246ZM161.114 52.4084C161.285 52.5384 161.455 52.6736 161.624 52.8088C161.455 52.6723 161.285 52.5384 161.114 52.4084ZM162.961 53.9216C163.14 54.0789 163.317 54.244 163.495 54.4065C163.317 54.244 163.14 54.0802 162.961 53.9216ZM152.06 48.0612C151.8 48.0092 151.54 47.9676 151.28 47.9299C151.539 47.9676 151.799 48.0092 152.06 48.0612ZM172.682 108.862C172.71 108.837 172.736 108.813 172.763 108.787C172.737 108.813 172.71 108.837 172.682 108.862ZM172.036 109.43C172.039 109.428 172.041 109.425 172.044 109.424C172.041 109.426 172.039 109.429 172.036 109.43ZM174.536 106.769C174.585 106.702 174.635 106.633 174.684 106.562C174.636 106.631 174.587 106.702 174.536 106.769ZM175.066 106.005C175.115 105.932 175.163 105.859 175.209 105.785C175.163 105.859 175.113 105.932 175.066 106.005Z" fill="black"/>
<path d="M175.688 104.991C179.788 97.7406 180.072 86.7114 176.447 75.4898C171.247 59.3971 159.509 47.7673 149.154 47.7673C148.145 47.7673 147.15 47.8778 146.175 48.1053C142.586 48.9412 139.579 51.3462 137.478 55.0603C133.378 62.3117 133.095 73.3396 136.719 84.5612C142.425 102.22 155.999 114.507 166.991 111.946C170.58 111.11 173.588 108.705 175.688 104.991Z" fill="white"/>
<path d="M170.357 97.6847C173.21 92.6381 173.409 84.6314 170.875 76.7885C167.19 65.3823 158.908 57.1312 151.621 57.1312C150.918 57.1312 150.224 57.2079 149.544 57.3665C147.057 57.9463 144.97 59.6181 143.508 62.2038C140.654 67.2504 140.455 75.2571 142.989 83.1013C147.031 95.6099 156.597 104.324 164.322 102.523C166.808 101.942 168.894 100.269 170.357 97.6847Z" fill="white"/>
<path d="M172.937 76.1217C170.84 69.6282 167.255 63.8874 162.843 59.9575C158.302 55.9119 153.405 54.2427 149.051 55.2567C145.958 55.9769 143.389 58.0101 141.621 61.1366C138.431 66.7773 138.171 75.2377 140.927 83.7657C143.025 90.2592 146.609 96 151.022 99.9299C154.695 103.202 158.602 104.921 162.265 104.921C163.13 104.921 163.981 104.824 164.813 104.631C167.906 103.91 170.475 101.876 172.243 98.7495C175.433 93.1101 175.692 84.6497 172.937 76.1217ZM142.988 83.1001C140.454 75.2572 140.653 67.2492 143.506 62.2026C144.969 59.6182 147.055 57.9451 149.542 57.3653C150.222 57.2067 150.916 57.13 151.62 57.13C158.906 57.13 167.19 65.3798 170.874 76.7873C173.408 84.6302 173.209 92.6382 170.355 97.6835C168.894 100.268 166.806 101.941 164.319 102.521C156.596 104.323 147.029 95.6087 142.988 83.1001Z" fill="black"/>
<path d="M162.65 78.1575L162.632 78.0925C165.219 76.7847 166.011 74.7905 165.453 72.8522C164.886 70.8814 163.184 69.5762 161.192 69.0172C159.999 68.6337 158.77 68.4712 157.297 68.492L156.343 65.177L153.678 65.554L154.58 68.6883C154.196 68.7338 153.799 68.7845 153.38 68.8443C152.766 68.9314 152.147 69.0289 151.539 69.1316L150.633 65.9843L147.971 66.3613L148.912 69.6321C147.765 69.8765 146.781 70.1248 146.127 70.3406L152.281 91.7269C153.016 91.7165 154.005 91.6697 155.222 91.5631L156.041 94.4088L158.703 94.0318L157.907 91.2641C158.12 91.2355 158.336 91.2069 158.557 91.1757C159.412 91.0548 160.2 90.9196 160.934 90.774L161.748 93.6015L164.413 93.2245L163.525 90.1383C165.616 89.5052 167.029 88.7213 167.923 87.7996C169.181 86.4775 169.783 84.7784 169.217 82.8089C168.407 79.9996 165.731 78.4292 162.65 78.1575ZM152.723 72.8041C153.191 72.6702 153.886 72.5051 155.122 72.3296C157.708 71.9643 159.421 72.6286 159.896 74.277C160.361 75.8916 159.056 77.1864 156.058 77.6102L154.185 77.8754L152.723 72.8041ZM159.192 87.2874C158.217 87.4252 157.543 87.5214 156.963 87.5357L155.196 81.3971L157.145 81.1215C159.992 80.7185 162.529 81.2684 163.162 83.4654C163.823 85.7586 161.778 86.9221 159.192 87.2874Z" fill="black"/>
<path d="M124.331 151.164C123.766 151.164 123.308 150.705 123.308 150.141V105.35C123.308 104.784 123.767 104.327 124.331 104.327C124.897 104.327 125.354 104.785 125.354 105.35V150.141C125.354 150.707 124.897 151.164 124.331 151.164Z" fill="black"/>
<path d="M124.331 42.6505C123.766 42.6505 123.308 42.1916 123.308 41.6274V13.9309C123.308 13.3654 123.767 12.9078 124.331 12.9078C124.897 12.9078 125.354 13.3667 125.354 13.9309V41.6274C125.354 42.1916 124.897 42.6505 124.331 42.6505Z" fill="black"/>
<path d="M186.787 151.164C186.222 151.164 185.764 150.705 185.764 150.141V105.35C185.764 104.784 186.223 104.327 186.787 104.327C187.351 104.327 187.81 104.785 187.81 105.35V150.141C187.812 150.707 187.353 151.164 186.787 151.164Z" fill="black"/>
<path d="M186.787 95.0225C186.222 95.0225 185.764 94.5636 185.764 93.9994V11.4494C185.764 10.8839 186.223 10.4263 186.787 10.4263C187.351 10.4263 187.81 10.8852 187.81 11.4494V93.9994C187.812 94.5636 187.353 95.0225 186.787 95.0225Z" fill="black"/>
<path d="M198.615 117.417C198.049 117.417 197.592 116.959 197.592 116.394V71.6028C197.592 71.0373 198.051 70.5797 198.615 70.5797C199.179 70.5797 199.638 71.0386 199.638 71.6028V116.394C199.639 116.96 199.18 117.417 198.615 117.417Z" fill="black"/>
<path d="M198.615 58.7225C198.049 58.7225 197.592 58.2636 197.592 57.6994V32.768C197.592 32.2025 198.051 31.7449 198.615 31.7449C199.179 31.7449 199.638 32.2038 199.638 32.768V57.6981C199.639 58.2636 199.18 58.7225 198.615 58.7225Z" fill="black"/>
<path d="M108.482 104.897C107.916 104.897 107.459 104.438 107.459 103.874V36.3262C107.459 35.7607 107.918 35.3031 108.482 35.3031C109.046 35.3031 109.505 35.762 109.505 36.3262V103.873C109.506 104.438 109.047 104.897 108.482 104.897Z" fill="black"/>
<path d="M108.482 127.329C107.916 127.329 107.459 126.87 107.459 126.306V113.659C107.459 113.094 107.918 112.636 108.482 112.636C109.046 112.636 109.505 113.095 109.505 113.659V126.306C109.506 126.87 109.047 127.329 108.482 127.329Z" fill="black"/>
<path d="M138.663 116.411C138.097 116.411 137.639 115.952 137.639 115.388V33.1347C137.639 32.5692 138.098 32.1116 138.663 32.1116C139.228 32.1116 139.686 32.5705 139.686 33.1347V115.388C139.686 115.954 139.228 116.411 138.663 116.411Z" fill="black"/>
<path d="M138.663 155.65C138.097 155.65 137.639 155.192 137.639 154.627V128.469C137.639 127.903 138.098 127.446 138.663 127.446C139.228 127.446 139.686 127.905 139.686 128.469V154.627C139.686 155.192 139.228 155.65 138.663 155.65Z" fill="black"/>
<path d="M138.663 19.521C138.097 19.521 137.639 19.0621 137.639 18.4979V4.3981C137.639 3.8326 138.098 3.375 138.663 3.375C139.228 3.375 139.686 3.8339 139.686 4.3981V18.4966C139.686 19.0621 139.228 19.521 138.663 19.521Z" fill="black"/>
<path d="M161.831 156.653C161.266 156.653 160.808 156.194 160.808 155.63V99.8611C160.808 99.2956 161.267 98.838 161.831 98.838C162.395 98.838 162.854 99.2969 162.854 99.8611V155.629C162.854 156.194 162.397 156.653 161.831 156.653Z" fill="black"/>
<path d="M161.831 57.2107C161.266 57.2107 160.808 56.7518 160.808 56.1876V14.0351C160.808 13.4696 161.267 13.012 161.831 13.012C162.395 13.012 162.854 13.4709 162.854 14.0351V56.1863C162.854 56.7518 162.397 57.2107 161.831 57.2107Z" fill="black"/>
<path d="M187.391 97.1332C197.374 97.1332 208.967 109.525 211.633 118.191C215.367 130.326 211.912 144.68 205.367 154.965C201.3 161.357 197.491 168.358 192.527 174.225C190.278 176.883 188.98 180.084 186.467 182.597C184.034 185.03 184.618 184.389 184.618 181.262C184.618 173.308 182.769 181.271 182.769 184.497C182.769 187.918 196.359 185.884 192.938 185.884" stroke="white" stroke-width="2" stroke-linecap="round"/>
<path d="M94.9426 161.847C89.1603 161.269 81.0979 154.998 77.8396 150.291C74.1437 144.953 74.6039 135.846 74.6039 129.593C74.6039 114.816 74.6839 100.896 84.0542 88.4019C87.9639 83.1889 98.3594 78.4581 104.598 76.7944C106.949 76.1677 108.929 74.9955 111.121 74.021C112.133 73.5713 117.028 72.172 114.819 72.172C113.067 72.172 111.603 71.2475 109.734 71.2475C108.616 71.2475 113.572 70.8739 114.151 71.453C115.072 72.3733 111.583 78.8775 111.583 80.4924" stroke="white" stroke-width="2" stroke-linecap="round"/>
</g>
<defs>
<clipPath id="clip0_113_2114">
<rect width="307" height="278" fill="white"/>
</clipPath>
</defs>
</svg>
