<svg width="282" height="321" viewBox="0 0 282 321" fill="none" xmlns="http://www.w3.org/2000/svg">
<g clip-path="url(#clip0_113_1996)">
<path d="M2.0012 138.016L26.9215 184.113C30.0034 189.813 30.132 196.654 27.268 202.466L12.8019 231.822C7.17602 243.237 13.5012 256.934 25.8391 260.053L68.974 270.96C76.6726 272.907 82.4913 279.223 83.7991 287.056L86.6241 303.973C89.4061 320.629 110.302 326.555 121.413 313.839L189.202 236.259C192.976 231.941 198.42 229.45 204.154 229.419L261.578 229.106C277.987 229.017 287.312 210.296 277.499 197.144L257.698 170.607C250.017 160.314 253.89 145.552 265.635 140.356C280.698 133.69 281.699 112.694 267.337 104.627L249.758 94.7526C242.594 90.7295 238.62 82.736 239.737 74.5964L240.567 68.5459C243.014 50.7093 222.492 38.9737 208.36 50.1285L181.508 71.3217C174.17 77.1139 163.798 77.0496 156.531 71.1667L109.754 33.2961C97.0682 23.0271 78.0863 31.4565 77.198 47.7546L74.6717 94.1075C74.0341 105.802 63.5308 114.449 51.9325 112.827L22.3628 108.696C6.12392 106.427 -5.79694 123.592 2.0012 138.016Z" fill="#4390E3"/>
<path d="M224.216 153.892C226.061 148.439 228.302 143.453 231.001 138.824C235.416 131.257 240.421 127.055 245.886 126.328C246.012 126.312 246.139 126.297 246.265 126.284C247.961 126.108 249.332 126.351 250.341 127.007C252.409 128.356 252.745 131.436 251.873 133.635C250.888 136.125 248.674 138.027 246.638 139.561C244.128 141.451 241.418 143.178 238.798 144.85C235.434 146.996 231.954 149.215 228.818 151.82C228.059 152.45 227.338 153.101 226.649 153.763C220.59 163.208 213.443 176.679 211.572 189.954C211.173 192.789 211.082 195.164 211.136 197.067C212.982 191.962 217.741 184.308 229.918 176.763C233.75 172.864 237.736 169.506 241.956 166.614C249.183 161.664 255.504 160.008 260.755 161.689C260.876 161.728 260.997 161.768 261.116 161.811C262.725 162.378 263.861 163.184 264.491 164.209C265.782 166.312 264.768 169.24 263.039 170.855C261.082 172.684 258.268 173.457 255.771 173.971C252.695 174.605 249.506 175.007 246.422 175.398C242.463 175.898 238.37 176.413 234.418 177.427C233.189 177.742 232 178.112 230.855 178.525C230.854 178.525 230.854 178.526 230.852 178.526C231.438 178.595 232.116 178.706 232.899 178.878C236.263 178.805 239.489 179.008 242.628 179.498C248.543 180.424 252.463 182.562 254.286 185.859C254.328 185.935 254.369 186.012 254.408 186.09C254.942 187.126 255.129 188.058 254.963 188.864C254.619 190.516 252.742 191.497 251.126 191.49C249.295 191.483 247.534 190.548 246.052 189.634C244.225 188.508 242.451 187.213 240.733 185.961C238.531 184.355 236.252 182.693 233.812 181.345C233.579 181.216 233.345 181.092 233.112 180.971C229.817 180.167 228.456 180.47 228.389 180.487C228.214 180.538 228.036 180.537 227.87 180.496C220.652 185.541 216.807 190.411 214.775 193.999C211.801 199.249 211.964 202.949 211.968 202.997C211.969 203.014 211.965 203.032 211.965 203.051C211.965 203.086 211.964 203.121 211.961 203.155C211.959 203.187 211.954 203.217 211.947 203.249C211.941 203.28 211.934 203.312 211.925 203.342C211.916 203.373 211.905 203.404 211.892 203.434C211.881 203.463 211.867 203.491 211.853 203.518C211.838 203.546 211.821 203.574 211.805 203.6C211.787 203.627 211.769 203.653 211.748 203.678C211.729 203.702 211.709 203.725 211.687 203.748C211.664 203.772 211.64 203.793 211.615 203.814C211.59 203.835 211.564 203.855 211.538 203.872C211.513 203.89 211.486 203.906 211.459 203.921C211.427 203.939 211.396 203.954 211.363 203.968C211.346 203.976 211.333 203.984 211.315 203.991C211.305 203.995 211.296 203.993 211.286 203.997C211.223 204.017 211.157 204.032 211.089 204.04C211.076 204.041 211.062 204.046 211.048 204.046C211.045 204.046 211.043 204.047 211.04 204.047C210.967 204.053 210.895 204.046 210.826 204.035C210.817 204.034 210.808 204.035 210.8 204.034C210.8 204.034 210.8 204.034 210.798 204.034C210.797 204.034 210.798 204.034 210.797 204.034C210.721 204.02 210.651 203.995 210.582 203.964C210.566 203.958 210.551 203.95 210.536 203.943C210.469 203.91 210.405 203.871 210.349 203.824C210.341 203.818 210.335 203.811 210.327 203.804C210.275 203.759 210.229 203.709 210.187 203.654C210.178 203.642 210.168 203.63 210.16 203.618C210.117 203.555 210.08 203.486 210.052 203.412C210.05 203.406 210.046 203.402 210.044 203.396C209.974 203.207 208.375 198.655 209.577 189.881C211.377 176.752 218.184 163.492 224.216 153.892Z" fill="black"/>
<path d="M245.327 134.48C246.487 134.48 247.428 133.54 247.428 132.38C247.428 131.22 246.487 130.28 245.327 130.28C244.167 130.28 243.227 131.22 243.227 132.38C243.227 133.54 244.167 134.48 245.327 134.48Z" fill="white"/>
<path d="M256.428 170.206C257.588 170.206 258.528 169.266 258.528 168.106C258.528 166.946 257.588 166.006 256.428 166.006C255.268 166.006 254.328 166.946 254.328 168.106C254.328 169.266 255.268 170.206 256.428 170.206Z" fill="white"/>
<path d="M250.095 188.539C251.062 188.539 251.845 187.756 251.845 186.789C251.845 185.823 251.062 185.039 250.095 185.039C249.129 185.039 248.345 185.823 248.345 186.789C248.345 187.756 249.129 188.539 250.095 188.539Z" fill="white"/>
<path d="M188.046 136.108C187.619 136.108 187.225 135.83 187.096 135.4C186.672 133.979 176.807 100.464 186.42 88.498C188.869 85.4488 192.356 84.0426 196.775 84.3047C194.341 77.8069 193.173 71.0395 193.54 65.3442C193.904 59.6969 195.702 55.2139 198.814 52.0689C196.1 49.5854 193.924 46.8185 192.711 44.2027C190.997 40.5096 191.174 37.279 193.219 34.8623C193.573 34.444 194.199 34.3923 194.617 34.7451C195.036 35.0992 195.087 35.7254 194.735 36.1437C192.827 38.3979 193.562 41.3161 194.513 43.3673C195.709 45.944 197.779 48.5056 200.292 50.756C201.638 49.7013 203.175 48.8496 204.899 48.2108C216.247 43.9961 221.192 47.4522 222.792 49.1331C224.613 51.047 225.133 53.6603 224.151 55.9535C223.008 58.6196 220.151 60.2123 216.51 60.2123C211.137 60.2123 205.112 57.2903 200.339 53.3856C197.893 55.8136 195.901 59.5924 195.522 65.4715C195.155 71.1579 196.408 77.9947 198.98 84.5063C203.881 85.0809 208.03 86.4253 211.334 88.5106C214.433 90.4674 216.618 93.0227 217.488 95.7052C218.299 98.2076 217.853 100.486 216.296 101.796C214.586 103.236 211.902 103.166 208.932 101.603C205.145 99.6099 201.041 94.2272 197.955 87.2065C197.832 86.9243 197.709 86.6408 197.591 86.3573C197.353 86.3358 197.113 86.3157 196.87 86.298C192.971 86.0145 190.057 87.1385 187.968 89.7391C184.304 94.3003 183.304 103.5 185.078 116.344C186.437 126.195 188.974 134.748 189 134.832C189.158 135.357 188.859 135.909 188.334 136.067C188.235 136.095 188.14 136.108 188.046 136.108ZM199.867 86.6256C202.724 93.0479 206.54 98.1017 209.855 99.8468C212.073 101.015 213.955 101.172 215.016 100.279C215.92 99.518 216.143 97.9997 215.598 96.3176C214.392 92.5955 209.558 88.0545 199.867 86.6256ZM201.859 52.0752C206.427 55.6889 212.031 58.2265 216.507 58.2265C219.33 58.2265 221.503 57.0837 222.325 55.1698C222.99 53.6174 222.617 51.8282 221.353 50.4989C218.585 47.5908 212.692 47.4296 205.588 50.068C204.379 50.5178 203.093 51.1592 201.859 52.0752Z" fill="black"/>
<path d="M76.7784 286.686C76.2366 286.686 75.749 286.62 75.3244 286.483C74.4852 286.213 72.6003 285.234 73.2265 281.976C74.8267 273.652 92.1592 268.935 99.5365 267.292C99.849 267.223 100.16 267.155 100.474 267.088C101.353 265.745 102.136 264.357 102.79 262.939C108.564 250.403 101.112 242.428 93.8401 237.945C85.9285 233.067 77.0821 231.183 67.5451 232.347C59.8617 233.286 51.7069 236.189 43.3065 240.977C28.9236 249.176 18.7025 260.193 18.6004 260.303C18.23 260.705 17.6013 260.732 17.1993 260.361C16.7961 259.989 16.7697 259.362 17.1414 258.96C17.2447 258.847 27.6435 247.632 42.2834 239.277C50.9182 234.349 59.3287 231.356 67.2793 230.38C77.2837 229.153 86.5699 231.13 94.8808 236.256C100.945 239.995 104.748 244.475 106.187 249.569C107.434 253.985 106.896 258.763 104.59 263.769C104.157 264.71 103.671 265.638 103.139 266.551C118.065 263.716 134.742 263.439 138.428 267.936C150.107 263.993 159.868 266.246 160.408 266.376C160.941 266.504 161.269 267.041 161.14 267.573C161.012 268.106 160.478 268.432 159.943 268.305C159.819 268.275 150.41 266.12 139.227 269.802C139.308 270.57 139.142 271.5 138.498 272.589C133.995 280.211 125.459 284.467 121.781 283.938C120.299 283.724 119.906 282.781 119.806 282.386C119.112 279.636 124.583 275.584 126.381 274.252C129.722 271.778 133.104 269.981 136.371 268.689C132.443 265.668 116.878 265.722 101.675 268.864C94.7221 279.028 82.611 286.686 76.7784 286.686ZM98.7528 269.508C85.0831 272.712 76.0905 277.592 75.1757 282.353C74.8141 284.236 75.5965 284.488 75.9317 284.596C79.6336 285.788 91.3919 279.076 98.7528 269.508ZM121.731 281.878C121.844 281.948 122.267 282.071 123.159 281.941C126.57 281.446 133.055 277.905 136.792 271.58C137.037 271.165 137.169 270.815 137.226 270.519C134.054 271.746 130.779 273.465 127.564 275.847C121.931 280.019 121.731 281.672 121.731 281.878Z" fill="black"/>
<path d="M55.4315 139.087C47.3133 143.321 40.5282 149.348 36.3249 156.06C32.158 162.713 30.9951 169.292 33.0211 174.652V174.654L35.9292 181.362C36.059 181.758 36.2039 182.149 36.3652 182.534C38.8071 188.354 45.3691 191.475 53.166 192.226C60.5849 192.941 69.0786 190.778 77.2219 186.394C86.1793 181.57 91.339 175.726 95.6028 168.919C100.083 161.764 100.779 156.041 98.3383 150.222C98.177 149.837 98.0006 149.463 97.8116 149.098L94.7662 143.22C94.7208 143.172 94.6755 143.128 94.6301 143.081C92.9921 139.319 89.8169 136.495 85.4283 134.911C77.2925 131.973 66.0785 133.534 55.4315 139.087ZM34.5835 165.359C34.6226 165.18 34.6629 165.003 34.7083 164.824C34.6629 165.003 34.6226 165.182 34.5835 165.359ZM34.8292 164.366C34.8784 164.187 34.9275 164.01 34.9817 163.831C34.9288 164.01 34.8784 164.189 34.8292 164.366ZM34.1728 168.34C34.1829 168.144 34.1917 167.948 34.2081 167.751C34.1904 167.947 34.1829 168.144 34.1728 168.34ZM34.2534 167.337C34.2736 167.153 34.2925 166.969 34.3189 166.784C34.2937 166.969 34.2736 167.153 34.2534 167.337ZM34.3908 166.348C34.421 166.168 34.45 165.989 34.4865 165.808C34.4512 165.989 34.421 166.169 34.3908 166.348ZM35.1291 163.368C35.1871 163.189 35.2476 163.012 35.3106 162.833C35.2476 163.011 35.1871 163.189 35.1291 163.368ZM88.1147 138.568C88.1247 138.575 88.1348 138.582 88.1462 138.589C88.1348 138.582 88.1247 138.574 88.1147 138.568ZM50.1811 144.749C50.3991 144.596 50.6196 144.443 50.8413 144.292C50.6196 144.443 50.3978 144.594 50.1811 144.749ZM47.9206 146.444C48.1222 146.284 48.3251 146.127 48.5292 145.969C48.3251 146.127 48.121 146.284 47.9206 146.444ZM49.0332 145.585C49.2424 145.429 49.4528 145.274 49.6657 145.12C49.4528 145.275 49.2411 145.429 49.0332 145.585ZM56.403 140.948C55.962 141.177 55.5273 141.413 55.0976 141.652C55.5273 141.413 55.962 141.179 56.403 140.948ZM54.6667 141.899C54.3832 142.061 54.0997 142.222 53.82 142.387C54.0984 142.222 54.3832 142.061 54.6667 141.899ZM53.321 142.691C53.0715 142.842 52.8208 142.994 52.5738 143.149C52.8208 142.993 53.0715 142.842 53.321 142.691ZM52.056 143.482C51.8229 143.632 51.5898 143.783 51.3604 143.935C51.591 143.783 51.8229 143.633 52.056 143.482ZM44.3599 149.552C44.181 149.725 44.0046 149.899 43.8294 150.074C44.0046 149.899 44.1797 149.725 44.3599 149.552ZM43.4149 150.489C43.2397 150.668 43.0684 150.848 42.897 151.029C43.0684 150.848 43.2385 150.668 43.4149 150.489ZM42.5102 151.437C42.3363 151.626 42.1675 151.817 41.9974 152.007C42.1662 151.817 42.3351 151.626 42.5102 151.437ZM41.6458 152.4C41.4644 152.608 41.2893 152.818 41.1141 153.028C41.2905 152.817 41.4644 152.608 41.6458 152.4ZM40.8243 153.372C40.5849 153.664 40.3518 153.959 40.125 154.254C40.3531 153.959 40.5849 153.665 40.8243 153.372ZM36.3349 160.353C36.4206 160.172 36.5113 159.989 36.6021 159.808C36.5113 159.989 36.4219 160.172 36.3349 160.353ZM37.3858 158.34C37.4941 158.151 37.6063 157.962 37.7197 157.774C37.6075 157.963 37.4941 158.151 37.3858 158.34ZM88.9034 139.129C88.8757 139.107 88.8467 139.086 88.819 139.064C88.8467 139.086 88.8744 139.107 88.9034 139.129ZM89.5511 139.654C89.5485 139.651 89.546 139.649 89.5435 139.648C89.546 139.65 89.5485 139.651 89.5511 139.654ZM86.6014 137.697C86.5283 137.661 86.454 137.624 86.3809 137.589C86.4552 137.624 86.5283 137.661 86.6014 137.697ZM85.7849 137.315C85.7068 137.281 85.6299 137.247 85.5518 137.213C85.6312 137.246 85.7081 137.281 85.7849 137.315Z" fill="black"/>
<path d="M84.7152 136.884C77.1211 134.143 66.5371 135.662 56.4017 140.948C41.8676 148.528 32.6608 161.632 34.3416 171.527C34.5054 172.491 34.7725 173.423 35.148 174.318C36.5302 177.611 39.3161 180.095 43.2057 181.5C50.7997 184.242 61.3837 182.722 71.5179 177.436C87.467 169.118 97.0027 154.151 92.7716 144.065C91.3919 140.773 88.6048 138.289 84.7152 136.884Z" fill="white"/>
<path d="M78.6004 143.165C73.3147 141.258 65.6312 142.367 58.5487 146.062C48.247 151.435 41.7088 160.69 42.8907 167.651C43.0054 168.324 43.1906 168.974 43.4527 169.599C44.4103 171.881 46.3469 173.603 49.0546 174.581C54.3403 176.489 62.0238 175.379 69.1063 171.684C80.4022 165.793 87.1759 155.236 84.2011 148.148C83.2447 145.866 81.3069 144.143 78.6004 143.165Z" fill="white"/>
<path d="M57.5773 144.2C51.7132 147.258 46.8093 151.615 43.7702 156.47C40.6416 161.466 39.8415 166.416 41.5173 170.412C42.708 173.249 45.068 175.375 48.3427 176.557C54.2509 178.69 62.3766 177.565 70.079 173.547C75.943 170.489 80.847 166.13 83.8861 161.277C86.4174 157.236 87.4242 153.224 86.8294 149.724C86.6896 148.897 86.459 148.1 86.139 147.336C84.9483 144.497 82.5883 142.373 79.3135 141.191C73.4041 139.058 65.2784 140.183 57.5773 144.2ZM69.1063 171.684C62.0226 175.379 54.3391 176.489 49.0546 174.581C46.3469 173.603 44.4103 171.881 43.4527 169.599C43.1906 168.975 43.0041 168.324 42.8907 167.651C41.7076 160.688 48.247 151.435 58.5487 146.062C65.6325 142.368 73.3159 141.258 78.6004 143.166C81.3081 144.143 83.2447 145.866 84.2023 148.148C87.1759 155.236 80.4022 165.793 69.1063 171.684Z" fill="black"/>
<path d="M61.1922 153.699L61.133 153.728C59.4635 151.469 57.4299 151.036 55.6671 151.884C53.8767 152.745 52.9039 154.583 52.6948 156.578C52.5222 157.779 52.5663 158.981 52.8258 160.386L49.8131 161.835L50.6057 164.32L53.4546 162.949C53.5591 163.308 53.6738 163.68 53.7985 164.07C53.9812 164.642 54.174 165.218 54.3718 165.783L51.5116 167.159L52.3042 169.642L55.2765 168.212C55.6961 169.268 56.093 170.167 56.4055 170.757L75.8422 161.404C75.7125 160.704 75.5083 159.766 75.2084 158.621L77.7952 157.376L77.0027 154.892L74.4877 156.103C74.426 155.904 74.363 155.703 74.2975 155.497C74.0429 154.7 73.7859 153.969 73.5276 153.291L76.0968 152.055L75.3042 149.57L72.4994 150.92C71.5544 149.025 70.5767 147.802 69.5511 147.098C68.0844 146.11 66.3632 145.81 64.5715 146.672C62.0175 147.899 60.9503 150.711 61.1922 153.699ZM57.6881 164.053C57.484 163.628 57.2131 162.992 56.8452 161.838C56.0753 159.426 56.4332 157.681 57.9313 156.96C59.3992 156.253 60.8482 157.29 61.7403 160.086L62.2972 161.834L57.6881 164.053ZM70.4771 155.521C70.7669 156.43 70.9673 157.06 71.0769 157.612L65.4976 160.297L64.918 158.478C64.0713 155.824 64.1835 153.309 66.1806 152.349C68.2646 151.344 69.7085 153.11 70.4771 155.521Z" fill="black"/>
<path d="M257.759 228.713C258.942 226.584 258.256 223.904 256.2 222.597C245.337 215.695 221.186 198.337 214.716 194.572C212.882 193.506 210.963 191.86 209.358 190.65C207.172 189.002 205.603 186.967 203.256 185.594C203.257 185.596 203.253 185.596 203.255 185.596C203.255 185.595 203.255 185.594 203.255 185.594C195.67 180.368 188.464 176.161 179.518 173.173C166.955 168.975 152.978 169.613 139.986 170.787C135.389 171.203 130.764 171.934 126.181 171.785C113.273 171.366 100.303 171.421 87.5628 169.016C86.7866 168.759 85.9827 168.953 85.1952 168.892C84.2011 168.931 83.2069 168.82 82.2153 168.972C73.7217 170.262 65.2948 171.823 57.0834 174.216C55.0497 174.812 53.2303 175.787 51.6061 177.014C49.5523 178.567 47.6586 180.263 46.9719 182.644C47.1243 182.338 47.3272 182.059 47.5754 181.804C47.1672 182.536 46.8774 183.337 46.7526 184.233C46.0621 189.216 48.7018 196.028 55.5021 197.997C59.4496 199.142 63.4678 200.11 67.5905 200.702C70.2063 201.076 72.8699 200.701 75.4554 201.258C77.2812 201.249 79.112 201.371 80.9377 201.179C81.317 201.145 81.6937 201.153 82.0729 201.15C82.5064 201.153 81.9621 201.156 81.5324 201.16C77.5269 201.548 73.7443 202.611 70.1584 204.259C69.0508 204.768 67.8879 205.105 66.6644 205.289C60.4803 206.221 54.3378 207.35 48.2054 208.527C47.0487 208.749 46.3167 208.487 45.6463 207.669C44.3926 206.138 42.9814 204.717 41.6446 203.247C38.075 199.32 33.9661 196.209 27.8262 196.596C26.9013 196.655 26.2864 196.258 25.853 195.529C23.7097 191.915 20.7928 188.781 18.1216 185.507C14.3517 180.881 9.07107 179.549 3.95043 181.756C-0.0664539 183.486 -0.730476 185.609 1.69502 188.97C1.94954 189.327 2.2217 189.673 2.47118 190.031C4.80344 193.406 6.76148 196.955 8.47256 200.612C8.85561 201.432 9.27518 202.324 8.92742 203.329C8.37302 203.187 8.07188 202.936 7.81736 202.646C6.0017 200.572 3.63542 199.112 1.15574 197.79C-3.77716 195.165 -8.82093 192.926 -14.8047 193.082C-20.3802 193.229 -23.4256 195.157 -25.0019 199.905C-24.8822 200.416 -24.7524 200.967 -24.6327 201.477C-24.1551 201.977 -23.8439 202.595 -23.282 203.071C-17.6372 207.848 -11.8185 212.482 -6.52773 217.564C-2.44533 221.482 2.1587 224.192 7.72412 226.074C14.8872 228.499 21.9709 231.177 28.407 235.075C31.6855 237.062 35.4681 238.045 39.4648 238.4C43.9126 238.795 48.3591 238.614 52.8057 238.694C57.1275 238.773 61.2804 239.426 65.0793 241.478C67.942 243.026 70.7871 244.598 73.6511 246.142C79.3299 249.203 84.8311 252.537 90.4104 255.75C92.3167 256.85 94.3958 257.676 96.6549 257.686C102.101 257.708 107.54 257.432 112.958 256.893C119.584 256.229 126.198 255.501 132.784 254.541C140.354 253.437 148.028 253.029 155.618 252.083C163.668 251.08 171.672 249.724 179.654 248.324C183.807 247.596 187.59 247.907 191.58 249.332C195.827 250.851 199.489 252.899 202.709 255.767C206.299 258.962 209.858 262.184 213.299 265.513C219.424 271.439 222.983 274.012 227.115 276.421C228.833 277.422 231.04 276.813 232.005 275.074L257.759 228.713ZM63.0722 195.749C63.0722 195.748 63.0709 195.745 63.0709 195.744C63.0721 195.744 63.0734 195.744 63.0747 195.745C63.0747 195.747 63.0734 195.748 63.0722 195.749ZM122.631 203.45C122.611 203.443 122.59 203.434 122.569 203.426C122.579 203.409 122.588 203.39 122.591 203.358C122.61 203.182 122.728 203.375 122.631 203.45Z" fill="black"/>
<path d="M157.857 116.067C155.042 107.355 150.236 99.6552 144.323 94.3871C138.462 89.1657 132.172 86.9166 126.547 88.0165H126.545L119.22 89.0964C118.808 89.1581 118.399 89.2362 117.992 89.3307C111.845 90.7633 107.333 95.7151 105.287 103.276C103.34 110.471 103.834 119.281 106.677 128.082C109.521 136.883 114.389 144.674 120.387 150.017C126.69 155.632 133.546 157.936 139.693 156.504C140.098 156.409 140.498 156.298 140.89 156.172L147.195 154.154C147.25 154.117 147.301 154.081 147.355 154.043C151.338 153.058 154.654 150.4 156.951 146.339C161.21 138.81 161.547 127.492 157.857 116.067ZM135.447 91.1136C135.615 91.1829 135.785 91.2522 135.954 91.3266C135.784 91.251 135.615 91.1817 135.447 91.1136ZM132.576 90.2089C132.768 90.2518 132.959 90.2934 133.152 90.3425C132.961 90.2921 132.769 90.2518 132.576 90.2089ZM133.552 90.4572C133.729 90.5076 133.907 90.558 134.086 90.6147C133.908 90.5567 133.729 90.5076 133.552 90.4572ZM134.503 90.7583C134.675 90.8175 134.847 90.878 135.019 90.9423C134.848 90.8767 134.675 90.8175 134.503 90.7583ZM137.319 91.9843C137.485 92.0712 137.652 92.1607 137.817 92.2527C137.65 92.1607 137.484 92.0712 137.319 91.9843ZM138.248 92.4996C138.413 92.5954 138.578 92.6949 138.743 92.7957C138.578 92.6937 138.413 92.5954 138.248 92.4996ZM153.534 147.64C153.517 147.66 153.501 147.681 153.485 147.701C153.501 147.683 153.517 147.661 153.534 147.64ZM151.176 106.221C151.304 106.439 151.431 106.658 151.556 106.88C151.43 106.658 151.304 106.439 151.176 106.221ZM151.862 107.429C151.985 107.655 152.108 107.882 152.228 108.11C152.106 107.882 151.985 107.654 151.862 107.429ZM152.521 108.67C152.641 108.902 152.756 109.137 152.874 109.372C152.758 109.137 152.641 108.902 152.521 108.67ZM155.859 116.712C155.706 116.239 155.547 115.771 155.382 115.306C155.547 115.772 155.706 116.239 155.859 116.712ZM155.212 114.841C155.101 114.535 154.989 114.227 154.873 113.925C154.989 114.228 155.1 114.535 155.212 114.841ZM149.392 103.399C149.252 103.193 149.11 102.99 148.968 102.789C149.11 102.99 149.252 103.192 149.392 103.399ZM148.629 102.31C148.481 102.107 148.333 101.908 148.183 101.709C148.331 101.908 148.481 102.107 148.629 102.31ZM147.844 101.259C147.687 101.055 147.527 100.857 147.369 100.658C147.527 100.857 147.686 101.055 147.844 101.259ZM147.04 100.246C146.865 100.032 146.687 99.8253 146.511 99.6174C146.688 99.8253 146.865 100.033 147.04 100.246ZM146.22 99.2734C145.971 98.9886 145.721 98.7102 145.467 98.4355C145.719 98.7102 145.971 98.9886 146.22 99.2734ZM145.382 98.3422C145.101 98.0398 144.817 97.745 144.532 97.4565C144.818 97.745 145.101 98.0398 145.382 98.3422ZM139.171 93.0641C139.336 93.1699 139.5 93.2783 139.665 93.3892C139.501 93.2783 139.336 93.1699 139.171 93.0641ZM140.088 93.679C140.253 93.7949 140.417 93.9133 140.581 94.0343C140.417 93.9133 140.253 93.7936 140.088 93.679ZM140.997 94.3417C141.163 94.4677 141.328 94.5988 141.492 94.7298C141.328 94.5975 141.163 94.4677 140.997 94.3417ZM141.898 95.0511C142.065 95.1885 142.233 95.3321 142.4 95.4745C142.233 95.3334 142.065 95.1897 141.898 95.0511ZM142.787 95.8084C142.961 95.9608 143.133 96.1209 143.305 96.2784C143.133 96.1209 142.961 95.9621 142.787 95.8084ZM132.222 90.1283C131.97 90.0779 131.718 90.0376 131.466 90.001C131.717 90.0376 131.969 90.0779 132.222 90.1283ZM151.583 149.609C151.586 149.607 151.588 149.604 151.591 149.603C151.588 149.605 151.586 149.608 151.583 149.609ZM154.006 147.03C154.054 146.964 154.102 146.898 154.15 146.831C154.102 146.896 154.055 146.963 154.006 147.03ZM154.52 146.289C154.567 146.218 154.614 146.148 154.659 146.076C154.614 146.148 154.566 146.217 154.52 146.289Z" fill="black"/>
<path d="M155.123 145.306C159.097 138.279 159.371 127.59 155.859 116.713C150.819 101.116 139.442 89.8438 129.405 89.8438C128.427 89.8438 127.463 89.9508 126.518 90.1713C123.039 90.9815 120.125 93.3125 118.089 96.9123C114.115 103.941 113.84 114.629 117.353 125.506C122.883 142.621 136.04 154.53 146.693 152.047C150.172 151.236 153.088 148.906 155.123 145.306Z" fill="white"/>
<path d="M149.955 138.225C152.721 133.334 152.914 125.573 150.458 117.972C146.886 106.917 138.859 98.9194 131.796 98.9194C131.115 98.9194 130.442 98.9938 129.783 99.1475C127.372 99.7095 125.35 101.33 123.933 103.836C121.167 108.727 120.974 116.488 123.43 124.09C127.347 136.214 136.62 144.66 144.107 142.915C146.516 142.352 148.538 140.73 149.955 138.225Z" fill="white"/>
<path d="M152.455 117.325C150.423 111.032 146.948 105.468 142.671 101.659C138.27 97.7374 133.524 96.1196 129.304 97.1024C126.306 97.8004 123.817 99.771 122.103 102.801C119.011 108.268 118.759 116.469 121.43 124.734C123.464 131.028 126.938 136.592 131.214 140.401C134.775 143.572 138.561 145.238 142.112 145.238C142.95 145.238 143.775 145.145 144.582 144.957C147.579 144.259 150.069 142.287 151.782 139.257C154.876 133.791 155.126 125.591 152.455 117.325ZM123.429 124.089C120.973 116.487 121.166 108.726 123.931 103.835C125.349 101.33 127.371 99.708 129.782 99.1461C130.441 98.9924 131.113 98.918 131.795 98.918C138.857 98.918 146.886 106.914 150.457 117.97C152.913 125.572 152.72 133.334 149.954 138.224C148.538 140.729 146.514 142.35 144.104 142.912C136.618 144.659 127.346 136.213 123.429 124.089Z" fill="black"/>
<path d="M142.486 119.299L142.469 119.236C144.976 117.968 145.743 116.035 145.203 114.157C144.653 112.247 143.004 110.981 141.072 110.44C139.917 110.068 138.725 109.91 137.297 109.931L136.373 106.718L133.79 107.083L134.664 110.121C134.292 110.165 133.907 110.214 133.501 110.272C132.906 110.357 132.307 110.451 131.717 110.551L130.839 107.5L128.258 107.866L129.17 111.036C128.059 111.273 127.105 111.513 126.472 111.722L132.436 132.451C133.148 132.441 134.107 132.395 135.287 132.292L136.08 135.05L138.661 134.685L137.888 132.002C138.095 131.974 138.304 131.947 138.518 131.916C139.347 131.799 140.111 131.668 140.823 131.527L141.612 134.268L144.195 133.902L143.334 130.911C145.36 130.297 146.73 129.537 147.597 128.644C148.816 127.363 149.4 125.716 148.85 123.807C148.064 121.084 145.472 119.561 142.486 119.299ZM132.865 114.11C133.318 113.98 133.991 113.82 135.189 113.65C137.696 113.296 139.356 113.94 139.816 115.538C140.267 117.103 139.002 118.358 136.097 118.768L134.281 119.025L132.865 114.11ZM139.135 128.148C138.19 128.281 137.536 128.373 136.974 128.388L135.261 122.439L137.15 122.172C139.909 121.781 142.369 122.314 142.983 124.443C143.623 126.666 141.641 127.794 139.135 128.148Z" fill="black"/>
<path d="M77.5193 38.7279C68.4435 39.9324 60.0066 43.2777 53.762 48.1489C47.5729 52.9772 44.2314 58.7619 44.3032 64.4924V64.4949L44.0499 71.8949C44.0373 72.3119 44.0399 72.7277 44.06 73.1448C44.3649 79.4486 48.4272 84.7771 55.497 88.1476C62.2254 91.3543 70.9799 92.4518 80.1489 91.2346C89.318 90.0174 97.8557 86.6268 104.19 81.6863C110.845 76.4939 114.343 70.1636 114.038 63.8598C114.018 63.4428 113.98 63.0308 113.927 62.6238L113.074 56.0592C113.049 55.9987 113.021 55.9407 112.995 55.8828C112.741 51.7878 110.722 48.0481 107.139 45.0594C100.494 39.5129 89.4225 37.1478 77.5193 38.7279ZM47.5414 58.9521C47.6183 58.7707 47.6926 58.5893 47.777 58.4103C47.6926 58.5905 47.6183 58.772 47.5414 58.9521ZM47.961 58.0374C48.0429 57.8711 48.1235 57.706 48.2117 57.5409C48.1235 57.706 48.0429 57.8723 47.961 58.0374ZM50.1395 54.6077C50.2554 54.4602 50.3726 54.3128 50.4923 54.1654C50.3726 54.3116 50.2554 54.459 50.1395 54.6077ZM50.8124 53.7849C50.9371 53.64 51.0631 53.4951 51.1929 53.3514C51.0644 53.4951 50.9371 53.64 50.8124 53.7849ZM107.802 48.6491C107.82 48.6693 107.837 48.6882 107.855 48.7083C107.839 48.6894 107.82 48.6693 107.802 48.6491ZM70.6485 42.2534C70.9056 42.1828 71.1651 42.116 71.4247 42.0492C71.1651 42.116 70.9056 42.1841 70.6485 42.2534ZM66.6329 43.531C66.8698 43.4441 67.1092 43.3596 67.3486 43.2765C67.1092 43.3609 66.8711 43.4453 66.6329 43.531ZM67.9446 43.0736C68.1878 42.993 68.4335 42.9136 68.6792 42.8355C68.4335 42.9136 68.189 42.993 67.9446 43.0736ZM75.8385 41.1093C75.5172 41.1635 75.1959 41.2176 74.8771 41.2781C75.1946 41.2176 75.5172 41.1635 75.8385 41.1093ZM74.3038 41.3928C74.0165 41.4495 73.7292 41.5062 73.4457 41.5679C73.7305 41.5062 74.0178 41.4495 74.3038 41.3928ZM66.047 43.749C65.8127 43.8384 65.5796 43.9292 65.3477 44.0199C65.5796 43.9279 65.8127 43.8372 66.047 43.749ZM64.7757 44.2492C64.5451 44.3437 64.317 44.4407 64.0902 44.5377C64.3183 44.4407 64.5451 44.3437 64.7757 44.2492ZM63.5358 44.7784C63.3078 44.8792 63.0835 44.9825 62.8592 45.0871C63.0848 44.9838 63.309 44.8792 63.5358 44.7784ZM62.3288 45.3353C62.1032 45.4437 61.8802 45.5546 61.6584 45.6654C61.8802 45.5546 62.1019 45.4437 62.3288 45.3353ZM61.1532 45.9187C60.9251 46.0359 60.7008 46.1568 60.4765 46.2778C60.7021 46.1568 60.9251 46.0359 61.1532 45.9187ZM60.0129 46.5273C59.771 46.6608 59.5353 46.7982 59.2985 46.9355C59.5353 46.7982 59.7722 46.6608 60.0129 46.5273ZM58.9091 47.1598C58.584 47.3526 58.2653 47.5504 57.9503 47.7495C58.2653 47.5504 58.584 47.3538 58.9091 47.1598ZM52.3042 52.1859C52.4478 52.0448 52.594 51.905 52.7414 51.7651C52.594 51.905 52.4466 52.0448 52.3042 52.1859ZM53.1194 51.411C53.2731 51.2699 53.4319 51.1313 53.5894 50.9927C53.4306 51.1313 53.2731 51.2712 53.1194 51.411ZM53.98 50.6538C54.1463 50.5127 54.3164 50.3741 54.4878 50.2355C54.3164 50.3741 54.145 50.5127 53.98 50.6538ZM54.8834 49.9129C55.0649 49.7693 55.2526 49.6294 55.4391 49.4883C55.2526 49.6294 55.0649 49.7705 54.8834 49.9129ZM55.8309 49.1934C56.0414 49.0397 56.2568 48.8885 56.4723 48.7373C56.2568 48.8885 56.0401 49.0385 55.8309 49.1934ZM47.399 59.2873C47.3045 59.5267 47.2201 59.7674 47.1382 60.008C47.2188 59.7674 47.3045 59.5267 47.399 59.2873Z" fill="black"/>
<path d="M105.792 46.6672C99.5932 41.4949 89.1264 39.305 77.7952 40.8082C61.5463 42.9653 48.4146 52.1331 46.6115 62.0064C46.4364 62.9678 46.3683 63.9355 46.4149 64.9057C46.5876 68.474 48.3579 71.7601 51.5331 74.4086C57.7323 79.5797 68.1991 81.7708 79.529 80.2664C97.3605 77.9001 111.437 67.0943 110.909 56.1701C110.737 52.6031 108.968 49.317 105.792 46.6672Z" fill="white"/>
<path d="M97.8973 50.48C93.583 46.8802 85.9827 45.2977 78.0624 46.3485C66.5447 47.8769 57.2371 54.3382 55.9683 61.2858C55.846 61.9574 55.7982 62.6315 55.8309 63.3081C55.9506 65.7802 57.1816 68.0608 59.3917 69.9042C63.7059 73.504 71.3062 75.0866 79.2266 74.0357C91.8568 72.3599 101.83 64.7546 101.458 57.0761C101.34 54.6053 100.107 52.3234 97.8973 50.48Z" fill="white"/>
<path d="M77.7864 44.2669C71.2306 45.1363 65.1322 47.5555 60.6164 51.0785C55.9683 54.7047 53.5251 59.0832 53.7343 63.4101C53.883 66.4845 55.3748 69.288 58.0485 71.5182C62.8718 75.5414 70.893 77.2625 79.5051 76.1197C86.0608 75.2503 92.1592 72.8311 96.6751 69.3081C100.435 66.3749 102.753 62.9489 103.391 59.4562C103.541 58.6322 103.599 57.8031 103.558 56.9765C103.41 53.9021 101.918 51.0986 99.2442 48.8684C94.4197 44.844 86.3985 43.1241 77.7864 44.2669ZM79.2279 74.0357C71.3088 75.0865 63.7084 73.5027 59.3929 69.9041C57.1829 68.0608 55.9519 65.7789 55.8322 63.308C55.7994 62.6314 55.8473 61.9573 55.9695 61.2857C57.2383 54.3381 66.546 47.8768 78.0636 46.3484C85.9827 45.2976 93.583 46.8801 97.8985 50.48C100.109 52.3233 101.341 54.6052 101.459 57.0761C101.831 64.7545 91.8581 72.3599 79.2279 74.0357Z" fill="black"/>
<path d="M77.9376 54.4288L77.8721 54.4351C77.0758 51.7413 75.3118 50.6388 73.3663 50.8341C71.3894 51.0319 69.8472 52.4267 68.9677 54.2298C68.3944 55.2995 68.0265 56.4436 67.7896 57.8523L64.4632 58.1849L64.3586 60.7918L67.5048 60.4768C67.4809 60.8498 67.4607 61.2391 67.4443 61.6474C67.4204 62.2471 67.4053 62.8545 67.3977 63.453L64.2389 63.7692L64.1343 66.3736L67.4166 66.046C67.4506 67.1813 67.5149 68.1628 67.6081 68.8243L89.071 66.6786C89.1882 65.9767 89.3167 65.0242 89.4263 63.8461L92.2827 63.5601L92.3873 60.9556L89.6103 61.2328C89.6203 61.0249 89.6304 60.8145 89.6392 60.5978C89.6733 59.7612 89.6821 58.9863 89.6707 58.2605L92.5083 57.977L92.6128 55.3701L89.5158 55.68C89.2764 53.5758 88.7749 52.0928 88.0516 51.0798C87.0109 49.6509 85.4951 48.7803 83.5182 48.9781C80.6958 49.2616 78.7327 51.5384 77.9376 54.4288ZM71.1059 62.9616C71.0593 62.4928 71.0227 61.8024 71.0706 60.5928C71.1714 58.0627 72.1051 56.5456 73.7582 56.3806C75.3786 56.218 76.3866 57.6885 76.2694 60.6205L76.1963 62.4538L71.1059 62.9616ZM86.0419 59.3139C86.0041 60.2677 85.9777 60.9267 85.8907 61.4836L79.7293 62.0997L79.8062 60.1933C79.9171 57.4087 80.8835 55.084 83.0872 54.8635C85.3893 54.633 86.1427 56.7863 86.0419 59.3139Z" fill="black"/>
<path d="M129.124 57.6355L133.326 74.8484L151.055 79.654L146.853 62.4424L129.124 57.6355Z" fill="white"/>
<path d="M153.517 80.8838L148.747 61.3425C148.656 60.9708 148.372 60.6784 148.002 60.5776L127.958 55.1445C127.599 55.0475 127.216 55.147 126.95 55.4066C126.684 55.6662 126.575 56.0467 126.663 56.407L131.433 75.9484C131.524 76.3201 131.809 76.6124 132.178 76.7132L152.222 82.1463C152.313 82.1715 152.405 82.1829 152.497 82.1829C152.768 82.1829 153.031 82.0783 153.23 81.8842C153.496 81.6259 153.606 81.2442 153.517 80.8838ZM133.326 74.8484L129.124 57.6368L146.853 62.4424L151.055 79.654L133.326 74.8484Z" fill="black"/>
<path d="M148.893 61.9434L153.095 79.1563L166.615 66.7214L162.413 49.5098L148.893 61.9434Z" fill="white"/>
<path d="M168.803 66.8248L164.032 47.2834C163.944 46.9231 163.672 46.6358 163.316 46.5274C162.961 46.4203 162.576 46.5085 162.301 46.7593L147.016 60.8183C146.735 61.0766 146.616 61.4685 146.707 61.8402L151.478 81.3815C151.566 81.7419 151.838 82.0292 152.193 82.1375C152.293 82.1678 152.396 82.1829 152.497 82.1829C152.756 82.1829 153.011 82.0859 153.207 81.9057L168.493 67.8479C168.775 67.5883 168.893 67.1965 168.803 66.8248ZM153.095 79.1564L148.893 61.9448L162.414 49.5098L166.616 66.7214L153.095 79.1564Z" fill="black"/>
<path d="M143.29 43.4165L129.808 55.6461L147.442 60.4265L160.888 48.0583L143.29 43.4165Z" fill="white"/>
<path d="M164.031 47.2796C163.939 46.9079 163.65 46.6143 163.28 46.5173L143.274 41.2404C142.928 41.1484 142.563 41.2391 142.3 41.4785L126.976 55.3801C126.691 55.6384 126.571 56.0302 126.661 56.4032C126.75 56.7762 127.036 57.071 127.406 57.1718L147.451 62.6049C147.541 62.6301 147.633 62.6415 147.725 62.6415C147.985 62.6415 148.239 62.5444 148.436 62.3643L163.721 48.3052C164.004 48.0456 164.123 47.6525 164.031 47.2796ZM129.808 55.6459L143.289 43.4164L160.888 48.0582L147.442 60.4264L129.808 55.6459Z" fill="black"/>
<path d="M20.4602 118.166L24.472 135.423L42.1486 140.424L38.1355 123.166L20.4602 118.166Z" fill="white"/>
<path d="M44.5968 141.68L40.0406 122.087C39.9537 121.714 39.6714 121.419 39.3035 121.315L19.3199 115.661C18.9633 115.56 18.579 115.656 18.3094 115.912C18.041 116.168 17.9276 116.548 18.0108 116.91L22.5669 136.503C22.6539 136.876 22.9361 137.17 23.304 137.275L43.2876 142.929C43.3821 142.955 43.4779 142.968 43.5736 142.968C43.8395 142.968 44.1003 142.866 44.2981 142.678C44.5678 142.421 44.6799 142.042 44.5968 141.68ZM24.472 135.423L20.4602 118.166L38.1355 123.167L42.1473 140.424L24.472 135.423Z" fill="black"/>
<path d="M40.1805 122.691L44.1936 139.948L57.8494 127.661L53.8363 110.404L40.1805 122.691Z" fill="white"/>
<path d="M60.0355 127.79L55.4794 108.197C55.395 107.835 55.1266 107.544 54.7713 107.433C54.4172 107.321 54.0304 107.406 53.7532 107.654L38.3144 121.544C38.0309 121.8 37.9074 122.19 37.9944 122.562L42.5505 142.155C42.6349 142.517 42.9033 142.808 43.2586 142.919C43.362 142.951 43.4678 142.968 43.5736 142.968C43.8294 142.968 44.0802 142.875 44.2755 142.698L59.7142 128.808C59.999 128.552 60.1225 128.163 60.0355 127.79ZM44.1936 139.948L40.1805 122.691L53.8363 110.404L57.8494 127.661L44.1936 139.948Z" fill="black"/>
<path d="M34.7814 104.102L21.1671 116.183L38.7466 121.157L52.3281 108.938L34.7814 104.102Z" fill="white"/>
<path d="M55.4783 108.193C55.3901 107.82 55.1054 107.524 54.7349 107.422L34.7878 101.926C34.4451 101.831 34.0785 101.917 33.8126 102.153L18.3373 115.885C18.05 116.14 17.9253 116.53 18.011 116.905C18.0966 117.279 18.3789 117.576 18.7493 117.681L38.7329 123.334C38.8274 123.361 38.9232 123.374 39.0189 123.374C39.2747 123.374 39.5255 123.28 39.7208 123.104L55.1595 109.214C55.4443 108.959 55.5665 108.567 55.4783 108.193ZM21.1673 116.183L34.7815 104.102L52.3283 108.936L38.7468 121.156L21.1673 116.183Z" fill="black"/>
<path d="M24.0751 27.7181L40.159 36.5923V18.8754L24.0751 10.0012V27.7181Z" fill="white"/>
<path d="M41.7164 17.3356L23.5333 7.30349C23.2083 7.12457 22.8126 7.12961 22.4926 7.31861C22.1725 7.50761 21.976 7.85159 21.976 8.22329V28.3379C21.976 28.721 22.1839 29.0725 22.519 29.2577L40.7021 39.2898C40.8596 39.3768 41.0347 39.4209 41.2099 39.4209C41.3938 39.4209 41.5791 39.3717 41.7441 39.2747C42.0642 39.0857 42.2607 38.7417 42.2607 38.37V18.2554C42.2595 17.8724 42.0516 17.5208 41.7164 17.3356ZM40.159 36.5922L24.0751 27.718V10.0011L40.159 18.8753V36.5922Z" fill="black"/>
<path d="M42.2595 36.5923L58.3421 27.7181V10.0012L42.2595 18.8754V36.5923Z" fill="white"/>
<path d="M59.9259 7.3187C59.6059 7.12844 59.209 7.1234 58.8852 7.30358L40.7021 17.3357C40.3669 17.5209 40.159 17.8725 40.159 18.2555V38.3714C40.159 38.7431 40.3556 39.0871 40.6756 39.2761C40.8407 39.3731 41.0247 39.4222 41.2099 39.4222C41.385 39.4222 41.5589 39.3794 41.7177 39.2912L59.9007 29.2591C60.2359 29.0739 60.4438 28.7223 60.4438 28.3393V8.22212C60.4425 7.85042 60.246 7.5077 59.9259 7.3187ZM58.3421 27.7181L42.2582 36.5923V18.8754L58.3421 10.0012V27.7181Z" fill="black"/>
<path d="M41.2086 -0.454346L25.2129 8.22957L41.2086 17.0559L57.2056 8.22957L41.2086 -0.454346Z" fill="white"/>
<path d="M59.8932 7.29981L41.7101 -2.57103C41.3976 -2.74113 41.0209 -2.74113 40.7084 -2.57103L22.5253 7.29981C22.1889 7.48251 21.9772 7.83531 21.976 8.21835C21.9747 8.60265 22.1826 8.95545 22.519 9.14192L40.7021 19.174C40.8596 19.261 41.0347 19.3051 41.2099 19.3051C41.385 19.3051 41.5589 19.2622 41.7177 19.174L59.9007 9.14192C60.2371 8.95671 60.445 8.60265 60.4438 8.21835C60.4413 7.83531 60.2308 7.48251 59.8932 7.29981ZM25.2129 8.22969L41.2099 -0.454233L57.2068 8.22969L41.2099 17.0547L25.2129 8.22969Z" fill="black"/>
<path d="M33.166 23.2476C33.1396 22.668 32.662 22.2258 32.0686 22.2472C31.489 22.2737 31.0417 22.7663 31.0681 23.3447L35.2047 112.039C35.2312 112.602 35.6961 113.04 36.253 113.04C36.2694 113.04 36.2858 113.04 36.3022 113.039C36.8818 113.013 37.3291 112.52 37.3026 111.942L33.166 23.2476Z" fill="black"/>
<path d="M145.057 49.9105L50.5956 22.2888C50.0374 22.1262 49.4553 22.4463 49.2928 23.0019C49.1302 23.5589 49.449 24.141 50.0059 24.3048L144.467 51.9265C144.565 51.9555 144.665 51.9693 144.762 51.9693C145.217 51.9693 145.635 51.672 145.77 51.2133C145.932 50.6564 145.613 50.073 145.057 49.9105Z" fill="black"/>
<path d="M140.978 68.086C140.669 67.5959 140.02 67.4472 139.53 67.7572L49.5082 124.445C49.0168 124.753 48.8707 125.402 49.1794 125.892C49.3785 126.209 49.7199 126.382 50.0689 126.382C50.2605 126.382 50.4532 126.331 50.6271 126.221L140.649 69.5338C141.14 69.2251 141.288 68.5762 140.978 68.086Z" fill="black"/>
<path d="M225.765 246.641C222.355 254.243 219.773 262.217 218.232 270.514C217.45 274.722 216.969 279.278 218.894 283.101C220.996 287.275 225.62 289.691 230.236 290.422C241.515 292.207 252.746 285.242 259.297 275.89C265.848 266.537 268.644 255.137 271.205 244.01C273.221 235.249 275.203 226.358 279.051 218.182C280.701 214.677 290.403 201.129 285.757 197.655C279.402 192.721 261.116 198.234 249.453 211.112C239.844 221.72 231.595 233.64 225.765 246.641Z" fill="black"/>
<path d="M271.685 207.984C271.243 207.608 270.58 207.662 270.206 208.105C254.062 227.119 243.778 248.42 237.993 262.94C237.961 263.019 237.931 263.097 237.9 263.177C237.902 254.143 239.337 235.176 250.183 221.134C250.519 220.701 250.439 220.077 250.004 219.743C249.571 219.408 248.947 219.489 248.613 219.922C240.684 230.186 237.707 242.869 236.606 251.702C235.598 259.784 235.918 266.061 236.058 267.975C231.208 281.051 229.231 290.102 229.209 290.202C229.087 290.769 229.448 291.328 230.015 291.45C230.02 291.451 230.025 291.452 230.03 291.452C230.592 291.565 231.141 291.205 231.262 290.643C231.305 290.447 233.238 281.706 237.978 268.919C238.008 268.858 238.032 268.793 238.05 268.726C239.798 264.021 241.927 258.776 244.478 253.209C247.175 253.342 255.307 252.43 263.101 238.365C263.367 237.886 263.193 237.282 262.714 237.017C262.235 236.751 261.63 236.925 261.366 237.403C254.863 249.137 248.239 250.99 245.412 251.199C251.645 237.949 260.246 223.08 271.806 209.464C272.182 209.021 272.128 208.359 271.685 207.984Z" fill="white"/>
</g>
<defs>
<clipPath id="clip0_113_1996">
<rect width="282" height="321" fill="white"/>
</clipPath>
</defs>
</svg>
