<svg width="300" height="298" viewBox="0 0 300 298" fill="none" xmlns="http://www.w3.org/2000/svg">
<g clip-path="url(#clip0_125_155)">
<path d="M4.08412 129.49L36.9813 172.284C41.0488 177.575 42.3013 184.511 40.3415 190.891L30.4413 223.115C26.5918 235.646 35.2681 248.538 48.3273 249.689L93.9799 253.711C102.128 254.429 109.079 259.899 111.693 267.65L117.339 284.39C122.898 300.872 145.119 303.474 154.334 288.721L210.556 198.717C213.685 193.708 218.814 190.283 224.641 189.31L282.985 179.582C299.658 176.802 306.073 156.234 293.938 144.469L269.452 120.728C259.954 111.52 261.474 95.8728 272.566 88.6631C286.792 79.4158 284.367 57.8996 268.441 52.0501L248.946 44.8898C241.003 41.9721 235.65 34.4938 235.452 26.0343L235.304 19.7461C234.869 1.20596 212.076 -7.36389 199.533 6.29492L175.7 32.2472C169.186 39.34 158.628 40.9741 150.275 36.1836L96.4991 5.33839C81.9149 -3.0264 63.9926 8.65705 65.7603 25.3762L70.7883 72.929C72.0563 84.9252 62.7934 95.4406 50.7322 95.6937L19.9844 96.3387C3.09903 96.6904 -6.2106 116.099 4.08412 129.49Z" fill="#4390E3"/>
<path d="M88.9117 74.6968C83.388 66.2749 76.0485 59.5091 68.2444 55.644C60.3066 51.7127 52.8062 51.2364 47.1151 54.2981L46.631 54.5122L40.0702 57.278C39.651 57.4649 39.2383 57.6661 38.8346 57.8854C32.7242 61.1989 29.3757 67.7752 29.4069 76.4035C29.4367 84.6138 32.5309 93.8261 38.1182 102.345C43.7056 110.865 51.1488 117.719 59.0776 121.645C67.4099 125.771 75.3646 126.218 81.4749 122.904C81.8786 122.684 82.2692 122.451 82.6495 122.203L88.7573 118.22C88.8546 118.109 88.9468 117.999 89.0363 117.887C92.8664 115.676 95.5374 111.943 96.7678 107.055C99.0909 97.8365 96.1526 85.739 88.9117 74.6968Z" fill="black"/>
<path d="M48.0989 56.223C44.6206 58.1088 42.1923 61.4521 41.0748 65.8895C38.8983 74.5334 41.7276 85.9884 48.6427 96.5336C57.2696 109.688 70.0472 117.956 80.264 117.956C82.9403 117.956 85.44 117.389 87.645 116.194C91.1233 114.308 93.5517 110.965 94.6691 106.527C96.8457 97.8834 94.0163 86.4284 87.1012 75.8831C76.216 59.2847 58.7194 50.463 48.0989 56.223Z" fill="white"/>
<path d="M88.9117 74.6968C83.388 66.275 76.0485 59.5091 68.2444 55.6441C60.2846 51.7024 52.7647 51.2339 47.0696 54.3216C43.0462 56.5033 40.248 60.3203 38.9787 65.3613C36.6568 74.5813 39.5939 86.6775 46.836 97.7198C52.3598 106.142 59.6992 112.908 67.5033 116.773C71.9901 118.995 76.3367 120.113 80.2952 120.113C83.3595 120.113 86.1927 119.444 88.6781 118.095C92.7015 115.913 95.4998 112.096 96.7691 107.055C99.091 97.8366 96.1526 85.7391 88.9117 74.6968ZM94.6704 106.528C93.5529 110.966 91.1246 114.309 87.6463 116.195C85.4412 117.39 82.9415 117.958 80.2653 117.958C70.0485 117.956 57.2696 109.689 48.644 96.5349C41.7276 85.9896 38.8995 74.5346 41.0761 65.8908C42.1935 61.4534 44.6219 58.11 48.1002 56.2242C58.7206 50.4643 76.216 59.2846 87.1038 75.8844C94.0176 86.4283 96.8469 97.8846 94.6704 106.528Z" fill="black"/>
<path d="M59.3462 63.574C57.4734 63.574 55.7251 63.9711 54.1833 64.8057C51.7679 66.1152 50.0794 68.4436 49.3007 71.539C47.7834 77.5598 49.8471 85.8831 54.6829 93.2576C62.4001 105.024 74.7597 111.297 82.2329 107.246C84.6482 105.937 86.3367 103.608 87.1155 100.513C88.6327 94.4919 86.5691 86.1686 81.7332 78.7941C75.6072 69.4546 66.5572 63.574 59.3462 63.574Z" fill="white"/>
<path d="M83.5425 77.6093C79.5541 71.5287 74.2523 66.641 68.6104 63.8479C62.8141 60.9783 57.3254 60.6435 53.1528 62.9057C50.191 64.5112 48.1339 67.3146 47.2033 71.0122C45.5187 77.7014 47.6394 86.4621 52.875 94.4466C56.8634 100.527 62.1652 105.415 67.8071 108.208C71.066 109.821 74.2263 110.634 77.1115 110.634C79.3581 110.634 81.4386 110.14 83.2647 109.15C86.2265 107.545 88.2836 104.741 89.2142 101.044C90.8988 94.3531 88.7781 85.5938 83.5425 77.6093ZM87.1168 100.514C86.3368 103.61 84.6482 105.938 82.2342 107.247C74.761 111.298 62.4014 105.026 54.6843 93.259C49.8471 85.8832 47.7848 77.5613 49.302 71.5404C50.082 68.445 51.7705 66.1166 54.1846 64.8071C55.7252 63.9712 57.4747 63.5754 59.3475 63.5754C66.5585 63.5754 75.6099 69.456 81.7345 78.7968C86.5704 86.17 88.6327 94.4933 87.1168 100.514Z" fill="black"/>
<path d="M73.1829 83.7197L73.1452 83.6574C75.5658 81.891 75.8656 79.7314 74.7286 77.8572C73.5735 75.952 71.3814 74.9137 69.0803 74.6839C67.6916 74.4971 66.3236 74.5399 64.7441 74.8111L62.7999 71.6067L60.0367 72.4412L61.8758 75.4717C61.476 75.5821 61.0607 75.7028 60.6285 75.8326C59.9926 76.0246 59.354 76.2284 58.7272 76.4361L56.8803 73.3926L54.1197 74.2258L56.0393 77.3887C54.8738 77.8313 53.8835 78.2505 53.2397 78.5802L65.7863 99.2592C66.5741 99.1242 67.6254 98.9087 68.9051 98.5946L70.5741 101.346L73.3347 100.513L71.7111 97.8367C71.933 97.7718 72.1562 97.7056 72.386 97.6368C73.2724 97.3695 74.0836 97.0982 74.8325 96.8256L76.4911 99.559L79.2543 98.7244L77.4438 95.7406C79.5178 94.7439 80.8208 93.7082 81.5269 92.6205C82.5146 91.0657 82.6924 89.237 81.536 87.333C79.8877 84.6153 76.5742 83.4718 73.1829 83.7197ZM61.0205 79.9637C61.4864 79.7482 62.1873 79.4627 63.4696 79.0759C66.151 78.2661 68.1783 78.6515 69.1452 80.2453C70.0926 81.8067 69.0478 83.3433 65.9394 84.2817L63.9965 84.8683L61.0205 79.9637ZM71.9927 93.5784C70.983 93.8834 70.2821 94.0949 69.663 94.2091L66.0614 88.2727L68.0822 87.6627C71.0336 86.771 73.9162 86.8995 75.2049 89.0228C76.5508 91.2409 74.6728 92.7685 71.9927 93.5784Z" fill="black"/>
<path d="M276.559 133.363C276.28 132.997 275.99 132.647 275.687 132.311L270.814 126.885C270.69 126.808 270.567 126.732 270.443 126.661C267.669 123.216 263.57 121.149 258.553 120.683C249.087 119.804 237.583 124.562 227.783 133.412C220.308 140.163 214.748 148.454 212.127 156.76C209.465 165.195 210.139 172.669 214.023 177.822L214.324 178.29L218.064 184.349C218.312 184.734 218.576 185.112 218.853 185.477C223.066 191.007 230.077 193.305 238.598 191.95C246.706 190.66 255.335 186.19 262.895 179.362C270.457 172.534 276.087 164.127 278.75 155.689C281.55 146.822 280.771 138.893 276.559 133.363Z" fill="black"/>
<path d="M268.982 128.295C266.585 125.148 262.91 123.26 258.353 122.837C257.665 122.774 256.964 122.741 256.254 122.741C247.799 122.741 237.866 127.22 229.231 135.018C214.499 148.322 208.469 166.965 215.789 176.576C218.186 179.723 221.862 181.61 226.419 182.033C235.296 182.864 246.18 178.305 255.539 169.853C270.273 156.548 276.302 137.906 268.982 128.295Z" fill="white"/>
<path d="M270.703 126.984C267.93 123.342 263.729 121.164 258.553 120.683C249.087 119.804 237.583 124.562 227.783 133.412C220.308 140.163 214.748 148.454 212.127 156.76C209.453 165.23 210.143 172.733 214.069 177.887C216.843 181.528 221.044 183.708 226.22 184.188C226.968 184.257 227.726 184.292 228.497 184.292C237.491 184.292 247.965 179.61 256.991 171.458C264.466 164.708 270.026 156.417 272.648 148.111C275.32 139.642 274.629 132.138 270.703 126.984ZM226.42 182.033C221.863 181.61 218.188 179.723 215.79 176.576C208.47 166.965 214.5 148.322 229.232 135.018C237.867 127.22 247.8 122.741 256.255 122.741C256.965 122.741 257.666 122.773 258.354 122.837C262.911 123.261 266.587 125.148 268.984 128.295C276.304 137.906 270.274 156.548 255.542 169.853C246.181 178.305 235.297 182.864 226.42 182.033Z" fill="black"/>
<path d="M260.972 135.017C259.307 132.831 256.747 131.52 253.57 131.224C247.382 130.651 239.479 133.965 232.934 139.876C222.491 149.306 218.186 162.482 223.339 169.247C225.004 171.432 227.563 172.743 230.742 173.039C236.921 173.612 244.832 170.298 251.378 164.388C261.819 154.956 266.125 141.781 260.972 135.017Z" fill="white"/>
<path d="M262.693 133.706C260.651 131.026 257.566 129.423 253.77 129.07C246.904 128.429 238.571 131.871 231.484 138.269C226.088 143.143 222.072 149.132 220.177 155.136C218.23 161.304 218.742 166.779 221.618 170.555C223.659 173.234 226.744 174.837 230.542 175.19C231.086 175.24 231.637 175.265 232.198 175.265C238.72 175.265 246.302 171.881 252.828 165.989C258.224 161.115 262.24 155.125 264.135 149.122C266.08 142.957 265.569 137.481 262.693 133.706ZM230.741 173.039C227.562 172.743 225.003 171.432 223.338 169.247C218.186 162.482 222.49 149.307 232.933 139.876C239.478 133.965 247.382 130.651 253.569 131.224C256.746 131.52 259.307 132.831 260.971 135.017C266.122 141.781 261.818 154.956 251.376 164.386C244.83 170.298 236.92 173.61 230.741 173.039Z" fill="black"/>
<path d="M239.112 147.57L239.056 147.616C236.939 145.494 234.759 145.531 233.081 146.943C231.375 148.377 230.686 150.703 230.812 153.01C230.839 154.411 231.092 155.757 231.602 157.276L228.734 159.689L229.983 162.291L232.695 160.01C232.865 160.387 233.048 160.779 233.244 161.187C233.531 161.787 233.831 162.386 234.133 162.973L231.409 165.265L232.656 167.865L235.487 165.483C236.103 166.567 236.669 167.482 237.094 168.066L255.603 152.495C255.348 151.738 254.974 150.731 254.467 149.515L256.93 147.443L255.683 144.843L253.289 146.858C253.191 146.65 253.091 146.439 252.987 146.223C252.586 145.388 252.196 144.627 251.81 143.929L254.257 141.871L253.008 139.269L250.337 141.515C249.033 139.619 247.81 138.49 246.628 137.959C244.939 137.222 243.105 137.327 241.401 138.761C238.968 140.808 238.347 144.258 239.112 147.57ZM237.266 160.164C236.982 159.737 236.593 159.088 236.013 157.88C234.8 155.354 234.87 153.292 236.297 152.093C237.695 150.917 239.373 151.714 240.777 154.642L241.654 156.472L237.266 160.164ZM249.035 147.234C249.492 148.185 249.808 148.844 250.015 149.44L244.702 153.91L243.788 152.007C242.454 149.227 242.139 146.359 244.04 144.76C246.027 143.088 247.824 144.709 249.035 147.234Z" fill="black"/>
<path d="M188.806 136.614C189.198 135.506 189.2 134.256 188.726 133.087L186.23 126.906C185.837 125.947 185.187 125.167 184.375 124.63C184.217 123.135 183.397 121.736 182.019 120.897L176.339 117.416C175.503 116.904 174.57 116.663 173.655 116.678C173.379 116.684 173.097 116.706 172.828 116.756C172.478 116.3 172.028 115.899 171.507 115.578L165.83 112.099C164.308 111.167 162.484 111.142 160.992 111.882C159.709 110.732 157.852 110.271 156.088 110.852L149.759 112.929C149.715 112.942 149.665 112.962 149.622 112.976C148.471 113.389 147.564 114.187 146.993 115.173C146.305 116.368 146.105 117.826 146.567 119.235C147.029 120.636 148.052 121.7 149.311 122.253C150.36 122.714 151.569 122.815 152.748 122.462C152.792 122.448 152.828 122.435 152.874 122.422L159.203 120.345C159.441 120.268 159.66 120.174 159.874 120.066C160.099 120.272 160.341 120.453 160.609 120.615L166.29 124.098C167.272 124.7 168.388 124.92 169.456 124.798C169.569 124.788 169.676 124.775 169.789 124.752C170.147 125.206 170.592 125.611 171.114 125.933L176.631 129.311C176.679 129.76 176.789 130.212 176.967 130.653L179.466 136.834C179.829 137.736 180.426 138.474 181.168 139.002C181.47 139.227 181.802 139.411 182.144 139.557C183.32 140.059 184.691 140.106 185.971 139.593C187.353 139.031 188.348 137.921 188.806 136.614ZM181.773 126.603C181.34 127.309 180.667 127.773 179.917 127.955C179.573 128.039 179.209 128.064 178.854 128.017C179.119 127.224 179.721 126.547 180.557 126.211C181.045 126.012 181.557 125.959 182.042 126.022C181.984 126.222 181.89 126.418 181.773 126.603ZM171.36 120.221C171.463 120.056 171.576 119.9 171.707 119.769C171.699 120.221 171.59 120.67 171.373 121.089C171.341 121.153 171.305 121.223 171.267 121.284C171.163 121.45 171.052 121.604 170.922 121.737C170.93 121.216 171.071 120.697 171.36 120.221ZM158.369 118.519L152.767 120.353L152.457 120.456C150.888 120.968 149.193 120.111 148.679 118.54C148.162 116.971 149.02 115.272 150.591 114.759L150.896 114.661L156.501 112.822C157.481 112.497 158.509 112.711 159.273 113.301C159.162 113.437 159.054 113.587 158.962 113.746C158.066 115.209 158.011 116.948 158.665 118.405C158.567 118.447 158.466 118.482 158.369 118.519ZM167.142 122.277L161.842 119.029C161.717 118.952 161.602 118.867 161.495 118.775C161.732 118.49 161.934 118.183 162.096 117.855C162.679 116.718 162.82 115.347 162.387 114.043C162.348 113.928 162.306 113.813 162.264 113.704C163.116 113.351 164.121 113.395 164.971 113.916L170.274 117.166C170.478 117.29 170.663 117.437 170.828 117.602C170.297 117.977 169.83 118.467 169.468 119.061C168.772 120.201 168.584 121.51 168.845 122.721C168.262 122.744 167.673 122.601 167.142 122.277ZM172.348 124.344C172.143 124.218 171.956 124.073 171.798 123.911C172.333 123.53 172.797 123.04 173.161 122.447C173.856 121.311 174.042 120.009 173.784 118.8C174.364 118.769 174.952 118.911 175.485 119.236L180.786 122.483C181.316 122.809 181.711 123.268 181.945 123.797C181.211 123.741 180.452 123.855 179.727 124.148C178.343 124.709 177.349 125.819 176.885 127.123L172.348 124.344ZM185.133 137.527C184.368 137.837 183.547 137.812 182.843 137.51C182.135 137.214 181.544 136.638 181.233 135.872L178.908 130.12C179.466 130.177 180.032 130.138 180.571 130.012C181.811 129.715 182.943 128.939 183.664 127.762C183.795 127.547 183.91 127.327 184.002 127.098C184.186 127.32 184.339 127.58 184.453 127.865L186.786 133.628C187.41 135.161 186.668 136.908 185.133 137.527Z" fill="black"/>
<path d="M146.671 124.875L144.013 112.266C143.988 112.148 144.064 112.031 144.182 112.007L151.358 110.495C151.476 110.47 151.592 110.545 151.617 110.664L154.275 123.272C154.3 123.39 154.225 123.507 154.106 123.532L146.931 125.044C146.812 125.07 146.696 124.993 146.671 124.875Z" fill="black"/>
<path d="M183.196 145.282L194.252 138.665C194.356 138.603 194.39 138.469 194.328 138.365L190.561 132.073C190.499 131.969 190.365 131.936 190.261 131.998L179.205 138.614C179.101 138.677 179.067 138.812 179.129 138.916L182.896 145.208C182.957 145.31 183.092 145.344 183.196 145.282Z" fill="black"/>
<path d="M73.7461 160.837C74.9531 161.689 75.6761 162.189 75.6761 162.189C75.6761 162.189 78.9532 168.93 73.7461 160.837Z" fill="#969696"/>
<path d="M77.802 158.599C77.5969 158.545 77.3945 158.478 77.192 158.42C77.3945 158.48 77.5969 158.545 77.802 158.599Z" fill="black"/>
<path d="M76.2302 158.129C76.0186 158.059 75.8097 157.979 75.5994 157.905C75.8097 157.979 76.0173 158.059 76.2302 158.129Z" fill="black"/>
<path d="M91.8241 105.75C91.5308 105.72 91.2427 105.689 90.9416 105.667C91.2414 105.689 91.5321 105.72 91.8241 105.75Z" fill="black"/>
<path d="M93.4491 105.952C93.1701 105.909 92.8949 105.865 92.6081 105.829C92.8949 105.867 93.1714 105.911 93.4491 105.952Z" fill="black"/>
<path d="M74.6883 157.57C74.469 157.483 74.2535 157.385 74.0368 157.293C74.2535 157.387 74.469 157.483 74.6883 157.57Z" fill="black"/>
<path d="M82.656 159.457C82.4587 159.44 82.264 159.412 82.0668 159.39C82.2628 159.412 82.4587 159.44 82.656 159.457Z" fill="black"/>
<path d="M81.0181 159.265C80.8234 159.236 80.63 159.197 80.4353 159.164C80.63 159.196 80.8234 159.236 81.0181 159.265Z" fill="black"/>
<path d="M108.394 115.372C108.555 115.607 108.728 115.833 108.882 116.073C108.729 115.833 108.555 115.607 108.394 115.372Z" fill="black"/>
<path d="M71.7098 156.188C71.48 156.064 71.2568 155.932 71.0297 155.802C71.2568 155.932 71.4813 156.066 71.7098 156.188Z" fill="black"/>
<path d="M105.515 111.829C105.733 112.057 105.963 112.277 106.173 112.512C105.963 112.275 105.733 112.056 105.515 111.829Z" fill="black"/>
<path d="M94.9754 106.221C94.7145 106.169 94.4575 106.114 94.1876 106.068C94.4563 106.114 94.7145 106.168 94.9754 106.221Z" fill="black"/>
<path d="M73.1803 156.923C72.9544 156.818 72.7338 156.704 72.5106 156.594C72.7338 156.703 72.9544 156.818 73.1803 156.923Z" fill="black"/>
<path d="M85.9591 159.554C85.7566 159.561 85.5542 159.554 85.3517 159.556C85.5529 159.554 85.7553 159.561 85.9591 159.554Z" fill="black"/>
<path d="M70.2821 155.367C70.0498 155.225 69.8239 155.073 69.5968 154.925C69.8239 155.074 70.0498 155.226 70.2821 155.367Z" fill="black"/>
<path d="M96.3991 106.539C96.1577 106.479 95.9215 106.419 95.6697 106.364C95.9202 106.418 96.159 106.479 96.3991 106.539Z" fill="black"/>
<path d="M64.8427 149.797C62.5143 145.468 61.0659 141.157 60.5208 136.93C61.0659 141.156 62.513 145.467 64.8427 149.797Z" fill="black"/>
<path d="M108.075 147.75L110.389 149.395L108.077 147.748C108.076 147.748 108.076 147.749 108.075 147.75Z" fill="black"/>
<path d="M98.9028 107.259C98.7068 107.194 98.5147 107.131 98.3083 107.066C98.5147 107.129 98.7081 107.194 98.9028 107.259Z" fill="black"/>
<path d="M86.4588 105.695C86.1395 105.721 85.8254 105.739 85.5009 105.776C85.8241 105.739 86.1395 105.721 86.4588 105.695Z" fill="black"/>
<path d="M83.5697 106.065C83.8941 106.005 84.2121 105.966 84.5327 105.918C84.2121 105.965 83.8941 106.004 83.5697 106.065Z" fill="black"/>
<path d="M89.2687 159.261C89.0805 159.289 88.891 159.304 88.7028 159.328C88.891 159.304 89.0805 159.288 89.2687 159.261Z" fill="black"/>
<path d="M100.885 107.986C100.743 107.929 100.606 107.873 100.452 107.813C100.606 107.872 100.744 107.929 100.885 107.986Z" fill="black"/>
<path d="M84.303 159.554C84.1044 159.549 83.9058 159.531 83.7073 159.521C83.9058 159.531 84.1044 159.548 84.303 159.554Z" fill="black"/>
<path d="M113.187 128.404C113.837 134.721 112.332 141.131 108.902 146.524C112.331 141.134 113.837 134.722 113.187 128.404Z" fill="black"/>
<path d="M99.9644 107.629C99.7944 107.567 99.6283 107.504 99.4466 107.441C99.627 107.504 99.7957 107.567 99.9644 107.629Z" fill="black"/>
<path d="M80.4756 106.843C80.1784 106.933 79.8837 107.011 79.5852 107.114C79.885 107.011 80.1797 106.935 80.4756 106.843Z" fill="black"/>
<path d="M78.3068 107.611C78.0537 107.712 77.8033 107.796 77.5502 107.907C77.8033 107.796 78.055 107.712 78.3068 107.611Z" fill="black"/>
<path d="M82.5353 106.293C82.2225 106.364 81.9123 106.423 81.5969 106.505C81.9123 106.422 82.2225 106.364 82.5353 106.293Z" fill="black"/>
<path d="M97.7113 106.889C97.492 106.826 97.2765 106.762 97.0468 106.701C97.2752 106.762 97.492 106.826 97.7113 106.889Z" fill="black"/>
<path d="M103.863 110.239C104.111 110.458 104.368 110.67 104.607 110.897C104.368 110.67 104.111 110.46 103.863 110.239Z" fill="black"/>
<path d="M64.8427 149.797C62.513 145.467 61.0659 141.156 60.5208 136.93C60.4299 136.226 60.3637 135.524 60.3235 134.826C60.3235 134.825 60.3235 134.823 60.3235 134.822C59.6785 124.008 65.3502 114.317 75.4969 108.9C76.1835 108.534 76.8688 108.204 77.5502 107.907C77.8033 107.796 78.055 107.712 78.3068 107.611C78.7338 107.439 79.1621 107.26 79.5852 107.114C79.8837 107.011 80.1784 106.933 80.4756 106.842C80.8494 106.727 81.2257 106.602 81.5956 106.505C81.911 106.422 82.2212 106.363 82.534 106.293C82.8792 106.216 83.2271 106.129 83.5697 106.065C83.8942 106.005 84.2121 105.966 84.5327 105.918C84.8559 105.87 85.1817 105.813 85.5009 105.777C85.8241 105.74 86.1395 105.721 86.4588 105.696C86.7664 105.672 87.0778 105.639 87.3803 105.625C87.6995 105.609 88.0084 105.611 88.3212 105.606C88.6132 105.6 88.9091 105.59 89.1973 105.594C89.5088 105.598 89.8086 105.616 90.1136 105.629C90.3913 105.641 90.6717 105.648 90.9442 105.668C91.2453 105.689 91.5334 105.721 91.8268 105.751C92.0889 105.777 92.355 105.799 92.6107 105.831C92.8975 105.868 93.174 105.912 93.4517 105.955C93.6983 105.992 93.9501 106.027 94.1902 106.069C94.4601 106.117 94.7171 106.17 94.978 106.222C95.2116 106.269 95.4478 106.314 95.6737 106.365C95.9242 106.421 96.1617 106.48 96.4031 106.54C96.6198 106.593 96.8417 106.646 97.0507 106.702C97.2804 106.765 97.4959 106.827 97.7152 106.89C97.9164 106.949 98.1214 107.007 98.3135 107.067C98.5199 107.132 98.712 107.195 98.9079 107.26C99.0922 107.321 99.2779 107.382 99.4518 107.443C99.6335 107.507 99.7996 107.569 99.9696 107.632C100.136 107.693 100.304 107.755 100.459 107.815C100.612 107.874 100.75 107.93 100.891 107.987C100.985 108.025 101.077 108.062 101.164 108.1C101.103 108.059 101.048 108.01 100.987 107.969C100.918 107.924 100.847 107.874 100.778 107.829C96.4485 104.95 91.4789 103.321 86.3653 103.097C85.6891 103.068 85.0207 103.063 84.329 103.081C82.6547 103.132 80.9467 103.334 79.2608 103.685C67.6046 106.145 58.6947 115.73 57.0957 127.532C56.7453 130.118 56.7595 132.749 57.1372 135.349C57.2255 135.961 57.3319 136.561 57.4578 137.168C57.7213 138.412 58.0704 139.653 58.4961 140.843C58.5117 140.883 58.5272 140.922 58.5428 140.963C60.086 145.265 62.7077 149.17 66.1263 152.26C66.2197 152.344 66.3197 152.422 66.4144 152.505L66.0886 151.966C65.6435 151.24 65.2308 150.518 64.8427 149.797Z" fill="black"/>
<path d="M140.423 131.932C141.008 130.78 141.805 130.045 142.506 129.477L142.637 129.37C143.294 128.832 143.47 128.688 143.007 126.494L142.262 122.958C141.583 119.745 141.517 119.419 141.517 119.419L140.754 115.78C140.625 115.185 140.474 114.47 140.297 113.633L140.027 112.355C139.566 110.17 139.326 110.104 138.526 109.882C137.758 109.672 136.599 109.354 135.448 108.418C134.605 107.743 133.919 106.798 133.43 105.624C132.305 102.916 130.553 100.639 128.607 99.346C128.567 99.3188 128.525 99.2915 128.485 99.2655C127.254 98.479 126.268 98.3129 125.801 98.4115C125.394 98.4972 124.95 98.6244 124.464 98.7607C121.545 99.5783 117.135 100.815 110.498 98.3804C109.017 97.8353 107.46 97.115 105.871 96.2402C102.986 94.6399 99.3804 93.4446 95.1467 92.6827C89.3959 91.6561 83.5269 91.6548 77.7072 92.6814C77.4451 92.7268 77.2127 92.7697 76.9973 92.8164C61.4021 96.1026 49.4123 108.317 46.4272 123.939C46.1222 125.533 45.9133 127.179 45.8068 128.834C45.69 130.653 45.7069 132.507 45.8535 134.344C45.9288 135.365 46.0586 136.434 46.252 137.636C46.2637 137.709 46.2715 137.781 46.278 137.853C46.3792 138.421 46.4791 138.932 46.5856 139.441C51.0593 160.67 71.9758 174.305 93.2051 169.832C93.5491 169.756 93.9761 169.657 94.4199 169.538C99.7451 168.167 104.699 166.002 109.169 163.096C113.061 160.572 116.118 157.864 118.257 155.044C121.316 151.012 124.554 148.308 128.161 146.779C130.562 145.754 132.697 145.449 134.256 145.226C134.757 145.154 135.215 145.091 135.627 145.004C137.11 144.692 139.812 141.096 139.691 135.333C139.661 134.061 139.906 132.918 140.423 131.932ZM112.7 151.042C109.404 155.624 105.09 159.291 100.16 161.728C97.6205 162.988 94.9027 163.928 92.0838 164.52C83.1375 166.41 73.8045 164.554 66.2691 159.545C64.8855 158.625 63.5617 157.598 62.3119 156.471C58.234 152.785 55.097 148.129 53.2345 143C53.2177 142.961 53.2021 142.922 53.1891 142.883C52.6583 141.414 52.2222 139.881 51.8938 138.33C51.7342 137.559 51.6109 136.855 51.5123 136.16C51.0593 133.043 51.0437 129.881 51.4642 126.771C53.3838 112.596 64.0848 101.086 78.0901 98.1286C80.1083 97.7081 82.1498 97.4667 84.1654 97.407C84.9961 97.3862 85.7891 97.3927 86.6016 97.4252C92.8508 97.699 98.9365 99.7315 104.135 103.247C104.142 103.253 104.15 103.258 104.158 103.263C110.297 107.442 114.804 113.347 117.191 120.338C117.631 121.628 118 122.97 118.288 124.327C120.239 133.584 118.202 143.321 112.7 151.042Z" fill="white"/>
<path d="M145.367 135.209C145.367 135.206 145.367 135.204 145.367 135.202C145.356 134.773 145.438 134.595 145.469 134.535C145.572 134.336 145.707 134.193 146.097 133.877L146.234 133.766C148.398 131.994 149.544 129.964 148.565 125.331L147.818 121.795C147.163 118.682 147.081 118.294 147.075 118.26L146.306 114.597C146.174 113.991 146.025 113.285 145.851 112.46L145.585 111.201C144.606 106.551 142.736 105.155 140.031 104.409C139.465 104.253 139.233 104.178 139.01 103.999C138.993 103.986 138.842 103.856 138.67 103.442C137.064 99.5824 134.558 96.3805 131.542 94.483C129.203 92.9905 126.75 92.4129 124.632 92.8555C124.11 92.9658 123.544 93.1216 122.93 93.2942C120.451 93.9886 117.366 94.8529 112.455 93.0515C111.243 92.6063 109.948 92.0054 108.616 91.2721C105.192 89.3733 100.999 87.969 96.1487 87.0956C89.7346 85.9495 83.1985 85.9482 76.7338 87.0891C76.3925 87.1475 76.0758 87.2072 75.8045 87.2669C57.9861 91.0216 44.2662 104.997 40.8515 122.873C40.5024 124.696 40.2636 126.579 40.1403 128.47C40.0066 130.561 40.0248 132.691 40.1922 134.779C40.2766 135.922 40.4207 137.126 40.6335 138.459C40.6504 138.6 40.6724 138.739 40.701 138.877C40.797 139.454 40.9086 140.031 41.0294 140.609C43.5589 152.612 50.679 162.492 60.1691 168.799C69.8888 175.26 82.0966 177.974 94.4018 175.382C94.843 175.285 95.3518 175.164 95.858 175.03C101.757 173.512 107.275 171.099 112.259 167.858C116.702 164.978 120.242 161.821 122.778 158.476C125.221 155.255 127.708 153.139 130.383 152.005C132.105 151.269 133.675 151.044 135.06 150.846C135.695 150.755 136.275 150.669 136.798 150.559C141.845 149.496 145.529 142.898 145.367 135.209ZM135.627 145.004C135.215 145.091 134.755 145.155 134.256 145.226C132.698 145.449 130.563 145.755 128.161 146.78C124.554 148.308 121.314 151.012 118.257 155.044C116.118 157.865 113.061 160.572 109.169 163.096C104.699 166.002 99.7451 168.168 94.4199 169.538C93.9761 169.656 93.5491 169.756 93.2051 169.832C71.9745 174.305 51.0593 160.671 46.5855 139.441C46.4791 138.933 46.3792 138.421 46.2779 137.853C46.2715 137.78 46.2624 137.707 46.252 137.636C46.0586 136.435 45.9288 135.365 45.8535 134.345C45.7069 132.508 45.69 130.653 45.8068 128.834C45.9132 127.179 46.1222 125.533 46.4272 123.94C49.4123 108.317 61.4021 96.1028 76.9973 92.8166C77.2127 92.7699 77.445 92.727 77.7072 92.6816C83.5256 91.655 89.3946 91.6563 95.1467 92.6829C99.3791 93.4447 102.985 94.6401 105.871 96.2404C107.46 97.1151 109.017 97.8342 110.498 98.3806C117.134 100.814 121.544 99.5785 124.464 98.7608C124.95 98.6246 125.394 98.4987 125.801 98.4117C126.268 98.3131 127.253 98.4792 128.485 99.2657C128.525 99.2917 128.567 99.3189 128.607 99.3462C130.553 100.64 132.305 102.917 133.43 105.624C133.919 106.8 134.605 107.743 135.448 108.418C136.599 109.355 137.758 109.672 138.526 109.882C139.325 110.106 139.566 110.172 140.027 112.355L140.297 113.633C140.474 114.469 140.625 115.185 140.754 115.78L141.517 119.419C141.517 119.419 141.585 119.745 142.262 122.958L143.007 126.494C143.47 128.688 143.294 128.833 142.637 129.37L142.506 129.478C141.805 130.043 141.008 130.781 140.423 131.932C139.906 132.918 139.661 134.062 139.691 135.334C139.81 141.096 137.11 144.691 135.627 145.004Z" fill="black"/>
<path d="M117.19 120.335C114.803 113.344 110.296 107.44 104.157 103.26C104.149 103.255 104.141 103.25 104.133 103.245C98.9339 99.7289 92.8495 97.6977 86.6003 97.4226C85.7891 97.3888 84.9948 97.3836 84.1642 97.4044C82.1486 97.4641 80.107 97.7068 78.0888 98.126C64.0835 101.083 53.3825 112.592 51.463 126.769C51.0425 129.878 51.058 133.04 51.511 136.158C51.6109 136.852 51.7342 137.558 51.8926 138.328C52.2222 139.879 52.657 141.411 53.1878 142.881C53.2021 142.921 53.2177 142.958 53.2333 142.997C55.0957 148.128 58.2327 152.783 62.3106 156.468C63.5604 157.597 64.883 158.624 66.2678 159.543C73.8032 164.551 83.1362 166.407 92.0825 164.517C94.9015 163.927 97.6205 162.987 100.159 161.726C105.088 159.288 109.403 155.62 112.698 151.038H112.699C118.201 143.317 120.237 133.58 118.285 124.321C118 122.967 117.63 121.625 117.19 120.335ZM108.075 147.75C105.37 151.528 101.763 154.602 97.64 156.642C95.5283 157.691 93.2661 158.472 90.9144 158.965C90.3667 159.081 89.819 159.179 89.2687 159.261C89.0805 159.29 88.891 159.304 88.7028 159.328C88.3407 159.375 87.9786 159.425 87.6165 159.457C87.4075 159.475 87.1986 159.48 86.9896 159.495C86.6457 159.518 86.3018 159.544 85.9591 159.554C85.7567 159.561 85.5542 159.554 85.3517 159.556C85.0026 159.558 84.6522 159.565 84.3043 159.554C84.1058 159.549 83.9072 159.531 83.7086 159.521C83.3582 159.502 83.0065 159.488 82.6573 159.457C82.4601 159.44 82.2654 159.412 82.0681 159.389C81.7177 159.352 81.3672 159.315 81.0194 159.265C80.8247 159.236 80.6314 159.197 80.4367 159.164C80.0901 159.105 79.7436 159.049 79.401 158.978C79.2011 158.937 79.0038 158.885 78.8052 158.839C78.4704 158.763 78.1342 158.687 77.8033 158.599C77.5982 158.545 77.3958 158.478 77.1933 158.42C76.8714 158.327 76.5495 158.234 76.2316 158.129C76.02 158.059 75.8111 157.979 75.6008 157.905C75.2958 157.796 74.9908 157.689 74.6897 157.571C74.4703 157.484 74.2549 157.387 74.0382 157.295C73.7526 157.173 73.4645 157.055 73.1829 156.924C72.957 156.818 72.7364 156.704 72.5132 156.594C72.2458 156.461 71.9758 156.33 71.7124 156.189C71.4826 156.066 71.2594 155.933 71.0323 155.803C70.7818 155.661 70.53 155.519 70.2834 155.369C70.0511 155.227 69.8253 155.075 69.5981 154.926C69.3645 154.773 69.1296 154.624 68.8999 154.463C68.6715 154.303 68.4482 154.134 68.2237 153.967C68.0031 153.802 67.7798 153.641 67.5631 153.47C67.3437 153.297 67.1309 153.116 66.9167 152.935C66.7467 152.792 66.5754 152.65 66.408 152.503C66.3132 152.42 66.2133 152.342 66.1198 152.258C62.7012 149.167 60.0782 145.262 58.5364 140.961C58.5221 140.921 58.5052 140.881 58.4896 140.84C58.0652 139.65 57.7148 138.409 57.4513 137.166C57.3268 136.559 57.219 135.959 57.1308 135.346C56.7531 132.747 56.7388 130.116 57.0892 127.529C58.6882 115.726 67.5981 106.142 79.2543 103.682C80.9402 103.332 82.6482 103.129 84.3225 103.079C85.0143 103.061 85.6827 103.066 86.3589 103.094C91.4738 103.319 96.4433 104.949 100.772 107.826C100.841 107.872 100.912 107.921 100.981 107.966C101.042 108.008 101.098 108.056 101.157 108.098C101.47 108.314 101.767 108.547 102.068 108.774C102.347 108.984 102.635 109.185 102.905 109.405C103.235 109.672 103.545 109.959 103.862 110.239C104.11 110.458 104.367 110.67 104.606 110.897C104.921 111.197 105.214 111.515 105.514 111.828C105.732 112.056 105.962 112.275 106.172 112.51C106.469 112.843 106.743 113.192 107.024 113.537C107.214 113.772 107.417 113.998 107.6 114.238C107.879 114.605 108.133 114.991 108.394 115.372C108.555 115.607 108.728 115.833 108.882 116.073C109.152 116.495 109.396 116.935 109.643 117.372C109.763 117.586 109.898 117.793 110.014 118.009C110.302 118.552 110.563 119.111 110.816 119.673C110.872 119.797 110.938 119.915 110.992 120.039C111.294 120.734 111.569 121.444 111.815 122.168C112.183 123.244 112.492 124.366 112.732 125.498C112.934 126.461 113.086 127.431 113.186 128.403C113.836 134.721 112.331 141.132 108.9 146.522C108.637 146.936 108.362 147.344 108.076 147.745L110.388 149.392L108.075 147.75Z" fill="black"/>
<path d="M127.27 114.44C125.769 114.754 124.296 113.795 123.979 112.295C123.664 110.796 124.624 109.324 126.123 109.007C127.625 108.691 129.095 109.65 129.411 111.15C129.727 112.65 128.769 114.122 127.27 114.44Z" fill="black"/>
<path d="M131.621 135.082C130.119 135.397 128.647 134.438 128.332 132.938C128.014 131.437 128.977 129.967 130.475 129.649C131.974 129.332 133.447 130.294 133.764 131.793C134.078 133.292 133.12 134.765 131.621 135.082Z" fill="black"/>
<path d="M229.079 168.405C228.842 168.255 228.615 168.118 228.385 167.981C228.613 168.118 228.843 168.255 229.079 168.405Z" fill="black"/>
<path d="M239.696 179.592C239.542 179.303 239.373 179.034 239.211 178.755C239.373 179.034 239.54 179.303 239.696 179.592Z" fill="black"/>
<path d="M240.615 181.482C240.486 181.19 240.341 180.917 240.205 180.634C240.341 180.917 240.485 181.189 240.615 181.482Z" fill="black"/>
<path d="M237.578 176.233C237.381 175.965 237.175 175.715 236.973 175.458C237.175 175.715 237.382 175.965 237.578 176.233Z" fill="black"/>
<path d="M238.677 177.845C238.499 177.565 238.311 177.303 238.127 177.034C238.311 177.303 238.499 177.564 238.677 177.845Z" fill="black"/>
<path d="M210.744 220.851C210.478 220.768 210.21 220.688 209.946 220.597C210.21 220.689 210.478 220.768 210.744 220.851Z" fill="black"/>
<path d="M209.18 220.313C208.922 220.216 208.661 220.121 208.406 220.016C208.661 220.122 208.921 220.216 209.18 220.313Z" fill="black"/>
<path d="M236.415 174.752C236.202 174.499 235.984 174.264 235.767 174.023C235.984 174.264 236.202 174.501 236.415 174.752Z" fill="black"/>
<path d="M216.266 221.99H216.267L216.876 221.864L216.266 221.99Z" fill="black"/>
<path d="M207.653 219.686C207.402 219.574 207.151 219.467 206.903 219.349C207.149 219.467 207.402 219.574 207.653 219.686Z" fill="black"/>
<path d="M225.955 166.659C225.774 166.569 225.605 166.491 225.438 166.414C225.605 166.491 225.775 166.571 225.955 166.659Z" fill="black"/>
<path d="M229.54 168.704C229.778 168.859 230.014 169.014 230.258 169.182C230.014 169.014 229.778 168.86 229.54 168.704Z" fill="black"/>
<path d="M226.912 167.147C226.704 167.037 226.51 166.938 226.315 166.841C226.51 166.938 226.706 167.037 226.912 167.147Z" fill="black"/>
<path d="M243.081 191.89C243.561 200.035 240.68 207.599 234.881 213.108C240.678 207.6 243.561 200.036 243.081 191.89Z" fill="black"/>
<path d="M233.967 172.172C233.731 171.95 233.495 171.745 233.259 171.538C233.495 171.745 233.732 171.95 233.967 172.172Z" fill="black"/>
<path d="M200.708 215.293C200.509 215.123 200.307 214.957 200.112 214.781C200.307 214.958 200.509 215.123 200.708 215.293Z" fill="black"/>
<path d="M231.475 170.067C231.231 169.881 230.993 169.71 230.751 169.537C230.993 169.71 231.233 169.881 231.475 170.067Z" fill="black"/>
<path d="M227.958 167.726C227.732 167.596 227.518 167.478 227.304 167.36C227.518 167.478 227.733 167.597 227.958 167.726Z" fill="black"/>
<path d="M212.338 221.299C212.066 221.232 211.793 221.167 211.523 221.091C211.793 221.167 212.066 221.23 212.338 221.299Z" fill="black"/>
<path d="M216.341 165.767C216.68 165.733 217.02 165.727 217.358 165.706C217.02 165.727 216.678 165.735 216.341 165.767Z" fill="black"/>
<path d="M209.781 167.222C210.011 167.142 210.247 167.082 210.478 167.007C210.247 167.082 210.012 167.14 209.781 167.222Z" fill="black"/>
<path d="M211.936 166.559C212.228 166.482 212.525 166.429 212.818 166.362C212.525 166.43 212.229 166.482 211.936 166.559Z" fill="black"/>
<path d="M214.125 166.075C214.447 166.016 214.773 165.985 215.097 165.939C214.773 165.984 214.447 166.016 214.125 166.075Z" fill="black"/>
<path d="M223.073 165.923C223.427 165.974 223.78 166.05 224.133 166.114C223.78 166.049 223.427 165.974 223.073 165.923Z" fill="black"/>
<path d="M213.962 221.652C213.685 221.6 213.408 221.551 213.132 221.491C213.408 221.552 213.685 221.6 213.962 221.652Z" fill="black"/>
<path d="M218.576 165.64C218.924 165.633 219.274 165.654 219.623 165.661C219.273 165.653 218.924 165.633 218.576 165.64Z" fill="black"/>
<path d="M215.611 221.911C215.331 221.875 215.049 221.842 214.77 221.798C215.049 221.842 215.33 221.875 215.611 221.911Z" fill="black"/>
<path d="M191.444 188.184C191.946 185.767 192.758 183.447 193.846 181.274C192.758 183.446 191.945 185.767 191.444 188.184Z" fill="black"/>
<path d="M197.2 211.696C197.05 211.513 196.896 211.337 196.752 211.15C196.896 211.335 197.052 211.513 197.2 211.696Z" fill="black"/>
<path d="M196.113 210.272C196.002 210.115 195.882 209.964 195.773 209.804C195.882 209.965 196.002 210.115 196.113 210.272Z" fill="black"/>
<path d="M204.604 169.653C204.603 169.653 204.603 169.653 204.604 169.653C204.678 169.609 204.757 169.57 204.831 169.526C204.756 169.57 204.678 169.608 204.604 169.653Z" fill="black"/>
<path d="M225.955 166.659C226.071 166.715 226.194 166.778 226.315 166.839C226.51 166.938 226.704 167.037 226.912 167.146C227.039 167.213 227.173 167.288 227.304 167.36C227.519 167.478 227.732 167.595 227.958 167.726C228.097 167.806 228.242 167.896 228.385 167.98C228.613 168.116 228.842 168.254 229.079 168.403C229.23 168.498 229.386 168.603 229.54 168.703C229.778 168.859 230.014 169.013 230.258 169.181C230.421 169.294 230.587 169.417 230.754 169.536C230.994 169.709 231.234 169.88 231.478 170.066C231.65 170.197 231.824 170.34 231.998 170.477C232.24 170.668 232.48 170.857 232.722 171.061C232.903 171.213 233.082 171.377 233.261 171.535C233.497 171.744 233.733 171.949 233.97 172.17C234.155 172.344 234.34 172.533 234.525 172.716C234.754 172.942 234.982 173.161 235.208 173.399C235.397 173.599 235.582 173.813 235.77 174.022C235.987 174.263 236.205 174.498 236.417 174.751C236.607 174.977 236.79 175.221 236.976 175.457C237.178 175.714 237.383 175.963 237.58 176.232C237.769 176.489 237.946 176.764 238.129 177.031C238.314 177.301 238.502 177.562 238.68 177.843C238.864 178.135 239.035 178.449 239.213 178.754C239.375 179.033 239.543 179.301 239.699 179.591C239.878 179.926 240.04 180.283 240.207 180.632C240.344 180.915 240.489 181.187 240.617 181.479C240.797 181.888 240.955 182.322 241.12 182.749C241.218 183.006 241.327 183.248 241.419 183.512C241.665 184.214 241.889 184.941 242.087 185.692C242.634 187.778 242.964 189.851 243.085 191.887C243.565 200.034 240.684 207.598 234.885 213.106C234.402 213.564 233.9 214.008 233.377 214.437C233.375 214.439 233.374 214.439 233.374 214.44C229.049 218.001 223.502 220.497 216.881 221.861L216.272 221.986C216.398 221.999 216.521 222.02 216.647 222.031C221.238 222.441 225.885 221.711 230.089 219.92C230.133 219.901 230.176 219.883 230.221 219.868C231.382 219.371 232.525 218.785 233.622 218.131C234.137 217.818 234.651 217.49 235.155 217.141C237.325 215.648 239.265 213.872 240.926 211.856C248.499 202.663 249.477 189.613 243.359 179.382C242.475 177.915 241.464 176.523 240.355 175.253C239.913 174.75 239.456 174.263 238.964 173.774C235.284 170.132 230.638 167.574 225.532 166.375C225.498 166.367 225.465 166.359 225.432 166.351C225.369 166.337 225.304 166.329 225.24 166.315C225.306 166.345 225.374 166.377 225.443 166.408C225.606 166.491 225.774 166.571 225.955 166.659Z" fill="black"/>
<path d="M252.876 173.686C252.747 173.466 252.621 173.269 252.485 173.059C249.282 168.087 245.294 163.782 240.628 160.255C237.195 157.672 233.869 155.836 230.743 154.809C229.014 154.236 227.428 153.583 226.023 152.866C219.726 149.652 217.635 145.574 216.252 142.875C216.023 142.428 215.814 142.016 215.598 141.655C215.356 141.251 214.564 140.639 213.147 140.268C210.859 139.675 207.934 139.927 205.13 140.961C203.932 141.401 202.773 141.54 201.683 141.376C200.237 141.17 199.214 140.537 198.538 140.116C197.833 139.679 197.62 139.546 195.692 140.702L194.395 141.476C193.741 141.867 193.172 142.207 192.677 142.499C189.85 144.197 189.505 144.402 189.49 144.411C189.489 144.412 189.152 144.615 186.396 146.263L183.31 148.108C181.377 149.265 181.392 149.492 181.444 150.338L181.455 150.539C181.515 151.404 181.516 152.49 181.057 153.736C180.696 154.752 180.022 155.713 179.067 156.555C174.761 160.379 173.956 164.804 174.735 166.106V166.105C174.952 166.467 175.216 166.846 175.503 167.261C176.399 168.556 177.627 170.331 178.509 172.798C179.836 176.475 180.054 180.688 179.174 185.674C178.557 189.158 178.647 193.241 179.438 197.809C180.344 203.067 182.121 208.171 184.723 212.988C184.95 213.421 185.167 213.8 185.358 214.127C196.487 232.721 220.702 238.799 239.32 227.658C239.765 227.392 240.206 227.118 240.637 226.832C240.667 226.813 240.695 226.795 240.724 226.776C240.725 226.776 240.725 226.775 240.725 226.775C240.726 226.775 240.699 226.796 240.673 226.817C240.736 226.766 240.8 226.719 240.867 226.675C241.879 226.002 242.752 225.369 243.539 224.743C245.002 223.59 246.375 222.342 247.629 221.022C248.767 219.821 249.834 218.549 250.795 217.244C260.235 204.437 261.05 187.341 252.876 173.686ZM245.301 215.468C243.304 217.892 240.973 220.027 238.373 221.816C237.783 222.225 237.173 222.615 236.543 222.997C235.168 223.819 233.748 224.54 232.307 225.15C232.263 225.168 232.22 225.186 232.175 225.202C227.778 227.053 222.985 227.942 218.192 227.809C217.506 227.79 216.822 227.751 216.138 227.69C210.42 227.18 204.992 225.227 200.325 222.123C196.169 219.362 192.617 215.689 190 211.312C188.522 208.848 187.364 206.214 186.561 203.489C184.995 198.192 184.758 192.505 185.88 187.046C185.886 187.012 185.894 186.98 185.902 186.947C187.812 177.745 193.572 169.636 201.688 164.78C201.688 164.778 201.689 164.778 201.69 164.778C202.881 164.068 204.115 163.427 205.361 162.872C211.27 160.247 217.67 159.38 224.027 160.319C224.935 160.453 225.842 160.624 226.747 160.832C226.751 160.833 226.755 160.833 226.76 160.834C226.761 160.834 226.761 160.835 226.761 160.835C232.911 162.264 238.514 165.345 242.955 169.744C243.544 170.328 244.088 170.907 244.623 171.516C245.954 173.042 247.163 174.704 248.223 176.462C255.573 188.757 254.398 204.428 245.301 215.468Z" fill="white"/>
<path d="M257.765 170.8C257.612 170.538 257.44 170.264 257.255 169.979C253.692 164.451 249.251 159.655 244.048 155.723C240.11 152.759 236.232 150.637 232.524 149.419C231.073 148.938 229.754 148.396 228.604 147.81C223.948 145.435 222.481 142.578 221.305 140.286C221.014 139.718 220.746 139.198 220.469 138.735C219.357 136.886 217.269 135.477 214.578 134.774C211.141 133.882 207.088 134.189 203.17 135.633C202.744 135.789 202.548 135.766 202.507 135.759C202.243 135.721 202.03 135.601 201.532 135.292C199.15 133.814 196.855 133.389 192.766 135.838L191.485 136.604C190.84 136.989 190.282 137.323 189.776 137.622C186.935 139.327 186.599 139.527 186.574 139.542C186.561 139.55 186.234 139.747 183.472 141.401L180.392 143.243C176.321 145.677 175.608 147.897 175.781 150.688L175.794 150.897C175.825 151.358 175.811 151.565 175.723 151.806C175.69 151.897 175.564 152.08 175.31 152.306C169.559 157.411 167.22 164.599 169.869 169.022C169.87 169.022 169.87 169.022 169.87 169.022C170.144 169.482 170.475 169.964 170.84 170.491C171.636 171.641 172.538 172.947 173.171 174.717C174.155 177.443 174.291 180.703 173.588 184.686C172.856 188.82 172.944 193.561 173.848 198.777C174.858 204.638 176.837 210.328 179.719 215.661C179.976 216.148 180.234 216.602 180.477 217.019C184.024 222.944 188.727 227.759 194.128 231.35C208.145 240.667 226.861 241.734 242.24 232.53C242.745 232.229 243.244 231.917 243.736 231.594C243.857 231.519 243.975 231.442 244.092 231.356C245.211 230.609 246.191 229.898 247.073 229.195C248.737 227.885 250.311 226.452 251.755 224.935C253.058 223.561 254.275 222.107 255.376 220.613C266.167 205.957 267.099 186.394 257.765 170.8ZM250.799 217.243C249.838 218.549 248.771 219.821 247.632 221.021C246.379 222.341 245.006 223.59 243.543 224.742C242.756 225.368 241.883 226.001 240.871 226.675C240.804 226.719 240.739 226.766 240.677 226.816C240.703 226.794 240.729 226.775 240.729 226.775C240.729 226.775 240.729 226.776 240.728 226.776C240.698 226.794 240.669 226.813 240.641 226.832C240.21 227.118 239.767 227.391 239.323 227.658C220.704 238.8 196.491 232.721 185.362 214.127C185.171 213.8 184.954 213.421 184.727 212.988C182.125 208.171 180.348 203.067 179.442 197.809C178.649 193.241 178.561 189.157 179.177 185.674C180.057 180.688 179.839 176.473 178.513 172.798C177.63 170.33 176.403 168.558 175.507 167.261C175.22 166.846 174.956 166.467 174.739 166.105V166.106C173.96 164.805 174.765 160.378 179.071 156.555C180.026 155.713 180.7 154.752 181.061 153.736C181.52 152.49 181.518 151.405 181.459 150.539L181.447 150.338C181.396 149.492 181.381 149.265 183.314 148.108L186.4 146.263C189.156 144.613 189.492 144.411 189.494 144.411C189.509 144.403 189.854 144.197 192.681 142.499C193.176 142.207 193.744 141.867 194.399 141.476L195.696 140.701C197.624 139.546 197.837 139.679 198.542 140.116C199.218 140.537 200.241 141.17 201.686 141.376C202.777 141.54 203.936 141.401 205.134 140.961C207.938 139.927 210.862 139.675 213.151 140.268C214.568 140.638 215.36 141.25 215.602 141.655C215.818 142.016 216.027 142.429 216.256 142.875C217.639 145.574 219.731 149.651 226.027 152.866C227.431 153.583 229.017 154.236 230.747 154.809C233.872 155.836 237.199 157.672 240.632 160.255C245.298 163.781 249.286 168.086 252.489 173.059C252.627 173.269 252.753 173.467 252.88 173.685C261.05 187.34 260.235 204.437 250.799 217.243Z" fill="black"/>
<path d="M248.223 176.463C247.164 174.706 245.954 173.043 244.623 171.517C244.088 170.908 243.545 170.329 242.955 169.745C238.514 165.347 232.912 162.266 226.761 160.837C226.761 160.837 226.76 160.837 226.76 160.835C226.756 160.835 226.751 160.834 226.747 160.833C225.843 160.625 224.935 160.454 224.027 160.32C217.67 159.381 211.27 160.249 205.361 162.873C204.115 163.429 202.879 164.068 201.69 164.78C201.69 164.781 201.689 164.781 201.688 164.781C193.572 169.638 187.811 177.747 185.902 186.949C185.894 186.981 185.886 187.014 185.88 187.047C184.76 192.506 184.995 198.193 186.561 203.49C187.364 206.216 188.522 208.849 190 211.314C192.618 215.69 196.171 219.363 200.325 222.125C204.992 225.227 210.42 227.18 216.138 227.691C216.822 227.752 217.506 227.793 218.192 227.811C222.985 227.943 227.778 227.054 232.175 225.203C232.219 225.188 232.263 225.17 232.307 225.152C233.748 224.542 235.169 223.82 236.543 222.998C237.173 222.617 237.784 222.226 238.373 221.817C240.973 220.029 243.304 217.894 245.302 215.469C254.398 204.428 255.573 188.757 248.223 176.463ZM201.99 216.33C201.781 216.17 201.567 216.016 201.362 215.85C201.139 215.669 200.925 215.48 200.708 215.293C200.509 215.123 200.307 214.957 200.112 214.782C199.895 214.586 199.689 214.378 199.479 214.175C199.295 213.998 199.105 213.824 198.925 213.641C198.714 213.427 198.515 213.201 198.311 212.98C198.142 212.796 197.967 212.618 197.802 212.428C197.594 212.19 197.398 211.94 197.198 211.695C197.049 211.512 196.895 211.336 196.751 211.149C196.53 210.863 196.322 210.566 196.112 210.273C196.001 210.116 195.881 209.964 195.772 209.804C195.459 209.345 195.158 208.875 194.87 208.395C193.637 206.339 192.674 204.148 192.006 201.881C190.704 197.482 190.507 192.759 191.433 188.218C191.436 188.205 191.439 188.193 191.441 188.183C191.942 185.766 192.756 183.446 193.843 181.273C196.235 176.494 199.955 172.433 204.6 169.653C204.676 169.609 204.753 169.57 204.827 169.526C205.753 168.985 206.704 168.489 207.665 168.062C208.361 167.753 209.066 167.473 209.777 167.222C210.007 167.142 210.243 167.082 210.474 167.007C210.959 166.85 211.443 166.689 211.932 166.559C212.224 166.483 212.521 166.429 212.814 166.362C213.249 166.262 213.681 166.153 214.12 166.074C214.442 166.015 214.768 165.984 215.092 165.937C215.506 165.878 215.92 165.808 216.337 165.767C216.676 165.734 217.016 165.727 217.354 165.706C217.759 165.682 218.164 165.647 218.571 165.639C218.92 165.632 219.269 165.653 219.618 165.66C220.018 165.667 220.417 165.665 220.817 165.69C221.17 165.712 221.525 165.76 221.879 165.796C222.276 165.836 222.672 165.865 223.069 165.922C223.423 165.972 223.776 166.049 224.129 166.113C224.497 166.179 224.864 166.237 225.231 166.319C225.295 166.333 225.36 166.34 225.423 166.355C225.456 166.363 225.489 166.371 225.523 166.379C230.629 167.577 235.275 170.136 238.955 173.778C239.447 174.267 239.904 174.753 240.346 175.257C241.455 176.528 242.466 177.919 243.35 179.386C249.468 189.617 248.489 202.666 240.917 211.86C239.256 213.874 237.317 215.651 235.146 217.145C234.642 217.493 234.128 217.822 233.613 218.135C232.515 218.791 231.371 219.375 230.212 219.872C230.168 219.887 230.124 219.906 230.08 219.924C225.876 221.715 221.229 222.445 216.638 222.035C216.512 222.024 216.389 222.003 216.263 221.99H216.262C216.042 221.968 215.824 221.939 215.606 221.912C215.326 221.877 215.044 221.843 214.765 221.799C214.494 221.756 214.227 221.703 213.958 221.654C213.681 221.602 213.404 221.553 213.129 221.493C212.861 221.434 212.598 221.366 212.334 221.299C212.062 221.232 211.789 221.167 211.519 221.092C211.257 221.018 210.999 220.933 210.74 220.853C210.473 220.77 210.206 220.689 209.942 220.599C209.684 220.509 209.431 220.41 209.175 220.314C208.917 220.217 208.656 220.122 208.4 220.017C208.146 219.913 207.898 219.798 207.648 219.686C207.397 219.575 207.145 219.467 206.897 219.349C206.651 219.229 206.409 219.101 206.165 218.975C205.923 218.849 205.677 218.728 205.437 218.596C205.196 218.462 204.961 218.318 204.724 218.177C204.49 218.039 204.255 217.906 204.025 217.76C203.788 217.611 203.558 217.45 203.326 217.293C203.105 217.144 202.881 217 202.664 216.845C202.439 216.679 202.216 216.503 201.99 216.33Z" fill="black"/>
<path d="M203.479 148.42C204.269 149.735 205.973 150.164 207.289 149.376C208.603 148.589 209.031 146.886 208.245 145.57C207.457 144.254 205.754 143.825 204.438 144.613C203.123 145.401 202.694 147.105 203.479 148.42Z" fill="black"/>
<path d="M185.379 159.253C186.168 160.569 187.871 160.998 189.187 160.208C190.504 159.422 190.928 157.718 190.143 156.402C189.357 155.087 187.65 154.659 186.335 155.445C185.022 156.234 184.592 157.938 185.379 159.253Z" fill="black"/>
<path d="M229.956 218.53C229.8 218.097 229.626 217.676 229.439 217.263L226.416 210.627C226.322 210.515 226.226 210.406 226.13 210.301C224.516 206.184 221.226 202.984 216.579 201.034C207.811 197.358 195.41 198.449 183.408 203.955C174.254 208.153 166.464 214.397 161.472 221.536C156.397 228.793 154.802 236.135 156.975 242.22L157.116 242.735L158.869 249.636C158.989 250.078 159.127 250.517 159.284 250.949C161.645 257.488 167.646 261.783 176.18 263.044C184.302 264.243 193.874 262.565 203.134 258.317C212.394 254.069 220.285 247.737 225.356 240.486C230.683 232.866 232.317 225.068 229.956 218.53Z" fill="black"/>
<path d="M224.246 211.424C222.903 207.703 219.96 204.801 215.741 203.03C212.565 201.699 208.861 201.042 204.851 201.042C198.483 201.042 191.341 202.696 184.308 205.922C166.265 214.2 154.923 230.177 159.027 241.54C160.37 245.261 163.311 248.163 167.532 249.933C175.752 253.381 187.503 252.299 198.963 247.041C217.009 238.765 228.35 222.787 224.246 211.424Z" fill="white"/>
<path d="M226.281 210.689C224.726 206.384 221.371 203.046 216.578 201.036C207.811 197.359 195.41 198.45 183.407 203.956C174.253 208.155 166.464 214.399 161.472 221.537C156.383 228.815 154.792 236.181 156.993 242.274C158.548 246.579 161.903 249.917 166.696 251.928C170.126 253.366 174.112 254.075 178.413 254.075C185.106 254.075 192.56 252.359 199.867 249.006C209.021 244.808 216.811 238.564 221.801 231.425C226.891 224.148 228.481 216.784 226.281 210.689ZM167.533 249.934C163.312 248.164 160.371 245.262 159.028 241.541C154.925 230.178 166.266 214.2 184.309 205.923C191.342 202.697 198.483 201.043 204.852 201.043C208.862 201.043 212.565 201.699 215.742 203.032C219.963 204.802 222.904 207.704 224.247 211.425C228.35 222.788 217.009 238.766 198.966 247.043C187.505 252.299 175.754 253.381 167.533 249.934Z" fill="black"/>
<path d="M214.589 215.436C213.655 212.851 211.606 210.833 208.663 209.599C202.936 207.197 194.399 207.99 186.382 211.668C173.593 217.535 165.537 228.814 168.423 236.811C169.357 239.396 171.406 241.414 174.349 242.648C180.077 245.049 188.613 244.256 196.63 240.579C209.422 234.712 217.478 223.433 214.589 215.436Z" fill="white"/>
<path d="M216.624 214.701C215.48 211.533 213.017 209.079 209.5 207.604C203.139 204.936 194.159 205.72 185.481 209.701C178.871 212.733 173.245 217.245 169.638 222.404C165.933 227.704 164.779 233.081 166.391 237.545C167.534 240.713 169.998 243.167 173.515 244.641C176.009 245.688 178.906 246.203 182.029 246.203C186.871 246.203 192.257 244.963 197.533 242.544C204.143 239.512 209.77 235.001 213.376 229.842C217.083 224.543 218.236 219.164 216.624 214.701ZM174.351 242.648C171.407 241.414 169.358 239.396 168.425 236.811C165.537 228.814 173.593 217.535 186.383 211.668C194.4 207.99 202.938 207.197 208.664 209.599C211.607 210.833 213.657 212.851 214.59 215.435C217.478 223.433 209.422 234.712 196.633 240.579C188.614 244.256 180.078 245.049 174.351 242.648Z" fill="black"/>
<path d="M189.972 220.858L189.904 220.887C188.521 218.228 186.43 217.609 184.407 218.453C182.349 219.311 180.995 221.323 180.423 223.561C180.03 224.906 179.868 226.265 179.899 227.868L176.439 229.31L176.85 232.166L180.122 230.802C180.172 231.214 180.229 231.642 180.292 232.09C180.387 232.748 180.492 233.41 180.605 234.06L177.32 235.429L177.73 238.283L181.145 236.859C181.407 238.078 181.673 239.12 181.904 239.806L204.229 230.499C204.213 229.7 204.159 228.627 204.038 227.315L207.009 226.077L206.598 223.223L203.709 224.427C203.677 224.199 203.646 223.968 203.613 223.73C203.48 222.814 203.335 221.972 203.178 221.189L206.129 219.959L205.718 217.102L202.496 218.445C201.821 216.245 200.992 214.802 200.023 213.94C198.633 212.731 196.852 212.282 194.796 213.14C191.862 214.365 190.235 217.469 189.972 220.858ZM184.436 232.322C184.294 231.829 184.116 231.093 183.925 229.768C183.527 226.996 184.211 225.049 185.932 224.332C187.618 223.629 188.979 224.893 189.442 228.107L189.732 230.116L184.436 232.322ZM199.54 223.512C199.69 224.557 199.794 225.28 199.814 225.911L193.405 228.582L193.104 226.492C192.665 223.439 193.223 220.609 195.516 219.654C197.912 218.655 199.141 220.741 199.54 223.512Z" fill="black"/>
<path d="M253.334 98.4855L228.794 55.9815C228.284 55.099 227.334 54.5513 226.315 54.5513C225.296 54.5513 224.346 55.099 223.836 55.9828L199.296 98.4868C198.786 99.3694 198.786 100.467 199.296 101.35C199.806 102.232 200.756 102.78 201.775 102.78H250.854C251.874 102.78 252.823 102.231 253.333 101.35C253.844 100.466 253.844 99.3681 253.334 98.4855ZM251.46 100.268C251.335 100.483 251.103 100.617 250.855 100.617H201.776C201.527 100.617 201.295 100.483 201.17 100.266C201.045 100.051 201.045 99.7834 201.17 99.5667L225.71 57.0626C225.835 56.8472 226.067 56.7122 226.316 56.7122C226.565 56.7122 226.798 56.8459 226.922 57.0614L251.463 99.5654C251.586 99.7834 251.586 100.051 251.46 100.268Z" fill="black"/>
<path d="M226.315 58.8121L202.987 99.2188H249.644L226.315 58.8121ZM228.794 72.5787L228.109 86.7034H224.554L223.836 72.5787H228.794ZM226.33 93.9365C224.647 93.9365 223.524 92.7203 223.524 91.0993C223.524 89.4471 224.678 88.2622 226.33 88.2622C227.983 88.2622 229.074 89.4471 229.105 91.0993C229.105 92.7216 228.014 93.9365 226.33 93.9365Z" fill="black"/>
<path d="M122.856 192.44L98.3161 149.936C98.1915 149.72 97.9592 149.587 97.71 149.587C97.4608 149.587 97.2285 149.72 97.1039 149.937L72.565 192.44C72.4404 192.655 72.4404 192.924 72.565 193.139C72.6896 193.355 72.9219 193.49 73.1711 193.49H122.25C122.499 193.49 122.732 193.356 122.855 193.141C122.981 192.922 122.981 192.655 122.856 192.44ZM74.3821 192.089L97.71 151.683L121.039 192.089H74.3821Z" fill="white"/>
<path d="M124.729 191.357L100.189 148.853C99.6789 147.971 98.7288 147.423 97.71 147.423C96.6912 147.423 95.7411 147.971 95.2311 148.855L70.6909 191.359C70.1808 192.241 70.1808 193.339 70.6909 194.222C71.201 195.104 72.151 195.652 73.1698 195.652H122.249C123.269 195.652 124.218 195.103 124.728 194.222C125.239 193.338 125.239 192.24 124.729 191.357ZM122.856 193.139C122.732 193.355 122.499 193.489 122.251 193.489H73.1711C72.9219 193.489 72.6896 193.355 72.565 193.138C72.4404 192.923 72.4404 192.655 72.565 192.439L97.1052 149.935C97.2298 149.719 97.4621 149.584 97.7113 149.584C97.9605 149.584 98.1928 149.718 98.3174 149.933L122.858 192.437C122.981 192.655 122.981 192.923 122.856 193.139Z" fill="black"/>
<path d="M97.7113 151.684L74.382 192.089H121.039L97.7113 151.684Z" fill="black"/>
<path d="M94.9196 183.971C94.9196 182.319 96.0734 181.134 97.7256 181.134C99.3777 181.134 100.469 182.319 100.5 183.971C100.5 185.592 99.4089 186.808 97.7256 186.808C96.0422 186.808 94.9196 185.594 94.9196 183.971ZM95.9488 179.575L95.231 165.451H100.189L99.5024 179.575H95.9488Z" fill="white"/>
<path d="M238.916 284.275L214.376 241.771C214.251 241.555 214.019 241.421 213.77 241.421C213.52 241.421 213.288 241.555 213.164 241.772L188.623 284.276C188.499 284.491 188.499 284.76 188.623 284.975C188.748 285.191 188.98 285.326 189.229 285.326H238.308C238.558 285.326 238.79 285.192 238.913 284.977C239.042 284.759 239.042 284.491 238.916 284.275ZM190.443 283.925L213.771 243.519L237.099 283.925H190.443Z" fill="white"/>
<path d="M240.79 283.194L216.25 240.69C215.74 239.807 214.79 239.259 213.771 239.259C212.752 239.259 211.802 239.807 211.292 240.691L186.752 283.195C186.242 284.077 186.242 285.175 186.752 286.058C187.262 286.941 188.212 287.488 189.231 287.488H238.31C239.33 287.488 240.279 286.939 240.789 286.058C241.3 285.174 241.3 284.076 240.79 283.194ZM238.916 284.976C238.791 285.191 238.559 285.325 238.311 285.325H189.232C188.983 285.325 188.751 285.191 188.626 284.974C188.501 284.759 188.501 284.491 188.626 284.275L213.166 241.771C213.291 241.555 213.523 241.42 213.772 241.42C214.021 241.42 214.254 241.554 214.378 241.769L238.919 284.273C239.042 284.491 239.042 284.759 238.916 284.976Z" fill="black"/>
<path d="M213.771 243.52L190.443 283.926H237.099L213.771 243.52Z" fill="black"/>
<path d="M210.981 275.807C210.981 274.155 212.134 272.97 213.787 272.97C215.439 272.97 216.53 274.155 216.561 275.807C216.561 277.428 215.47 278.644 213.787 278.644C212.103 278.644 210.981 277.428 210.981 275.807ZM212.01 271.411L211.292 257.287H216.25L215.563 271.411H212.01Z" fill="white"/>
<path d="M108.027 45.9061V75.1212C108.027 78.3685 147.752 78.3685 147.752 75.1212V45.9061H108.027Z" fill="black"/>
<path d="M132.793 56.9419C132.793 54.2332 130.597 52.0372 127.888 52.0372C125.179 52.0372 122.983 54.2332 122.983 56.9419C122.983 58.9341 124.172 60.6473 125.878 61.4157V69.7026C125.878 70.8123 126.777 71.713 127.888 71.713C128.998 71.713 129.899 70.8136 129.899 69.7026V61.4157C131.605 60.6473 132.793 58.9328 132.793 56.9419Z" fill="white"/>
<path d="M136.23 46.1216H140.25V36.019C140.25 29.2025 145.795 23.658 152.611 23.658C159.428 23.658 164.972 29.2038 164.972 36.019V37.9865H168.993V36.019C168.993 26.9858 161.644 19.6372 152.611 19.6372C143.578 19.6372 136.23 26.9858 136.23 36.019V46.1216Z" fill="black"/>
<path d="M174.471 67.3884C174.292 67.3884 174.111 67.3417 173.946 67.2417C173.462 66.951 173.306 66.3228 173.597 65.84C173.669 65.718 180.992 53.5725 189.511 41.7814C201.322 25.4359 209.424 17.8525 214.275 18.5962C216.288 18.9051 217.659 20.5105 218.351 23.371C218.737 24.9635 219.035 26.4392 219.26 27.8072C222.18 25.6579 225.988 23.4048 229.953 22.556C234.628 21.5553 238.457 22.835 241.021 26.2549C241.36 26.7066 241.268 27.3464 240.816 27.6852C240.364 28.0239 239.725 27.9318 239.386 27.4801C234.652 21.1634 226.21 25.5047 221.6 28.6534C220.922 29.1167 220.246 29.6086 219.58 30.1252C220.611 39.3556 217.841 42.8443 215.837 44.1487C213.297 45.8009 210.351 45.1519 208.557 43.7762C208.136 43.4517 207.48 42.6743 207.836 41.0987C208.408 38.5626 211.488 34.4886 215.681 30.7222C216.176 30.277 216.759 29.7734 217.414 29.2387C217.19 27.6371 216.848 25.8487 216.365 23.8512C215.645 20.8739 214.381 20.6792 213.966 20.6156C211.726 20.2756 205.803 22.726 191.169 42.978C182.699 54.6991 175.42 66.7719 175.349 66.8926C175.157 67.2119 174.819 67.3884 174.471 67.3884ZM217.681 31.6813C215.745 33.3556 213.958 35.1843 212.511 36.9922C209.772 40.4121 209.681 41.9605 209.806 42.1603C211.025 43.0948 213.021 43.5452 214.724 42.4368C215.958 41.6334 218.247 39.1207 217.681 31.6813Z" fill="black"/>
<path d="M64.9712 263.372C59.6408 263.372 55.8277 261.883 53.6031 258.922C51.9249 256.688 51.2929 253.653 51.7056 250.155C44.4661 251.538 35.9391 251.527 26.3036 248.97C17.9376 246.751 13.2276 242.924 12.3048 237.598C9.38199 220.741 46.3973 195.059 47.9742 193.974C48.4389 193.653 49.0761 193.771 49.3954 194.236C49.716 194.701 49.5979 195.338 49.1332 195.657C49.0385 195.722 39.5549 202.275 30.549 210.728C18.8305 221.729 13.2185 230.9 14.3191 237.249C15.0939 241.719 19.3029 244.997 26.828 246.993C35.4588 249.284 44.0806 249.602 52.0885 247.959C52.4506 246.374 53.0061 244.718 53.7562 243.014C57.3371 234.884 65.5357 225.817 73.6786 225.027C77.3243 224.674 78.8545 225.998 79.4982 227.17C80.6793 229.323 79.7617 232.595 76.9817 236.147C73.4359 240.677 65.4371 246.96 53.8237 249.702C53.302 252.962 53.7692 255.74 55.2371 257.693C57.5655 260.791 62.4844 261.936 69.4566 261.004C80.9739 259.465 90.3355 254.487 96.8962 249.134C96.599 248.6 96.3719 248.036 96.2174 247.445C95.0883 243.117 98.0851 238.126 104.041 234.42C106.101 233.136 107.582 232.865 108.565 233.584C109.123 233.993 109.691 234.865 109.222 236.702C108.507 239.51 105.235 244.514 99.6555 249.449C101.874 251.744 106.259 253.158 112.25 253.433C112.815 253.459 113.249 253.937 113.225 254.501C113.199 255.066 112.717 255.502 112.157 255.476C105.593 255.174 100.712 253.503 98.1071 250.766C91.3971 256.261 81.8201 261.413 69.7279 263.03C68.0277 263.26 66.4416 263.372 64.9712 263.372ZM107.293 235.244C107.073 235.244 106.438 235.337 105.121 236.156C100.032 239.323 97.3141 243.553 98.1954 246.93C98.2707 247.22 98.3706 247.502 98.4952 247.775C102.336 244.369 105.038 240.917 106.441 238.187C107.353 236.413 107.403 235.506 107.336 235.245C107.323 235.245 107.309 235.244 107.293 235.244ZM74.8025 227.016C74.4638 227.016 74.1458 227.037 73.8759 227.063C66.7739 227.752 59.0204 236.134 55.6265 243.841C55.0814 245.08 54.6453 246.287 54.3221 247.448C55.4694 247.156 56.6012 246.822 57.7186 246.447C65.0309 243.99 71.6305 239.669 75.3723 234.889C77.5255 232.139 78.4418 229.495 77.7059 228.155C77.1984 227.232 75.8992 227.016 74.8025 227.016Z" fill="black"/>
</g>
<defs>
<clipPath id="clip0_125_155">
<rect width="300" height="297.872" fill="white" transform="translate(0 0.0638428)"/>
</clipPath>
</defs>
</svg>
