<svg width="115" height="100" viewBox="0 0 115 100" fill="none" xmlns="http://www.w3.org/2000/svg">
<path fill-rule="evenodd" clip-rule="evenodd" d="M24.8318 0.816589C22.4829 1.77535 18.9355 4.22017 18.2164 5.41862C18.0246 5.75418 17.1617 6.04182 16.2989 6.04182C13.9979 6.04182 9.97107 7.24026 7.62212 8.63046C4.9376 10.2124 2.68452 12.8011 1.19845 16.0608L0 18.6495V40.7488C0 60.4513 0.0958757 63.1358 0.814943 65.3409C1.7737 68.2651 5.08141 72.196 8.00562 73.8259C9.06025 74.4491 18.8875 80.0579 29.8173 86.3857C49.0404 97.4114 54.2177 100 57.1899 100C59.8744 100 64.7161 97.7469 75.2624 91.6588C81.1108 88.3032 86.0964 85.0913 86.384 85.2831L94.6772 80.4893C99.2313 77.8527 103.929 75.2161 105.032 74.6409C107.62 73.3466 111.168 70.1347 112.223 68.1693C114.476 63.9507 114.476 64.0945 114.428 40.7488L114.38 18.6015L113.133 15.9649C110.017 9.10983 102.347 5.03512 95.2525 6.42532C93.6226 6.76088 90.986 7.86346 89.0685 8.96603C61.696 25.0252 59.9702 25.936 57.1899 25.936C54.6491 25.8881 53.978 25.6005 40.2199 17.5948C26.6534 9.68509 25.9823 9.20572 27.0369 8.63046C27.6601 8.2949 29.1462 8.00727 30.2967 7.95934C32.5977 7.95934 34.1317 8.72633 49.0404 17.499C53.6904 20.2314 56.4228 21.5257 57.2857 21.4778C58.5321 21.3819 64.3805 18.1222 64.3805 17.451C64.3805 17.3072 63.4697 16.6361 62.3671 16.0129C53.5945 11.0274 42.6167 4.65161 40.6034 3.35729C36.8642 0.960396 34.707 0.241333 30.824 0.0495758C27.9957 -0.0942383 26.7014 0.0495911 24.8318 0.816589ZM38.2544 25.4566C25.9823 18.3618 21.9076 16.0608 19.4628 14.9103C16.6344 13.5681 12.8953 14.2392 10.5463 16.4443C7.76593 19.0809 7.76593 19.0809 7.81387 41.5638C7.81387 63.6631 7.81387 63.5672 10.3066 65.7724C11.1695 66.5873 35.7616 80.9207 51.677 89.9331C55.7038 92.1861 58.6759 92.1861 62.7027 89.9331C71.5712 84.8996 99.9984 68.4569 102.156 67.0667C106.662 64.2384 106.566 64.6219 106.566 41.1323C106.566 27.8056 106.422 20.567 106.086 19.6562C104.888 16.4923 101.484 14.1913 98.0329 14.1913C95.7798 14.1913 94.7252 14.7186 77.5634 24.6417C70.4686 28.7644 63.5656 32.5035 62.2233 32.9829C59.1553 34.0375 55.2244 34.0375 52.1564 32.9829C50.8621 32.5035 44.5822 29.1479 38.2544 25.4566Z" fill="#4390E3"/>
</svg>
