<svg width="179" height="179" viewBox="0 0 179 179" fill="none" xmlns="http://www.w3.org/2000/svg">
<path d="M0 44.0397H44.0397V0H0V44.0397ZM36.9365 36.9365H7.10317V7.10317H36.9365V36.9365Z" fill="white"/>
<path d="M11.3651 31.254H31.254V11.3651H11.3651V31.254Z" fill="white"/>
<path d="M55.4048 6.39288C55.4048 11.7913 55.8309 12.7857 58.246 12.7857C60.377 12.7857 61.0873 13.7802 61.0873 16.3373C61.0873 19.1786 61.7976 19.8889 64.6389 19.8889C67.9063 19.8889 68.1905 19.3207 68.1905 13.4961C68.1905 7.67145 68.4746 7.10319 71.7421 7.10319C74.5833 7.10319 75.2936 6.39288 75.2936 3.55161C75.2936 0.568274 74.5833 2.01166e-05 71.0317 2.01166e-05C67.7643 2.01166e-05 66.7698 0.568274 66.7698 2.84129C66.7698 4.40399 65.7754 5.68256 64.6389 5.68256C63.5024 5.68256 62.5079 4.40399 62.5079 2.84129C62.5079 0.710337 61.5135 2.01166e-05 58.9563 2.01166e-05C55.6889 2.01166e-05 55.4048 0.568274 55.4048 6.39288Z" fill="white"/>
<path d="M92.3413 6.39287C92.3413 11.7913 92.7675 12.7857 95.1825 12.7857C97.0294 12.7857 98.0238 13.7802 98.0238 15.627C98.0238 18.0421 97.0294 18.4683 92.3413 18.4683H86.6587V12.0754C86.6587 6.25081 86.3746 5.68255 83.1071 5.68255C79.5556 5.68255 79.5556 5.82462 79.5556 18.4683C79.5556 28.8389 79.1294 31.254 77.4246 31.254C76.146 31.254 75.2937 29.9754 75.2937 27.7024C75.2937 24.7191 74.5833 24.1508 71.0317 24.1508C67.4802 24.1508 66.7698 24.7191 66.7698 27.7024C66.7698 30.5437 67.4802 31.254 70.3214 31.254C73.731 31.254 73.873 31.5381 73.873 41.1984C73.873 50.1484 74.1571 51.1429 76.7143 51.1429C78.277 51.1429 79.5556 52.1373 79.5556 53.2738C79.5556 54.4103 78.277 55.4048 76.7143 55.4048C74.5833 55.4048 73.873 56.3992 73.873 58.9564C73.873 61.7976 74.5833 62.508 77.4246 62.508C79.9818 62.508 80.9762 61.7976 80.9762 59.6667C80.9762 57.8199 81.9706 56.8254 83.8175 56.8254C85.6643 56.8254 86.6587 57.8199 86.6587 59.6667C86.6587 61.5135 87.6532 62.508 89.5 62.508C91.9151 62.508 92.3413 61.5135 92.3413 56.8254C92.3413 52.1373 92.7675 51.1429 95.1825 51.1429C97.0294 51.1429 98.0238 52.1373 98.0238 53.9841C98.0238 55.831 99.0183 56.8254 100.865 56.8254C102.428 56.8254 103.706 57.8199 103.706 58.9564C103.706 60.0929 102.428 61.0873 100.865 61.0873C99.0183 61.0873 98.0238 62.0818 98.0238 63.9286C98.0238 65.7754 97.0294 66.7699 95.1825 66.7699C92.9095 66.7699 92.3413 67.7643 92.3413 71.0318C92.3413 74.2992 92.9095 75.2937 95.1825 75.2937C97.5976 75.2937 98.0238 76.2881 98.0238 80.9762C98.0238 85.6643 98.45 86.6587 100.865 86.6587C102.712 86.6587 103.706 87.6532 103.706 89.5C103.706 91.631 104.701 92.3413 107.258 92.3413C109.815 92.3413 110.81 93.0516 110.81 95.1826C110.81 97.7397 109.815 98.0238 101.575 98.0238C93.3357 98.0238 92.3413 97.7397 92.3413 95.1826C92.3413 93.3357 91.3468 92.3413 89.5 92.3413C87.6532 92.3413 86.6587 91.3468 86.6587 89.5C86.6587 87.6532 87.6532 86.6587 89.5 86.6587C91.631 86.6587 92.3413 85.6643 92.3413 83.1072C92.3413 80.55 91.631 79.5556 89.5 79.5556C87.3691 79.5556 86.6587 80.55 86.6587 83.1072C86.6587 85.9484 85.9484 86.6587 83.1071 86.6587C79.6976 86.6587 79.5556 87.0849 79.5556 95.1826C79.5556 101.86 79.1294 103.706 77.4246 103.706C75.8619 103.706 75.2937 102.144 75.2937 98.0238C75.2937 92.6254 75.0095 92.3413 71.0317 92.3413C67.054 92.3413 66.7698 92.6254 66.7698 98.0238C66.7698 102.144 66.2016 103.706 64.6389 103.706C63.0762 103.706 62.5079 102.144 62.5079 98.0238V92.3413H55.4048C48.7278 92.3413 48.3016 92.6254 48.3016 95.8929C48.3016 98.7341 49.0119 99.4445 51.8532 99.4445C54.4103 99.4445 55.4048 100.155 55.4048 102.286C55.4048 104.133 56.3992 105.127 58.246 105.127C60.0929 105.127 61.0873 106.121 61.0873 107.968C61.0873 110.241 60.0929 110.81 56.2571 110.81C52.2794 110.81 51.2849 110.241 50.8587 107.542C50.5746 105.553 49.296 104.275 47.3071 103.99C45.1762 103.706 44.0397 102.57 44.0397 100.723C44.0397 98.7341 43.0452 98.0238 40.4881 98.0238C37.931 98.0238 36.9365 97.3135 36.9365 95.1826C36.9365 93.0516 37.931 92.3413 40.4881 92.3413C43.0452 92.3413 44.0397 91.631 44.0397 89.5C44.0397 87.3691 45.0341 86.6587 47.5913 86.6587C50.1484 86.6587 51.1429 85.9484 51.1429 83.8175C51.1429 82.2548 52.1373 80.9762 53.2738 80.9762C54.4103 80.9762 55.4048 82.2548 55.4048 83.8175C55.4048 86.2326 56.3992 86.6587 61.7976 86.6587H68.1905V67.4802C68.1905 49.2961 68.0484 48.3016 65.3492 48.3016C63.7865 48.3016 62.5079 47.3072 62.5079 46.1707C62.5079 45.0341 63.7865 44.0397 65.3492 44.0397C67.4802 44.0397 68.1905 43.0453 68.1905 40.4881C68.1905 37.931 67.4802 36.9365 65.3492 36.9365C63.5024 36.9365 62.5079 35.9421 62.5079 34.0953C62.5079 31.6802 61.5135 31.254 55.4048 31.254H48.1595L48.5857 40.7722C49.0119 49.5802 49.296 50.4326 52.2794 50.8587C56.6833 51.5691 56.3992 55.4048 51.8532 55.4048C48.7278 55.4048 48.3016 55.973 48.3016 61.0873C48.3016 65.2072 47.7333 66.7699 46.1706 66.7699C45.0341 66.7699 44.0397 65.4913 44.0397 63.9286C44.0397 61.7976 43.0452 61.0873 40.4881 61.0873C38.2151 61.0873 36.9365 60.2349 36.9365 58.9564C36.9365 57.6778 38.2151 56.8254 40.4881 56.8254C43.4714 56.8254 44.0397 56.1151 44.0397 52.5635C44.0397 49.0119 43.4714 48.3016 40.4881 48.3016C37.6468 48.3016 36.9365 49.0119 36.9365 51.8532C36.9365 55.1207 36.3683 55.4048 30.5437 55.4048C25.1452 55.4048 24.1508 55.831 24.1508 58.246C24.1508 59.8087 23.1563 61.0873 22.0198 61.0873C20.4571 61.0873 19.8889 59.3826 19.8889 54.6945V48.3016H5.68254V62.508H12.0754C17.4738 62.508 18.4683 62.9341 18.4683 65.3492C18.4683 67.4802 19.4627 68.1905 22.0198 68.1905C24.577 68.1905 25.5714 67.4802 25.5714 65.3492C25.5714 62.9341 26.5659 62.508 31.254 62.508C35.9421 62.508 36.9365 62.9341 36.9365 65.3492C36.9365 67.196 37.931 68.1905 39.7778 68.1905C41.6246 68.1905 42.619 69.1849 42.619 71.0318C42.619 73.731 41.6246 73.873 24.8611 73.873H7.10318V70.3214C7.10318 67.4802 6.39286 66.7699 3.55159 66.7699C0.142064 66.7699 0 67.054 0 76.7143V86.6587H6.39286C11.7913 86.6587 12.7857 86.2326 12.7857 83.8175C12.7857 81.9707 13.7802 80.9762 15.627 80.9762C17.4738 80.9762 18.4683 81.9707 18.4683 83.8175C18.4683 86.3746 19.4627 86.6587 27.7024 86.6587C35.9421 86.6587 36.9365 86.9429 36.9365 89.5C36.9365 92.0572 35.9421 92.3413 27.7024 92.3413C18.7524 92.3413 18.4683 92.4834 18.4683 95.8929C18.4683 99.3024 18.7524 99.4445 27.7024 99.4445C35.9421 99.4445 36.9365 99.7286 36.9365 102.286C36.9365 104.133 37.931 105.127 39.7778 105.127C41.6246 105.127 42.619 106.121 42.619 107.968C42.619 110.383 41.6246 110.81 36.9365 110.81C31.8222 110.81 31.254 110.383 31.254 107.258C31.254 104.417 30.5437 103.706 27.7024 103.706C24.8611 103.706 24.1508 104.417 24.1508 107.258C24.1508 109.531 23.2984 110.81 22.0198 110.81C20.7413 110.81 19.8889 109.531 19.8889 107.258C19.8889 104.417 19.1786 103.706 16.3373 103.706C13.7802 103.706 12.7857 102.996 12.7857 100.865C12.7857 98.45 11.7913 98.0238 6.39286 98.0238H0V105.127C0 111.804 0.284127 112.23 3.55159 112.23C6.39286 112.23 7.10318 111.52 7.10318 108.679C7.10318 106.406 7.95556 105.127 9.23413 105.127C10.7968 105.127 11.3651 106.69 11.3651 110.81V116.492H5.68254C0.568254 116.492 0 116.776 0 120.044C0 123.169 0.568254 123.595 5.68254 123.595C10.7968 123.595 11.3651 123.879 11.3651 127.147C11.3651 130.13 12.0754 130.698 15.627 130.698C19.7468 130.698 19.8889 130.414 19.8889 124.306V117.913H25.5714C29.6913 117.913 31.254 118.481 31.254 120.044C31.254 121.322 29.9754 122.175 27.7024 122.175C24.719 122.175 24.1508 122.885 24.1508 126.437V130.698H36.2262C47.3071 130.698 48.3016 130.983 48.3016 133.54C48.3016 135.955 49.296 136.381 54.6944 136.381C60.0929 136.381 61.0873 136.807 61.0873 139.222C61.0873 141.069 60.0929 142.064 58.246 142.064C55.6889 142.064 55.4048 143.058 55.4048 150.587C55.4048 158.685 55.2627 159.111 51.8532 159.111C48.5857 159.111 48.3016 159.537 48.3016 166.214C48.3016 172.891 48.5857 173.317 51.8532 173.317C54.4103 173.317 55.4048 174.028 55.4048 176.159C55.4048 178.858 56.3992 179 68.1905 179H80.9762V173.317C80.9762 168.629 81.4024 167.635 83.8175 167.635C85.6643 167.635 86.6587 168.629 86.6587 170.476C86.6587 172.323 87.6532 173.317 89.5 173.317C91.3468 173.317 92.3413 174.312 92.3413 176.159C92.3413 178.574 93.3357 179 98.7341 179C104.559 179 105.127 178.716 105.127 175.448C105.127 172.181 104.559 171.897 98.7341 171.897C94.046 171.897 92.3413 171.329 92.3413 169.766C92.3413 168.487 93.6198 167.635 95.8929 167.635C98.8762 167.635 99.4445 166.925 99.4445 163.373C99.4445 159.821 98.8762 159.111 95.8929 159.111C92.7675 159.111 92.3413 158.543 92.3413 153.429C92.3413 148.314 92.7675 147.746 95.8929 147.746C99.1603 147.746 99.4445 147.178 99.4445 142.064V136.381H105.979C112.23 136.381 112.372 136.239 111.946 132.545C111.662 129.704 110.667 128.425 108.394 128.141C105.269 127.715 105.127 127.005 105.127 116.35C105.127 106.121 105.411 105.127 107.968 105.127C110.099 105.127 110.81 106.121 110.81 108.679C110.81 111.236 111.52 112.23 113.651 112.23C115.214 112.23 116.492 113.225 116.492 114.361C116.492 115.498 115.214 116.492 113.651 116.492C111.52 116.492 110.81 117.487 110.81 120.044C110.81 122.601 111.52 123.595 113.651 123.595C115.782 123.595 116.492 124.59 116.492 127.147C116.492 129.704 117.202 130.698 119.333 130.698C121.748 130.698 122.175 131.693 122.175 136.381C122.175 141.069 121.748 142.064 119.333 142.064C116.776 142.064 116.492 143.058 116.492 150.587C116.492 157.264 116.066 159.111 114.361 159.111C112.656 159.111 112.23 157.264 112.23 150.587V142.064H103.706V154.849C103.706 167.493 103.706 167.635 107.258 167.635C109.815 167.635 110.81 168.345 110.81 170.476C110.81 172.607 111.804 173.317 114.361 173.317C117.629 173.317 117.913 172.749 117.913 166.925C117.913 162.237 118.481 160.532 120.044 160.532C121.748 160.532 122.175 162.521 122.175 169.766V179H129.278C135.955 179 136.381 178.716 136.381 175.448C136.381 172.891 135.671 171.897 133.54 171.897C131.977 171.897 130.698 170.902 130.698 169.766C130.698 168.629 131.977 167.635 133.54 167.635C135.955 167.635 136.381 166.64 136.381 161.242C136.381 155.844 136.807 154.849 139.222 154.849C141.637 154.849 142.063 155.844 142.063 161.242V167.635H147.746C151.866 167.635 153.429 168.203 153.429 169.766C153.429 171.329 151.866 171.897 147.746 171.897C142.632 171.897 142.063 172.181 142.063 175.448C142.063 178.858 142.348 179 151.298 179H160.532V167.635H179V163.373C179 160.106 178.432 159.111 176.159 159.111C173.602 159.111 173.317 158.117 173.317 150.587C173.317 143.058 173.602 142.064 176.159 142.064C178.574 142.064 179 141.069 179 134.96C179 128.852 178.574 127.857 176.159 127.857C173.886 127.857 173.317 126.863 173.317 122.885C173.317 118.907 173.886 117.913 176.159 117.913C178.716 117.913 179 116.918 179 107.968V98.0238H172.607C166.783 98.0238 166.214 98.308 166.214 101.575C166.214 104.133 166.925 105.127 169.056 105.127C171.471 105.127 171.897 106.121 171.897 110.81C171.897 114.929 171.329 116.492 169.766 116.492C168.629 116.492 167.635 115.214 167.635 113.651C167.635 111.52 166.64 110.81 164.083 110.81C161.242 110.81 160.532 110.099 160.532 107.258C160.532 104.417 159.821 103.706 156.98 103.706C154.139 103.706 153.429 104.417 153.429 107.258C153.429 109.815 152.718 110.81 150.587 110.81C148.456 110.81 147.746 111.804 147.746 114.361C147.746 116.918 148.456 117.913 150.587 117.913C152.15 117.913 153.429 118.907 153.429 120.044C153.429 121.606 151.866 122.175 147.746 122.175C143.058 122.175 142.063 121.748 142.063 119.333C142.063 116.776 141.069 116.492 132.829 116.492C124.59 116.492 123.595 116.208 123.595 113.651C123.595 111.804 122.601 110.81 120.754 110.81C118.339 110.81 117.913 109.815 117.913 105.127C117.913 101.007 118.481 99.4445 120.044 99.4445C121.18 99.4445 122.175 100.723 122.175 102.286C122.175 104.133 123.169 105.127 124.874 105.127C126.721 105.127 127.857 106.264 128.141 108.252C128.567 111.094 129.562 111.52 135.387 111.946C141.779 112.372 142.063 112.23 142.063 108.821C142.063 106.121 142.774 105.127 144.905 105.127C146.752 105.127 147.746 104.133 147.746 102.286C147.746 99.8707 148.74 99.4445 154.139 99.4445C159.964 99.4445 160.532 99.1603 160.532 95.8929C160.532 93.0516 161.242 92.3413 164.083 92.3413C166.64 92.3413 167.635 91.631 167.635 89.5C167.635 87.3691 166.64 86.6587 164.083 86.6587C160.674 86.6587 160.532 86.3746 160.532 77.4246C160.532 68.4746 160.674 68.1905 164.083 68.1905C166.64 68.1905 167.635 67.4802 167.635 65.3492C167.635 63.7865 168.629 62.508 169.766 62.508C170.902 62.508 171.897 63.7865 171.897 65.3492C171.897 67.4802 172.891 68.1905 175.448 68.1905C178.716 68.1905 179 67.6222 179 61.7976V55.4048H172.607C167.209 55.4048 166.214 55.831 166.214 58.246C166.214 60.0929 165.22 61.0873 163.373 61.0873C160.958 61.0873 160.532 60.0929 160.532 54.6945C160.532 48.8699 160.248 48.3016 156.98 48.3016C153.713 48.3016 153.429 48.7278 153.429 55.4048C153.429 61.5135 153.855 62.508 156.27 62.508C157.833 62.508 159.111 63.5024 159.111 64.6389C159.111 66.2016 157.548 66.7699 153.429 66.7699H147.746V48.3016H134.96V55.4048C134.96 62.0818 135.244 62.508 138.512 62.508C140.785 62.508 142.063 63.3603 142.063 64.6389C142.063 66.2016 140.501 66.7699 136.381 66.7699H130.698V36.9365H126.437C123.169 36.9365 122.175 37.5048 122.175 39.7778C122.175 41.3405 121.18 42.6191 120.044 42.6191C118.339 42.6191 117.913 40.6302 117.913 33.3849C117.913 25.1453 117.629 24.1508 115.071 24.1508C112.656 24.1508 112.23 23.1564 112.23 18.4683C112.23 14.3484 112.798 12.7857 114.361 12.7857C115.64 12.7857 116.492 14.0643 116.492 16.3373C116.492 19.6048 116.918 19.8889 123.595 19.8889H130.698V1.42157e-05H123.595C117.487 1.42157e-05 116.492 0.426205 116.492 2.84128C116.492 4.68811 115.498 5.68255 113.651 5.68255C111.804 5.68255 110.81 6.677 110.81 8.52382C110.81 10.9389 109.815 11.3651 105.127 11.3651C101.007 11.3651 99.4445 10.7968 99.4445 9.23414C99.4445 8.09763 100.723 7.10319 102.286 7.10319C104.417 7.10319 105.127 6.10874 105.127 3.5516C105.127 0.284141 104.559 1.42157e-05 98.7341 1.42157e-05H92.3413V6.39287ZM122.175 9.23414C122.175 10.3706 121.18 11.3651 120.044 11.3651C118.907 11.3651 117.913 10.3706 117.913 9.23414C117.913 8.09763 118.907 7.10319 120.044 7.10319C121.18 7.10319 122.175 8.09763 122.175 9.23414ZM103.706 22.0199C103.706 23.1564 102.712 24.1508 101.575 24.1508C100.439 24.1508 99.4445 23.1564 99.4445 22.0199C99.4445 20.8834 100.439 19.8889 101.575 19.8889C102.712 19.8889 103.706 20.8834 103.706 22.0199ZM98.0238 34.0953C98.0238 41.6246 97.7397 42.6191 95.1825 42.6191C92.6254 42.6191 92.3413 41.6246 92.3413 34.0953C92.3413 26.5659 92.6254 25.5714 95.1825 25.5714C97.7397 25.5714 98.0238 26.5659 98.0238 34.0953ZM110.81 28.4127C110.81 30.2595 109.815 31.254 107.968 31.254C106.121 31.254 105.127 30.2595 105.127 28.4127C105.127 26.5659 106.121 25.5714 107.968 25.5714C109.815 25.5714 110.81 26.5659 110.81 28.4127ZM86.6587 36.9365C86.6587 41.6246 86.2325 42.6191 83.8175 42.6191C81.4024 42.6191 80.9762 41.6246 80.9762 36.9365C80.9762 32.2484 81.4024 31.254 83.8175 31.254C86.2325 31.254 86.6587 32.2484 86.6587 36.9365ZM61.0873 39.7778C61.0873 41.3405 60.0929 42.6191 58.9564 42.6191C57.8198 42.6191 56.8254 41.3405 56.8254 39.7778C56.8254 38.2151 57.8198 36.9365 58.9564 36.9365C60.0929 36.9365 61.0873 38.2151 61.0873 39.7778ZM110.81 39.7778C110.81 41.6246 109.815 42.6191 107.968 42.6191C106.121 42.6191 105.127 41.6246 105.127 39.7778C105.127 37.931 106.121 36.9365 107.968 36.9365C109.815 36.9365 110.81 37.931 110.81 39.7778ZM103.706 46.1707C103.706 47.3072 102.712 48.3016 101.575 48.3016C100.439 48.3016 99.4445 47.3072 99.4445 46.1707C99.4445 45.0341 100.439 44.0397 101.575 44.0397C102.712 44.0397 103.706 45.0341 103.706 46.1707ZM116.492 47.5913C116.492 50.1484 117.202 51.1429 119.333 51.1429C121.89 51.1429 122.175 52.1373 122.175 58.9564C122.175 65.7754 121.89 66.7699 119.333 66.7699C117.06 66.7699 116.492 67.7643 116.492 71.0318C116.492 74.2992 117.06 75.2937 119.333 75.2937C120.896 75.2937 122.175 76.2881 122.175 77.4246C122.175 78.9873 120.612 79.5556 116.492 79.5556C111.378 79.5556 110.81 79.8397 110.81 83.1072C110.81 85.6643 110.099 86.6587 107.968 86.6587C105.553 86.6587 105.127 85.6643 105.127 80.2659C105.127 74.8675 104.701 73.873 102.286 73.873C100.439 73.873 99.4445 72.8786 99.4445 71.0318C99.4445 69.1849 100.439 68.1905 102.286 68.1905C104.133 68.1905 105.127 67.196 105.127 65.3492C105.127 63.2183 106.121 62.508 108.679 62.508C112.088 62.508 112.23 62.2238 112.23 53.2738C112.23 46.0286 112.656 44.0397 114.361 44.0397C115.64 44.0397 116.492 45.3183 116.492 47.5913ZM61.0873 71.0318C61.0873 72.5945 60.0929 73.873 58.9564 73.873C57.8198 73.873 56.8254 72.5945 56.8254 71.0318C56.8254 69.4691 57.8198 68.1905 58.9564 68.1905C60.0929 68.1905 61.0873 69.4691 61.0873 71.0318ZM48.3016 77.4246C48.3016 78.5611 47.3071 79.5556 46.1706 79.5556C45.0341 79.5556 44.0397 78.5611 44.0397 77.4246C44.0397 76.2881 45.0341 75.2937 46.1706 75.2937C47.3071 75.2937 48.3016 76.2881 48.3016 77.4246ZM153.429 83.8175C153.429 91.3468 153.144 92.3413 150.587 92.3413C148.74 92.3413 147.746 93.3357 147.746 95.1826C147.746 97.0294 146.752 98.0238 144.905 98.0238C143.058 98.0238 142.063 97.0294 142.063 95.1826C142.063 92.7675 141.069 92.3413 136.381 92.3413C131.693 92.3413 130.698 91.9151 130.698 89.5C130.698 87.3691 129.704 86.6587 127.147 86.6587C124.59 86.6587 123.595 85.9484 123.595 83.8175C123.595 81.4024 124.59 80.9762 129.278 80.9762C133.966 80.9762 134.96 81.4024 134.96 83.8175C134.96 85.9484 135.955 86.6587 138.512 86.6587C141.069 86.6587 142.063 85.9484 142.063 83.8175C142.063 81.9707 143.058 80.9762 144.905 80.9762C146.752 80.9762 147.746 79.9818 147.746 78.1349C147.746 76.2881 148.74 75.2937 150.587 75.2937C153.144 75.2937 153.429 76.2881 153.429 83.8175ZM42.619 83.8175C42.619 85.6643 41.6246 86.6587 39.7778 86.6587C37.931 86.6587 36.9365 85.6643 36.9365 83.8175C36.9365 81.9707 37.931 80.9762 39.7778 80.9762C41.6246 80.9762 42.619 81.9707 42.619 83.8175ZM134.96 101.575C134.96 102.712 133.966 103.706 132.829 103.706C131.693 103.706 130.698 102.712 130.698 101.575C130.698 100.439 131.693 99.4445 132.829 99.4445C133.966 99.4445 134.96 100.439 134.96 101.575ZM98.0238 110.81C98.0238 115.498 97.5976 116.492 95.1825 116.492C93.3357 116.492 92.3413 115.498 92.3413 113.651C92.3413 111.804 91.3468 110.81 89.5 110.81C87.6532 110.81 86.6587 109.815 86.6587 107.968C86.6587 105.553 87.6532 105.127 92.3413 105.127H98.0238V110.81ZM48.3016 114.361C48.3016 115.498 47.3071 116.492 46.1706 116.492C45.0341 116.492 44.0397 115.498 44.0397 114.361C44.0397 113.225 45.0341 112.23 46.1706 112.23C47.3071 112.23 48.3016 113.225 48.3016 114.361ZM66.7698 114.361C66.7698 115.498 65.7754 116.492 64.6389 116.492C63.5024 116.492 62.5079 115.498 62.5079 114.361C62.5079 113.225 63.5024 112.23 64.6389 112.23C65.7754 112.23 66.7698 113.225 66.7698 114.361ZM42.619 120.044C42.619 121.18 41.3405 122.175 39.7778 122.175C38.2151 122.175 36.9365 121.18 36.9365 120.044C36.9365 118.907 38.2151 117.913 39.7778 117.913C41.3405 117.913 42.619 118.907 42.619 120.044ZM55.4048 120.044C55.4048 121.18 54.4103 122.175 53.2738 122.175C52.1373 122.175 51.1429 121.18 51.1429 120.044C51.1429 118.907 52.1373 117.913 53.2738 117.913C54.4103 117.913 55.4048 118.907 55.4048 120.044ZM86.6587 120.044C86.6587 121.18 85.3802 122.175 83.8175 122.175C82.2548 122.175 80.9762 121.18 80.9762 120.044C80.9762 118.907 82.2548 117.913 83.8175 117.913C85.3802 117.913 86.6587 118.907 86.6587 120.044ZM166.214 126.437C166.214 133.966 165.93 134.96 163.373 134.96C160.816 134.96 160.532 133.966 160.532 126.437C160.532 118.907 160.816 117.913 163.373 117.913C165.93 117.913 166.214 118.907 166.214 126.437ZM61.0873 125.726C61.0873 126.863 60.0929 127.857 58.9564 127.857C57.8198 127.857 56.8254 126.863 56.8254 125.726C56.8254 124.59 57.8198 123.595 58.9564 123.595C60.0929 123.595 61.0873 124.59 61.0873 125.726ZM73.873 127.147C73.873 130.414 74.4413 130.698 80.2659 130.698C84.954 130.698 86.6587 131.267 86.6587 132.829C86.6587 134.534 84.3857 134.96 74.5833 134.96C64.781 134.96 62.5079 134.534 62.5079 132.829C62.5079 131.693 63.7865 130.698 65.3492 130.698C67.4802 130.698 68.1905 129.704 68.1905 127.147C68.1905 124.59 68.9008 123.595 71.0317 123.595C73.1627 123.595 73.873 124.59 73.873 127.147ZM98.0238 125.726C98.0238 127.289 96.4611 127.857 92.3413 127.857C88.2214 127.857 86.6587 127.289 86.6587 125.726C86.6587 124.164 88.2214 123.595 92.3413 123.595C96.4611 123.595 98.0238 124.164 98.0238 125.726ZM147.746 147.746H130.698V130.698H147.746V147.746ZM171.897 139.222C171.897 140.785 170.902 142.064 169.766 142.064C168.629 142.064 167.635 140.785 167.635 139.222C167.635 137.66 168.629 136.381 169.766 136.381C170.902 136.381 171.897 137.66 171.897 139.222ZM79.5556 150.587C79.5556 158.117 79.2714 159.111 76.7143 159.111C74.2992 159.111 73.873 160.106 73.873 165.504V171.897H68.1905C63.5024 171.897 62.5079 171.471 62.5079 169.056C62.5079 167.209 61.5135 166.214 59.6667 166.214C57.8198 166.214 56.8254 165.22 56.8254 163.373C56.8254 161.526 57.8198 160.532 59.6667 160.532C61.5135 160.532 62.5079 159.537 62.5079 157.69C62.5079 155.275 63.5024 154.849 68.9008 154.849C74.7254 154.849 75.2937 154.565 75.2937 151.298C75.2937 148.456 74.5833 147.746 71.7421 147.746C69.1849 147.746 68.1905 147.036 68.1905 144.905C68.1905 142.49 69.1849 142.064 73.873 142.064H79.5556V150.587ZM92.3413 144.905C92.3413 146.752 91.3468 147.746 89.5 147.746C87.6532 147.746 86.6587 146.752 86.6587 144.905C86.6587 143.058 87.6532 142.064 89.5 142.064C91.3468 142.064 92.3413 143.058 92.3413 144.905ZM166.214 147.746C166.214 152.86 165.93 153.429 162.663 153.429C159.395 153.429 159.111 153.997 159.111 159.821C159.111 164.51 158.543 166.214 156.98 166.214C155.275 166.214 154.849 164.225 154.849 156.98C154.849 148.74 155.133 147.746 157.69 147.746C159.537 147.746 160.532 146.752 160.532 144.905C160.532 143.058 161.526 142.064 163.373 142.064C165.788 142.064 166.214 143.058 166.214 147.746ZM127.857 156.98C127.857 158.117 126.863 159.111 125.726 159.111C124.59 159.111 123.595 158.117 123.595 156.98C123.595 155.844 124.59 154.849 125.726 154.849C126.863 154.849 127.857 155.844 127.857 156.98Z" fill="white"/>
<path d="M142.063 89.5C142.063 91.3468 143.058 92.3413 144.905 92.3413C146.752 92.3413 147.746 91.3468 147.746 89.5C147.746 87.6532 146.752 86.6587 144.905 86.6587C143.058 86.6587 142.063 87.6532 142.063 89.5Z" fill="white"/>
<path d="M134.96 138.512C134.96 141.353 135.671 142.064 138.512 142.064C141.353 142.064 142.063 141.353 142.063 138.512C142.063 135.671 141.353 134.96 138.512 134.96C135.671 134.96 134.96 135.671 134.96 138.512Z" fill="white"/>
<path d="M134.96 44.0397H179V0H134.96V44.0397ZM171.897 36.9365H142.063V7.10317H171.897V36.9365Z" fill="white"/>
<path d="M147.746 31.254H167.635V11.3651H147.746V31.254Z" fill="white"/>
<path d="M48.3016 22.0198C48.3016 25.0032 49.0119 25.5714 52.5635 25.5714C56.1151 25.5714 56.8254 25.0032 56.8254 22.0198C56.8254 19.0365 56.1151 18.4682 52.5635 18.4682C49.0119 18.4682 48.3016 19.0365 48.3016 22.0198Z" fill="white"/>
<path d="M166.214 77.4246C166.214 79.9818 166.925 80.9762 169.056 80.9762C171.471 80.9762 171.897 81.9706 171.897 86.6587C171.897 91.773 172.323 92.3413 175.448 92.3413C178.716 92.3413 179 91.773 179 85.9484C179 80.55 178.574 79.5556 176.159 79.5556C174.312 79.5556 173.317 78.5611 173.317 76.7143C173.317 74.5833 172.323 73.873 169.766 73.873C166.925 73.873 166.214 74.5833 166.214 77.4246Z" fill="white"/>
<path d="M0 179H44.0397V134.96H0V179ZM36.9365 171.897H7.10317V142.064H36.9365V171.897Z" fill="white"/>
<path d="M11.3651 167.635H31.254V147.746H11.3651V167.635Z" fill="white"/>
<path d="M171.897 175.448C171.897 178.29 172.607 179 175.448 179C178.29 179 179 178.29 179 175.448C179 172.607 178.29 171.897 175.448 171.897C172.607 171.897 171.897 172.607 171.897 175.448Z" fill="white"/>
</svg>
