<svg width="21" height="20" viewBox="0 0 21 20" fill="none" xmlns="http://www.w3.org/2000/svg">
<path d="M11.8125 5.12498V9.53279L15.6312 11.7367C15.7847 11.8267 15.9044 11.9647 15.9719 12.1294C16.0394 12.294 16.0509 12.4763 16.0048 12.6482C15.9586 12.82 15.8574 12.972 15.7165 13.0807C15.5756 13.1894 15.4029 13.2489 15.225 13.25C15.0814 13.254 14.94 13.2151 14.8187 13.1383L10.5937 10.7008H10.5734L10.5328 10.6703L10.5023 10.65L10.4718 10.6297L10.4414 10.5992L10.4211 10.5789C10.4007 10.5687 10.3906 10.5484 10.3804 10.5383L10.3601 10.5179L10.3398 10.4773L10.3195 10.4469L10.2992 10.4164C10.2929 10.4117 10.2878 10.4055 10.2842 10.3985C10.2807 10.3914 10.2789 10.3836 10.2789 10.3758L10.2586 10.3453C10.2586 10.3351 10.2484 10.325 10.2484 10.3047C10.2447 10.3005 10.2419 10.2957 10.2402 10.2905C10.2384 10.2852 10.2378 10.2797 10.2382 10.2742L10.2179 10.2336C10.2184 10.2281 10.2177 10.2225 10.216 10.2173C10.2142 10.212 10.2114 10.2072 10.2078 10.2031C10.2078 10.1828 10.2078 10.1726 10.1976 10.1625V10.1219C10.1976 10.1015 10.1875 10.0914 10.1875 10.0812V5.12498C10.1875 4.90949 10.2731 4.70282 10.4254 4.55045C10.5778 4.39808 10.7845 4.31248 11 4.31248C11.2154 4.31248 11.4221 4.39808 11.5745 4.55045C11.7269 4.70282 11.8125 4.90949 11.8125 5.12498ZM17.8961 3.10388C16.0648 1.27926 13.5851 0.254761 11 0.254761C8.41486 0.254761 5.93513 1.27926 4.10387 3.10388L2.04215 5.1656V3.06326C2.04215 2.84777 1.95655 2.64111 1.80417 2.48873C1.6518 2.33636 1.44514 2.25076 1.22965 2.25076C1.01416 2.25076 0.807498 2.33636 0.655125 2.48873C0.502752 2.64111 0.417149 2.84777 0.417149 3.06326V7.12576C0.415501 7.15323 0.418944 7.18078 0.427305 7.20701V7.24763C0.427305 7.25779 0.437462 7.26794 0.437462 7.28826C0.437462 7.30857 0.447618 7.30857 0.447618 7.32888C0.447151 7.33438 0.447811 7.33992 0.449557 7.34516C0.451303 7.3504 0.454099 7.35523 0.457774 7.35935C0.457774 7.37966 0.46793 7.38982 0.46793 7.39998C0.476008 7.41189 0.479606 7.42628 0.478087 7.4406L0.498399 7.47107C0.508555 7.48123 0.508555 7.50154 0.518712 7.51169L0.539024 7.54216C0.539024 7.55232 0.54918 7.56248 0.559337 7.58279L0.579649 7.61326L0.599962 7.64373L0.721837 7.75544L0.742149 7.77576L0.782774 7.80623L0.813243 7.82654L0.853868 7.84685H0.884337L0.924962 7.86716H0.95543L0.996055 7.88748H5.29215C5.50764 7.88748 5.7143 7.80187 5.86667 7.6495C6.01905 7.49713 6.10465 7.29046 6.10465 7.07498C6.10465 6.85949 6.01905 6.65282 5.86667 6.50045C5.7143 6.34808 5.50764 6.26248 5.29215 6.26248H3.18981L5.25152 4.25154C6.38819 3.11614 7.83594 2.34321 9.41179 2.03043C10.9876 1.71766 12.6208 1.87909 14.105 2.49432C15.5891 3.10955 16.8575 4.15095 17.7499 5.48691C18.6423 6.82286 19.1186 8.39339 19.1186 9.99998C19.1186 11.6066 18.6423 13.1771 17.7499 14.513C16.8575 15.849 15.5891 16.8904 14.105 17.5056C12.6208 18.1209 10.9876 18.2823 9.41179 17.9695C7.83594 17.6567 6.38819 16.8838 5.25152 15.7484C5.1768 15.6719 5.08754 15.6112 4.989 15.5697C4.89045 15.5282 4.78461 15.5069 4.6777 15.5069C4.57078 15.5069 4.46494 15.5282 4.3664 15.5697C4.26785 15.6112 4.1786 15.6719 4.10387 15.7484C3.95192 15.9007 3.86659 16.1071 3.86659 16.3222C3.86659 16.5374 3.95192 16.7438 4.10387 16.8961C5.93283 18.725 8.41342 19.7525 11 19.7525C13.5865 19.7525 16.0671 18.725 17.8961 16.8961C19.725 15.0671 20.7525 12.5865 20.7525 9.99998C20.7525 7.41344 19.725 4.93284 17.8961 3.10388Z" fill="white"/>
</svg>
