<svg width="22" height="22" viewBox="0 0 22 22" fill="none" xmlns="http://www.w3.org/2000/svg">
<path d="M21.2657 8.77808C21.2424 8.67324 21.1969 8.57462 21.1322 8.4889C21.0675 8.40317 20.9851 8.33235 20.8907 8.2812L18.6594 7.0437C18.5398 6.80117 18.4052 6.56633 18.2563 6.34058L18.3032 3.79058C18.3041 3.68362 18.2829 3.57764 18.2409 3.47924C18.199 3.38085 18.1372 3.29215 18.0594 3.2187C16.9485 2.21142 15.6346 1.4538 14.2063 0.996827C14.1038 0.964844 13.9956 0.954992 13.8889 0.96792C13.7822 0.980849 13.6795 1.01626 13.5876 1.07183L11.4032 2.38433C11.1313 2.37495 10.8688 2.37495 10.5969 2.38433L8.41257 1.07183C8.32061 1.01626 8.21791 0.980849 8.11125 0.96792C8.00458 0.954992 7.89639 0.964844 7.79382 0.996827C6.36363 1.45415 5.04923 2.21529 3.9407 3.22808C3.86227 3.299 3.79993 3.3859 3.75789 3.48292C3.71585 3.57995 3.69507 3.68485 3.69695 3.79058L3.74382 6.34058C3.59382 6.56558 3.46257 6.79995 3.33132 7.0437L1.10007 8.2812C1.007 8.33288 0.926159 8.40402 0.863063 8.48976C0.799968 8.57551 0.756099 8.67385 0.734446 8.77808C0.415666 10.2422 0.415666 11.7577 0.734446 13.2218C0.757733 13.3267 0.803265 13.4253 0.867961 13.511C0.932658 13.5967 1.01501 13.6676 1.10945 13.7187L3.3407 14.9562C3.46031 15.1987 3.59494 15.4336 3.74382 15.6593L3.69695 18.2093C3.69609 18.3163 3.71729 18.4223 3.75923 18.5207C3.80117 18.6191 3.86294 18.7078 3.9407 18.7812C5.05167 19.7885 6.36552 20.5461 7.79382 21.0031C7.89639 21.0351 8.00458 21.0449 8.11125 21.032C8.21791 21.0191 8.32061 20.9836 8.41257 20.9281L10.5969 19.6156H11.4032L13.5969 20.9281C13.711 21.0031 13.8448 21.0422 13.9813 21.0406C14.0576 21.0373 14.1331 21.0247 14.2063 21.0031C15.6365 20.5458 16.9509 19.7846 18.0594 18.7718C18.1379 18.7009 18.2002 18.614 18.2423 18.517C18.2843 18.42 18.3051 18.3151 18.3032 18.2093L18.2563 15.6593C18.4063 15.4343 18.5376 15.2 18.6688 14.9562L20.9001 13.7187C20.9931 13.667 21.074 13.5959 21.1371 13.5101C21.2002 13.4244 21.244 13.3261 21.2657 13.2218C21.5845 11.7577 21.5845 10.2422 21.2657 8.77808ZM19.8594 12.575L17.7313 13.7562C17.5963 13.8347 17.4884 13.9524 17.4219 14.0937C17.2677 14.4132 17.0891 14.7204 16.8876 15.0125C16.802 15.1435 16.7564 15.2966 16.7563 15.4531L16.7938 17.8812C15.9867 18.5685 15.0626 19.1051 14.0657 19.4656L11.9751 18.2093C11.8584 18.1414 11.7257 18.1058 11.5907 18.1062H11.5344C11.1788 18.1343 10.8214 18.1343 10.4657 18.1062C10.312 18.0978 10.1591 18.1336 10.0251 18.2093L7.93445 19.4656C6.93871 19.1068 6.01489 18.5735 5.20632 17.8906L5.24382 15.4531C5.24376 15.2966 5.19816 15.1435 5.11257 15.0125C4.91452 14.7182 4.73601 14.4113 4.5782 14.0937C4.50898 13.9543 4.40172 13.8373 4.26882 13.7562L2.1407 12.575C1.95314 11.5333 1.95314 10.4666 2.1407 9.42495L4.26882 8.2437C4.40383 8.16524 4.51174 8.04751 4.5782 7.9062C4.73243 7.58667 4.91109 7.27951 5.11257 6.98745C5.19816 6.85643 5.24376 6.70333 5.24382 6.54683L5.20632 4.1187C6.01346 3.43145 6.93752 2.8948 7.93445 2.53433L10.0251 3.79058C10.1587 3.86732 10.3119 3.90318 10.4657 3.8937C10.8214 3.86557 11.1788 3.86557 11.5344 3.8937C11.6882 3.9021 11.8411 3.86631 11.9751 3.79058L14.0657 2.53433C15.0614 2.89306 15.9853 3.4264 16.7938 4.10933L16.7563 6.54683C16.7564 6.70333 16.802 6.85643 16.8876 6.98745C17.0856 7.28167 17.2641 7.58858 17.4219 7.9062C17.4912 8.04564 17.5984 8.16264 17.7313 8.2437L19.8594 9.42495C20.047 10.4666 20.047 11.5333 19.8594 12.575ZM11.0001 5.74995C9.96172 5.74995 8.94669 6.05786 8.08333 6.63474C7.21997 7.21161 6.54706 8.03155 6.1497 8.99086C5.75234 9.95018 5.64838 11.0058 5.85095 12.0242C6.05352 13.0426 6.55354 13.978 7.28776 14.7123C8.02199 15.4465 8.95745 15.9465 9.97585 16.1491C10.9942 16.3516 12.0498 16.2477 13.0092 15.8503C13.9685 15.453 14.7884 14.7801 15.3653 13.9167C15.9422 13.0533 16.2501 12.0383 16.2501 11C16.2501 9.60757 15.6969 8.27221 14.7124 7.28764C13.7278 6.30308 12.3925 5.74995 11.0001 5.74995ZM11.0001 14.75C10.2584 14.75 9.53337 14.53 8.91668 14.118C8.3 13.7059 7.81935 13.1202 7.53552 12.435C7.25169 11.7498 7.17743 10.9958 7.32213 10.2684C7.46682 9.54094 7.82397 8.87275 8.34842 8.3483C8.87287 7.82386 9.54105 7.4667 10.2685 7.32201C10.9959 7.17731 11.7499 7.25158 12.4351 7.5354C13.1204 7.81923 13.706 8.29988 14.1181 8.91656C14.5301 9.53325 14.7501 10.2583 14.7501 11C14.7501 11.9945 14.355 12.9483 13.6517 13.6516C12.9485 14.3549 11.9946 14.75 11.0001 14.75Z" fill="white"/>
</svg>
