<svg width="18" height="18" viewBox="0 0 18 18" fill="none" xmlns="http://www.w3.org/2000/svg">
<path d="M3.96565 17.0343L0.965654 14.0343C0.827037 13.891 0.749551 13.6994 0.749551 13.4999C0.749551 13.3005 0.827037 13.1089 0.965654 12.9656C1.10785 12.8247 1.29989 12.7457 1.50003 12.7457C1.70016 12.7457 1.89221 12.8247 2.0344 12.9656L3.75003 14.6906L3.75003 1.49995C3.75003 1.30103 3.82905 1.11027 3.9697 0.969616C4.11035 0.828964 4.30112 0.749946 4.50003 0.749946C4.69894 0.749946 4.88971 0.828964 5.03036 0.969616C5.17101 1.11027 5.25003 1.30103 5.25003 1.49995L5.25003 14.6906L6.96565 12.9656C7.11138 12.846 7.29637 12.7849 7.48466 12.7941C7.67295 12.8034 7.85107 12.8823 7.98437 13.0156C8.11767 13.1489 8.19663 13.327 8.20587 13.5153C8.21512 13.7036 8.154 13.8886 8.0344 14.0343L5.0344 17.0343C4.89221 17.1752 4.70016 17.2542 4.50003 17.2542C4.29989 17.2542 4.10785 17.1752 3.96565 17.0343ZM9.96565 3.96557C9.82704 4.10893 9.74955 4.30054 9.74955 4.49995C9.74955 4.69936 9.82704 4.89097 9.96565 5.03432C10.1078 5.17516 10.2999 5.25417 10.5 5.25417C10.7002 5.25417 10.8922 5.17516 11.0344 5.03432L12.75 3.30932L12.75 16.4999C12.75 16.6989 12.829 16.8896 12.9697 17.0303C13.1104 17.1709 13.3011 17.2499 13.5 17.2499C13.6989 17.2499 13.8897 17.1709 14.0304 17.0303C14.171 16.8896 14.25 16.6989 14.25 16.4999L14.25 3.30932L15.9657 5.03432C16.1114 5.15392 16.2964 5.21504 16.4847 5.20579C16.673 5.19654 16.8511 5.11759 16.9844 4.98429C17.1177 4.85099 17.1966 4.67287 17.2059 4.48458C17.2151 4.29629 17.154 4.11129 17.0344 3.96557L14.0344 0.965571C13.8922 0.824735 13.7002 0.745727 13.5 0.745727C13.2999 0.745727 13.1078 0.824735 12.9657 0.965571L9.96565 3.96557Z" fill="#4390E3"/>
</svg>
