<svg width="18" height="18" viewBox="0 0 18 18" fill="none" xmlns="http://www.w3.org/2000/svg">
<path d="M17.0344 14.0343L14.0344 17.0343C13.8911 17.173 13.6995 17.2504 13.5001 17.2504C13.3007 17.2504 13.109 17.173 12.9657 17.0343C12.8249 16.8922 12.7459 16.7001 12.7459 16.5C12.7459 16.2998 12.8249 16.1078 12.9657 15.9656L14.6907 14.25H1.50007C1.30116 14.25 1.11039 14.171 0.969739 14.0303C0.829086 13.8896 0.750069 13.6989 0.750069 13.5C0.750069 13.3011 0.829086 13.1103 0.969739 12.9696C1.11039 12.829 1.30116 12.75 1.50007 12.75H14.6907L12.9657 11.0343C12.8461 10.8886 12.785 10.7036 12.7942 10.5153C12.8035 10.327 12.8824 10.1489 13.0157 10.0156C13.149 9.88233 13.3271 9.80337 13.5154 9.79413C13.7037 9.78488 13.8887 9.846 14.0344 9.9656L17.0344 12.9656C17.1753 13.1078 17.2543 13.2998 17.2543 13.5C17.2543 13.7001 17.1753 13.8922 17.0344 14.0343ZM3.96569 8.03435C4.10905 8.17296 4.30066 8.25045 4.50007 8.25045C4.69948 8.25045 4.89109 8.17296 5.03444 8.03435C5.17528 7.89215 5.25429 7.70011 5.25429 7.49997C5.25429 7.29984 5.17528 7.10779 5.03444 6.9656L3.30944 5.24997H16.5001C16.699 5.24997 16.8897 5.17095 17.0304 5.0303C17.1711 4.88965 17.2501 4.69888 17.2501 4.49997C17.2501 4.30106 17.1711 4.11029 17.0304 3.96964C16.8897 3.82899 16.699 3.74997 16.5001 3.74997H3.30944L5.03444 2.03435C5.15404 1.88862 5.21516 1.70363 5.20591 1.51534C5.19666 1.32705 5.11771 1.14893 4.98441 1.01563C4.85111 0.882328 4.67299 0.803375 4.4847 0.794128C4.29641 0.78488 4.11142 0.845999 3.96569 0.965596L0.965693 3.9656C0.824857 4.10779 0.74585 4.29984 0.74585 4.49997C0.74585 4.70011 0.824857 4.89215 0.965693 5.03435L3.96569 8.03435Z" fill="white"/>
</svg>
