<?xml version="1.0" encoding="UTF-8"?>
<svg id="Layer_1" data-name="Layer 1" xmlns="http://www.w3.org/2000/svg" viewBox="0 0 194.55 194.55">
  <defs>
    <style>
      .cls-1 {
        fill: none;
        stroke: #bedffe;
        stroke-miterlimit: 10;
        stroke-width: 6px;
      }
    </style>
  </defs>
  <path class="cls-1" d="M167.81,34.74C125.41,125.45,64.99,157.32,34.94,168c-5.27-4.65-10.01-9.87-14.13-15.57C9.6,136.92,3,117.87,3,97.28,3,45.21,45.21,3,97.28,3c20.31,0,39.12,6.42,54.51,17.35,5.88,4.18,11.26,9.01,16.02,14.39Z"/>
  <path class="cls-1" d="M191.55,97.28c0,52.06-42.21,94.27-94.27,94.27-23.9,0-45.73-8.89-62.34-23.55,30.05-10.68,90.47-42.55,132.87-133.26,14.78,16.65,23.74,38.54,23.74,62.54Z"/>
  <path class="cls-1" d="M34.94,168c-2.52,.9-4.83,1.64-6.89,2.26-5.28,1.58-10.32-3.07-9.19-8.46l1.95-9.37c4.12,5.7,8.86,10.92,14.13,15.57Z"/>
  <path class="cls-1" d="M171.29,27.08c-1.15,2.6-2.31,5.15-3.48,7.66-4.76-5.38-10.14-10.21-16.02-14.39,4.77-2.2,9.46-2.83,13.35-2.81,4.9,.03,8.13,5.06,6.15,9.54Z"/>
</svg>