<svg width="19" height="18" viewBox="0 0 19 18" fill="none" xmlns="http://www.w3.org/2000/svg">
<path d="M17.25 3.75H2.25C2.05109 3.75 1.86032 3.67098 1.71967 3.53033C1.57902 3.38968 1.5 3.19891 1.5 3C1.5 2.80109 1.57902 2.61032 1.71967 2.46967C1.86032 2.32902 2.05109 2.25 2.25 2.25H15C15.1989 2.25 15.3897 2.17098 15.5303 2.03033C15.671 1.88968 15.75 1.69891 15.75 1.5C15.75 1.30109 15.671 1.11032 15.5303 0.96967C15.3897 0.829018 15.1989 0.75 15 0.75H2.25C1.65402 0.752468 1.08316 0.990313 0.661736 1.41174C0.240313 1.83316 0.00246785 2.40402 0 3V15C0.00246785 15.596 0.240313 16.1668 0.661736 16.5883C1.08316 17.0097 1.65402 17.2475 2.25 17.25H17.25C17.6478 17.25 18.0294 17.092 18.3107 16.8107C18.592 16.5294 18.75 16.1478 18.75 15.75V5.25C18.75 4.85218 18.592 4.47064 18.3107 4.18934C18.0294 3.90804 17.6478 3.75 17.25 3.75ZM17.25 15.75H2.25C2.05109 15.75 1.86032 15.671 1.71967 15.5303C1.57902 15.3897 1.5 15.1989 1.5 15V5.11875C1.74054 5.20551 1.99429 5.24992 2.25 5.25H17.25V15.75ZM12.75 10.5C12.75 10.2775 12.816 10.06 12.9396 9.87498C13.0632 9.68998 13.2389 9.54578 13.4445 9.46064C13.65 9.37549 13.8762 9.35321 14.0945 9.39662C14.3127 9.44002 14.5132 9.54717 14.6705 9.70451C14.8278 9.86184 14.935 10.0623 14.9784 10.2805C15.0218 10.4988 14.9995 10.725 14.9144 10.9305C14.8292 11.1361 14.685 11.3118 14.5 11.4354C14.315 11.559 14.0975 11.625 13.875 11.625C13.5766 11.625 13.2905 11.5065 13.0795 11.2955C12.8685 11.0845 12.75 10.7984 12.75 10.5Z" fill="white"/>
</svg>
